SplineFontDB: 3.0
FontName: Coval-Black
FullName: Coval Black
FamilyName: Coval
Weight: Black
Copyright: Copyright \\(c\\) 2015 by Context Ltd. All rights reserved.
Version: 002.500
ItalicAngle: 0
UnderlinePosition: -75
UnderlineWidth: 50
Ascent: 800
Descent: 200
InvalidEm: 0
sfntRevision: 0x00010000
LayerCount: 2
Layer: 0 0 "Back" 1
Layer: 1 0 "Fore" 0
PreferredKerning: 4
XUID: [1021 196 -1413280356 6138]
StyleMap: 0x0020
FSType: 0
OS2Version: 0
OS2_WeightWidthSlopeOnly: 0
OS2_UseTypoMetrics: 0
CreationTime: 1426742221
ModificationTime: 1514914855
PfmFamily: 17
TTFWeight: 1000
TTFWidth: 5
LineGap: 200
VLineGap: 0
Panose: 2 0 9 3 9 0 0 2 0 3
OS2TypoAscent: 800
OS2TypoAOffset: 0
OS2TypoDescent: -200
OS2TypoDOffset: 0
OS2TypoLinegap: 200
OS2WinAscent: 934
OS2WinAOffset: 0
OS2WinDescent: 339
OS2WinDOffset: 0
HheadAscent: 800
HheadAOffset: 0
HheadDescent: -200
HheadDOffset: 0
OS2SubXSize: 650
OS2SubYSize: 600
OS2SubXOff: 0
OS2SubYOff: 75
OS2SupXSize: 650
OS2SupYSize: 600
OS2SupXOff: 0
OS2SupYOff: 350
OS2StrikeYSize: 50
OS2StrikeYPos: 283
OS2CapHeight: 689
OS2XHeight: 472
OS2Vendor: 'CNTX'
OS2CodePages: 2000011f.00000000
OS2UnicodeRanges: e10002ff.5201e9eb.00000004.00000000
Lookup: 258 0 0 "'kern' Horizontal Kerning lookup 0" { "'kern' Horizontal Kerning lookup 0 subtable"  } ['kern' ('cyrl' <'MKD ' 'SRB ' 'dflt' > 'grek' <'dflt' > 'latn' <'AZE ' 'NLD ' 'TRK ' 'VIT ' 'dflt' > ) ]
Lookup: 260 0 0 "'mark' Mark Positioning lookup 1" { "'mark' Mark Positioning lookup 1-1"  } ['mark' ('DFLT' <'dflt' > 'cyrl' <'BGR ' 'MKD ' 'RUS ' 'SRB ' 'dflt' > 'grek' <'dflt' > 'latn' <'AZE ' 'NLD ' 'TRK ' 'VIT ' 'dflt' > 'thai' <'dflt' > ) ]
MarkAttachClasses: 1
DEI: 91125

StartChar: .notdef
Encoding: 256 -1 0
GlifName: _notdef
Width: 760
Flags: MW
HStem: 10 77<130 620 130 744> 685 78<130 130 130 620>
VStem: 5 78<142 142 142 632> 666 78<142 632 632 632>
LayerCount: 2
Fore
SplineSet
5 10 m 1
 5 763 l 1
 744 763 l 1
 744 10 l 1
 5 10 l 1
83 142 m 1
 328 387 l 1
 242 472 171 545 83 632 c 1
 83 142 l 1
130 87 m 1
 620 87 l 1
 537 171 458 248 375 332 c 1
 289 246 216 175 130 87 c 1
130 685 m 1
 375 440 l 1
 460 527 533 598 620 685 c 1
 130 685 l 1
421 387 m 1
 666 142 l 1
 666 632 l 1
 583 549 506 470 421 387 c 1
EndSplineSet
Validated: 1
EndChar

StartChar: exclam
Encoding: 33 33 2
GlifName: exclam
Width: 367
GlyphClass: 2
Flags: MW
HStem: 0 147<107 253 107 253> 675 20G<107 253 253 253>
VStem: 107 146<0 147 0 147>
LayerCount: 2
Fore
SplineSet
107 695 m 1
 253 695 l 1
 241 211 l 1
 119 211 l 1
 107 695 l 1
107 0 m 1
 107 147 l 1
 253 147 l 1
 253 0 l 1
 107 0 l 1
EndSplineSet
Validated: 1
EndChar

StartChar: quotedbl
Encoding: 34 34 3
GlifName: quotedbl
Width: 550
GlyphClass: 2
Flags: MW
HStem: 386 21G<137 225 137 137 315 403 315 315> 675 20G<104 258 258 258 282 436 436 436>
VStem: 137 121 315 121
LayerCount: 2
Fore
SplineSet
282 695 m 1
 436 695 l 1
 403 386 l 1
 315 386 l 1
 282 695 l 1
104 695 m 1
 258 695 l 1
 225 386 l 1
 137 386 l 1
 104 695 l 1
EndSplineSet
Validated: 1
EndChar

StartChar: numbersign
Encoding: 35 35 4
GlifName: numbersign
Width: 899
GlyphClass: 2
Flags: HMW
HStem: -161 21G<205 237 437 467.5> 106 89<96.5 266 118 239 360 470 118 334 592 784> 336 91<96.5 336 118 309 118 403 431 541 662 789> 674 20G<433 463.5 666 695.5>
LayerCount: 2
Fore
SplineSet
76 195 m 1
 266 195 l 1
 309 336 l 1
 106 336 l 1
 126 427 l 1
 336 427 l 1
 410 694 l 1
 501 694 l 1
 431 427 l 1
 567 427 l 1
 646 694 l 1
 740 694 l 1
 662 427 l 1
 846 427 l 1
 826 336 l 1
 635 336 l 1
 592 195 l 1
 806 195 l 1
 786 106 l 1
 565 106 l 1
 483 -161 l 1
 386 -161 l 1
 470 106 l 1
 334 106 l 1
 250 -161 l 1
 152 -161 l 1
 239 106 l 1
 56 106 l 1
 76 195 l 1
360 195 m 1
 498 195 l 1
 541 336 l 1
 403 336 l 1
 360 195 l 1
EndSplineSet
EndChar

StartChar: dollar
Encoding: 36 36 5
GlifName: dollar
Width: 550
GlyphClass: 2
Flags: MW
HStem: -54 21G<225 315 225 225> 585 119<315 315> 728 20G<225 315 315 315>
VStem: 52 134<503 538.5 503 577.5> 225 90<-54 -9 -9 -9 115 262 458 479 704 748> 355 133<164 208.5>
LayerCount: 2
Fore
SplineSet
40 61 m 1
 62 190 l 1
 115 151 147 123 225 110 c 1
 225 288 l 1
 95 320 52 418 52 498 c 0
 52 657 151 693 225 703 c 1
 225 748 l 1
 315 748 l 1
 315 704 l 1
 373 699 418 678 470 645 c 1
 450 525 l 1
 430 535 l 1
 402 554 371 578 315 585 c 1
 315 434 l 1
 441 400 488 297 488 210 c 0
 488 95 444 6 315 -8 c 1
 315 -54 l 1
 225 -54 l 1
 225 -9 l 1
 200 -7 129 3 40 61 c 1
186 520 m 0
 186 486 209 467 225 458 c 1
 225 500 224 535 224 581 c 1
 209 574 186 557 186 520 c 0
315 115 m 1
 331 122 355 140 355 188 c 0
 355 229 334 251 315 262 c 1
 315 115 l 1
EndSplineSet
Validated: 1
EndChar

StartChar: percent
Encoding: 37 37 6
GlifName: percent
Width: 1029
GlyphClass: 2
Flags: HMW
HStem: -54 90<740.5 797.5 740.5 855.5> 266 91<746 794.5> 337 91<217 267.5 217 311.5> 658 90<212 264.5>
VStem: 56 136<521 547.5 521 596> 296 131<525 571.5> 585 137<145.5 188.5 145.5 226.5> 825 131<134 167 119 180>
LayerCount: 2
Back
SplineSet
193 -4 m 4
 209 36 l 4
 725 720 l 5
 724 719 l 6
 772 748 l 4
 822 698 l 4
 807 662 l 4
 288 -27 l 4
 242 -53 l 4
 193 -4 l 4
EndSplineSet
Fore
SplineSet
722 156 m 4xdf
 722 116.610687023 726 36 771 36 c 4
 824 36 825 116 825 152 c 4
 825 208 818 266 771 266 c 4
 728 266 722 203.777777778 722 156 c 4xdf
585 153 m 4
 585 300 660 357 773 357 c 4
 919 357 956 257.049986119 956 167 c 4
 956 71 940 -54 771 -54 c 4
 659 -54 585 3 585 153 c 4
192 543 m 0
 192 491.005665703 193 428 241 428 c 0xbf
 294 428 296 507 296 543 c 0
 296 600 288 658 241 658 c 0
 198 658 192 586.649635036 192 543 c 0
56 543 m 0
 56 649 94 748 243 748 c 0
 397 748 427 637 427 541 c 0
 427 428 382 337 241 337 c 0
 130 337 56 395 56 543 c 0
872 748 m 1
 268 -53 l 1
 141.604492188 -53 l 1
 746.211914062 748 l 1
 872 748 l 1
EndSplineSet
Validated: 1
EndChar

StartChar: ampersand
Encoding: 38 38 7
GlifName: ampersand
Width: 801
GlyphClass: 2
Flags: MW
HStem: -22 117<615.5 639> 626 90<320.5 351.5>
VStem: 40 152<161.5 175.5> 152 121<516.5 546> 381 131<513.5 560>
LayerCount: 2
Fore
SplineSet
40 154 m 0xe8
 40 253.146945368 119.974991665 301.091210585 182 336 c 1
 167 377 152 428 152 485 c 0xd8
 152 607 224 716 334 716 c 0
 420.460674157 716 496 682 496 547 c 0
 496 467 414.08988764 396 334 333 c 1
 380.8 248.066225166 442.16 183.516556291 464 162 c 1
 494 188 571 265 618 434 c 1
 730 422 l 1
 703 316 650 208 554 112 c 1
 576 102 600 95 631 95 c 0
 677.446428524 95 716.750105892 107.789693212 752 121 c 1
 752 -3 l 1
 722 -14 673.953846154 -22 638 -22 c 0
 553.132393823 -22 478.921212121 6 445 30 c 1
 378 -9 294 -21 246 -21 c 0
 125 -21 40 58 40 154 c 0xe8
192 179 m 0
 192 144 206.928571429 95 268 95 c 0
 294.688172043 95 320 100 341 111 c 1
 299 152 262 190 222 255 c 1
 204.163061037 237.163061037 192 211.72855611 192 179 c 0
273 540 m 0
 273 493 284 447 294 416 c 1
 329 441 381 481 381 546 c 0
 381 574 371 626 332 626 c 0
 309 626 273 604 273 540 c 0
EndSplineSet
Validated: 1
EndChar

StartChar: quotesingle
Encoding: 39 39 8
GlifName: quotesingle
Width: 306
GlyphClass: 2
Flags: MW
HStem: 386 21G<105 194 105 105> 675 20G<72 227 227 227>
VStem: 105 122
LayerCount: 2
Fore
SplineSet
72 695 m 1
 227 695 l 1
 194 386 l 1
 105 386 l 1
 72 695 l 1
EndSplineSet
Validated: 1
EndChar

StartChar: parenleft
Encoding: 40 40 9
GlifName: parenleft
Width: 428
GlyphClass: 2
Flags: MW
HStem: -217 21G<284 373 284 284> 728 20G<284 378 378 378>
VStem: 76 153<171 362>
LayerCount: 2
Fore
SplineSet
76 265 m 0
 76 459 138 632 284 748 c 1
 378 748 l 1
 322 677 229 561 229 266 c 0
 229 -114 361 -194 373 -217 c 1
 284 -217 l 1
 138 -99 76 77 76 265 c 0
EndSplineSet
Validated: 1
EndChar

StartChar: parenright
Encoding: 41 41 10
GlifName: parenright
Width: 428
GlyphClass: 2
Flags: MW
HStem: -201 21G<53 53> 728 20G<43 136 136 136>
VStem: 191 152<170 360.5 170 415>
LayerCount: 2
Fore
SplineSet
53 -201 m 1
 106 -135 191 -30 191 266 c 0
 191 564 98 677 64 718 c 1
 64 717 l 1
 57 727 50 738 43 748 c 1
 136 748 l 1
 281 632 343 456 343 265 c 0
 343 75 281 -100 136 -217 c 1
 61 -217 l 1
 53 -201 l 1
EndSplineSet
Validated: 1
EndChar

StartChar: asterisk
Encoding: 42 42 11
GlifName: asterisk
Width: 550
GlyphClass: 2
Flags: MW
HStem: 270 21G<255.5 284> 728 20G<257 284.5>
VStem: 59 247 234 71<571 571> 235 105<447 508>
LayerCount: 2
Fore
SplineSet
59 424 m 0xe0
 59 467 73 465 201 508 c 1
 168 519 l 2
 75 549 59 555 59 595 c 0xe0
 59 628 86 661 120 661 c 0
 149 661 157 643 234 571 c 1
 226 610 l 2
 217 656 211 682 211 698 c 0
 211 731 244 748 270 748 c 0
 299 748 330 728 330 696 c 0
 330 677 314 614 305 571 c 1xd0
 331 597 l 2
 396 658 400 661 420 661 c 0
 443 661 463 646 473 626 c 0
 478 616 481 606 481 595 c 0
 481 552 460 548 340 508 c 1xc8
 378 498 l 1
 466 469 481 464 481 424 c 0
 481 392 455 359 420 359 c 0
 390 359 385 376 306 447 c 1xe0
 326 350 330 330 330 323 c 0
 330 290 298 270 270 270 c 0
 241 270 210 291 210 323 c 0
 210 333 213 347 220 375 c 2
 235 447 l 1xc8
 148 360 140 359 121 359 c 0
 85 359 59 392 59 424 c 0xe0
EndSplineSet
Validated: 1
EndChar

StartChar: plus
Encoding: 43 43 12
GlifName: plus
Width: 658
GlyphClass: 2
Flags: HMW
HStem: -11 21G<285 375 285 285> 221 90<53 286 53 286 375 606 53 375> 523 20G<286 375 375 375>
VStem: 286 89<-11 221 311 543>
LayerCount: 2
Fore
SplineSet
53 311 m 1
 286 311 l 1
 286 543 l 1
 375 543 l 1
 375 311 l 1
 606 311 l 1
 606 221 l 1
 375 221 l 1
 375 -11 l 1
 286 -11 l 1
 286 221 l 1
 53 221 l 1
 53 311 l 1
EndSplineSet
Validated: 1
EndChar

StartChar: comma
Encoding: 44 44 13
GlifName: comma
Width: 306
GlyphClass: 2
Flags: MW
HStem: -108 21G<72 156 72 72> 0 21G 127 20G<76 223 223 223>
VStem: 76 147<21 147 21 147 21 147>
LayerCount: 2
Fore
SplineSet
76 0 m 1
 76 147 l 1
 223 147 l 1
 223 21 l 2
 222 3 222 3 206 -22 c 0
 197 -37 179 -66 156 -108 c 1
 72 -108 l 1
 111 0 l 1
 76 0 l 1
EndSplineSet
Validated: 1
EndChar

StartChar: hyphen
Encoding: 45 45 14
GlifName: hyphen
Width: 367
GlyphClass: 2
Flags: MW
HStem: 194 91<4 308 4 308>
LayerCount: 2
Fore
SplineSet
4 194 m 1
 4 285 l 1
 308 285 l 1
 308 194 l 1
 4 194 l 1
EndSplineSet
Validated: 1
EndChar

StartChar: period
Encoding: 46 46 15
GlifName: period
Width: 306
GlyphClass: 2
Flags: MW
HStem: 0 147<76 223 76 223>
VStem: 76 147<0 147 0 147>
LayerCount: 2
Fore
SplineSet
76 0 m 1
 76 147 l 1
 223 147 l 1
 223 0 l 1
 76 0 l 1
EndSplineSet
Validated: 1
EndChar

StartChar: slash
Encoding: 47 47 16
GlifName: slash
Width: 550
GlyphClass: 2
Flags: HMW
HStem: -169 21G 728 20G<426.5 453.5>
LayerCount: 2
Back
SplineSet
53 -171 m 4
 53 -159 61 -149 61 -141 c 6
 395 705 l 6
 401 721 411 748 442 748 c 4
 465 748 487 731 487 704 c 4
 487 695 483 683 480 676 c 6
 150 -162 l 6
 149 -164 148 -167 147 -169 c 4
 139 -189 127 -216 98 -216 c 4
 77 -216 53 -198 53 -171 c 4
EndSplineSet
Fore
SplineSet
508.4921875 748 m 5
 129 -216 l 1
 31.787109375 -216 l 1
 412 748 l 5
 508.4921875 748 l 5
EndSplineSet
Validated: 1
EndChar

StartChar: zero
Encoding: 48 48 17
GlifName: zero
Width: 560
GlyphClass: 2
Flags: MW
HStem: -21 89<274 313.5 274 399> 626 90<238.5 318.5>
VStem: 45 153<262.5 352 352 390 258.5 422> 363 152<345 372 372 375>
LayerCount: 2
Fore
SplineSet
45 353 m 0
 45 513 50 716 280 716 c 0
 510 716 515 513 515 353 c 0
 515 193 510 -21 280 -21 c 0
 50 -21 45 193 45 353 c 0
198 283 m 2
 198 135.149191338 217.096679688 68 280 68 c 0
 347 68 363 133.716981132 363 283 c 2
 363 423 l 2
 363 529.703868595 353.955860269 626 280 626 c 0
 203.780777688 626 198 515.937620483 198 423 c 2
 198 283 l 2
EndSplineSet
Validated: 513
EndChar

StartChar: one
Encoding: 49 49 18
GlifName: one
Width: 550
GlyphClass: 2
Flags: MW
HStem: 0 90<83 205 359 473 83 205> 559 90<68 92.5> 696 20G<311 359 359 359>
VStem: 205 154<90 570 570 570>
LayerCount: 2
Fore
SplineSet
68 559 m 1
 68 649 l 1
 185 649 257 671 311 716 c 1
 359 716 l 1
 359 90 l 1
 473 90 l 1
 473 0 l 1
 83 0 l 1
 83 90 l 1
 205 90 l 1
 205 570 l 1
 164 562 117 559 68 559 c 1
EndSplineSet
Validated: 1
EndChar

StartChar: two
Encoding: 50 50 19
GlifName: two
Width: 550
GlyphClass: 2
Flags: MW
HStem: 0 122<175 229 175 494> 600 116<204.5 271>
VStem: 337 157<437 511>
LayerCount: 2
Fore
SplineSet
39 571 m 1
 67 641 124 716 255 716 c 0
 409 716 494 601 494 483 c 0
 494 375 418 333 290 224 c 1
 290 225 l 1
 252 191 213 156 175 122 c 1
 283 122 387 124 494 124 c 1
 494 0 l 1
 47 0 l 1
 47 111 l 1
 102 166 155 229 215 279 c 1
 214 278 l 2
 260 321 337 393 337 481 c 0
 337 541 303 600 239 600 c 0
 170 600 139 530 119 461 c 1
 99 487 39 547 39 571 c 1
EndSplineSet
Validated: 1
EndChar

StartChar: three
Encoding: 51 51 20
GlifName: three
Width: 550
GlyphClass: 2
Flags: MW
HStem: -21 111<215.5 299 215.5 356.5> 610 106<214 283.5>
VStem: 317 155<494 559> 339 133 339 163<194 267 150 273.5>
LayerCount: 2
Fore
SplineSet
37 62 m 1xc8
 44 100 50 137 57 175 c 1
 115 126 177 90 254 90 c 0
 344 90 339 168 339 220 c 0xd0
 339 327 282 329 252 329 c 2
 172 329 l 1
 172 419 l 1
 208 421 l 2
 257 424 317 446 317 541 c 0
 317 577 310 610 257 610 c 0
 171 610 124 535 114 520 c 1
 50 612 l 1
 99 672 166 716 260 716 c 0
 444 716 472 609 472 538 c 0xe0
 472 450 418 404 380 380 c 1
 426 365 502 327 502 207 c 0
 502 93 454 -21 259 -21 c 0
 172 -21 101 9 37 62 c 1xc8
EndSplineSet
Validated: 33
EndChar

StartChar: four
Encoding: 52 52 21
GlifName: four
Width: 550
GlyphClass: 2
Flags: MW
HStem: 0 21G<290 430 290 290> 148 111<151 290 430 517> 675 20G<263 430 430 430>
VStem: 294 136<259 534 534 534>
LayerCount: 2
Fore
SplineSet
23 148 m 1
 23 253 l 1
 263 695 l 1
 430 695 l 1
 430 259 l 1
 517 259 l 1
 517 148 l 1
 430 148 l 1
 430 0 l 1
 290 0 l 1
 290 148 l 1
 23 148 l 1
151 259 m 1
 294 259 l 1
 294 534 l 1
 262 463 200 350 166 287 c 2
 151 259 l 1
EndSplineSet
Validated: 1
EndChar

StartChar: five
Encoding: 53 53 22
GlifName: five
Width: 550
GlyphClass: 2
Flags: MW
HStem: -21 21G<179.5 304> 368 91<269 306.5> 577 118<220 458 220 220>
VStem: 74 146<447 577 447 695 447 695> 330 164<186.5 256.5>
LayerCount: 2
Fore
SplineSet
27 89 m 1
 90 194 l 1
 120.509646368 132.980707264 173.462300393 89 239 89 c 0
 324 89 330 149 330 224 c 0
 330 289 322.788461538 368 255 368 c 0
 213.716777425 368 192 330 192 288 c 1
 74 288 l 1
 74 695 l 1
 458 695 l 1
 458 577 l 1
 220 577 l 1
 220 447 l 1
 236 453 255 459 283 459 c 0
 409 459 494 393 494 223 c 0
 494 27 365 -21 243 -21 c 0
 116 -21 49 58 27 89 c 1
EndSplineSet
Validated: 513
EndChar

StartChar: six
Encoding: 54 54 23
GlifName: six
Width: 550
GlyphClass: 2
Flags: MW
HStem: -21 110<238 307> 408 91<286.5 316.5> 610 106<274.5 348 255.5 350>
VStem: 38 157<282.5 291.5 215.5 505.5> 347 155<220 292>
LayerCount: 2
Fore
SplineSet
38 342 m 0
 38 669 182 716 329 716 c 0
 367 716 392 710 433 692 c 1
 433 581 l 1
 396 600 368 610 332 610 c 0
 217 610 202 542 195 431 c 1
 220 468 257 499 316 499 c 0
 492 499 502 339 502 253 c 0
 502 0 341 -21 273 -21 c 0
 43 -21 38 223 38 342 c 0
195 256 m 0
 195 175 200 89 276 89 c 0
 339 89 347 186 347 254 c 0
 347 330 335 408 278 408 c 0
 212 408 195 327 195 256 c 0
EndSplineSet
Validated: 513
EndChar

StartChar: seven
Encoding: 55 55 24
GlifName: seven
Width: 550
GlyphClass: 2
Flags: MW
HStem: -11 21G<132 290 132 132> 571 124<332 390>
VStem: 132 158<-11 93.5 -11 98>
LayerCount: 2
Fore
SplineSet
38 570 m 1
 38 695 l 1
 502 695 l 1
 502 583 l 1
 361 416 290 198 290 -11 c 1
 132 -11 l 1
 132 207 222 421 390 571 c 1
 274 571 153 570 38 570 c 1
EndSplineSet
Validated: 1
EndChar

StartChar: eight
Encoding: 56 56 25
GlifName: eight
Width: 550
GlyphClass: 2
Flags: MW
HStem: -21 111<232.5 307 232.5 363> 329 90<240 305 240 310> 610 106<227 303.5>
VStem: 38 158 52 144<477 524.5 477 567.5> 344 144<486 543.5> 344 158
LayerCount: 2
Fore
SplineSet
38 205 m 0xf2
 38 284 68 346 139 375 c 1
 103 392 52 428 52 518 c 0
 52 617 96 716 271 716 c 0
 445 716 488 617 488 517 c 0xec
 488 432 435 393 399 375 c 1
 471 346 502 285 502 205 c 0
 502 91 456 -21 270 -21 c 0
 85 -21 38 92 38 205 c 0xf2
193 194 m 0
 194 140 196 90 269 90 c 0
 345 90 347 148 348 189 c 0
 348 266 350 329 270 329 c 0
 170 329 193 208 193 194 c 0
196 506 m 0
 196 448 211 419 269 419 c 0
 341 419 344 465 344 507 c 0
 344 580 336 610 271 610 c 0
 183 610 196 543 196 506 c 0
EndSplineSet
Validated: 33
EndChar

StartChar: nine
Encoding: 57 57 26
GlifName: nine
Width: 550
GlyphClass: 2
Flags: MW
HStem: -21 111<203.5 262.5 203.5 343.5> 196 91<247 255> 610 106<224 307.5>
VStem: 38 155<447 473 447 499> 346 156<376.5 419 277.5 480.5>
LayerCount: 2
Fore
SplineSet
38 440 m 0
 38 558 64 716 272 716 c 0
 496 716 502 479 502 359 c 0
 502 196 464 -21 223 -21 c 0
 161 -21 119 -2 68 32 c 1
 124 131 l 1
 157 106 184 90 223 90 c 0
 302 90 341 132 345 265 c 1
 323 230 286 196 224 196 c 0
 68.9513656213 196 38 328.341138735 38 440 c 0
193 447 m 0
 193 300 232 287 262 287 c 0
 296 287 346 308 346 445 c 0
 346 516 345 610 270 610 c 0
 218 610 193 548 193 447 c 0
EndSplineSet
Validated: 513
EndChar

StartChar: colon
Encoding: 58 58 27
GlifName: colon
Width: 306
GlyphClass: 2
Flags: MW
HStem: 0 147<76 223 76 223> 331 147<76 223 76 223>
VStem: 76 147<0 147 0 147 331 478>
LayerCount: 2
Fore
SplineSet
76 0 m 1
 76 147 l 1
 223 147 l 1
 223 0 l 1
 76 0 l 1
76 331 m 1
 76 478 l 1
 223 478 l 1
 223 331 l 1
 76 331 l 1
EndSplineSet
Validated: 1
EndChar

StartChar: semicolon
Encoding: 59 59 28
GlifName: semicolon
Width: 306
GlyphClass: 2
Flags: MW
HStem: -108 21G<72 156 72 72> 0 21G 331 147<76 223 76 223>
VStem: 76 147<21 147 21 147 21 147 331 478>
LayerCount: 2
Fore
SplineSet
76 331 m 1
 76 478 l 1
 223 478 l 1
 223 331 l 1
 76 331 l 1
76 0 m 1
 76 147 l 1
 223 147 l 1
 223 21 l 2
 222 3 222 3 206 -22 c 0
 197 -37 179 -66 156 -108 c 1
 72 -108 l 1
 111 0 l 1
 76 0 l 1
EndSplineSet
Validated: 1
EndChar

StartChar: less
Encoding: 60 60 29
GlifName: less
Width: 612
GlyphClass: 2
Flags: HMW
HStem: -94 21G<525 543.5> 606 20G<524 543.5>
LayerCount: 2
Fore
SplineSet
80 318 m 5
 532 636 l 5
 532 485 l 5
 234 269 l 5
 234 261 l 5
 532 55 l 5
 532 -102 l 5
 80 212 l 5
 80 318 l 5
EndSplineSet
Validated: 1
EndChar

StartChar: equal
Encoding: 61 61 30
GlifName: equal
Width: 672
GlyphClass: 2
Flags: MW
HStem: 106 89<106 553 106 555> 336 91<106 554 106 554 105 554>
LayerCount: 2
Fore
SplineSet
54 195 m 1
 606 195 l 1
 606 106 l 1
 54 106 l 1
 54 195 l 1
54 427 m 1
 606 427 l 1
 606 336 l 1
 54 336 l 1
 54 427 l 1
EndSplineSet
Validated: 1
EndChar

StartChar: greater
Encoding: 62 62 31
GlifName: greater
Width: 612
GlyphClass: 2
Flags: HMW
HStem: -94 21G<71.5 90> 606 20G<71.5 91>
LayerCount: 2
Fore
SplineSet
532 318 m 5
 532 212 l 5
 80 -102 l 5
 80 55 l 5
 378 261 l 5
 378 269 l 5
 80 485 l 5
 80 636 l 5
 532 318 l 5
EndSplineSet
Validated: 1
EndChar

StartChar: question
Encoding: 63 63 32
GlifName: question
Width: 519
GlyphClass: 2
Flags: HMW
HStem: 0 147<167 314 167 314> 615 91<236 267>
VStem: 167 147<0 147 0 147> 306 151<545.5 580.5>
LayerCount: 2
Fore
SplineSet
236 706 m 0xd0
 403 706 457 646 457 551 c 0
 457 416 301 397 301 253 c 2
 301 211 l 1
 180 211 l 1
 180 252 l 2
 180 435 306 449.71541308 306 556 c 0
 306 595 285 615 244 615 c 0
 180 615 130 581 93 537 c 1
 47 651 l 1
 97.9752585252 681.585155115 157.686502599 706 236 706 c 0xd0
167 0 m 1xe0
 167 147 l 1
 314 147 l 1
 314 0 l 1
 167 0 l 1xe0
EndSplineSet
Validated: 1
EndChar

StartChar: at
Encoding: 64 64 33
GlifName: at
Width: 941
GlyphClass: 2
Flags: HMW
LayerCount: 2
Fore
SplineSet
350 256 m 0
 350 199.919075145 373.806676159 157 417 157 c 0
 450.406207631 157 482.117639786 191.435282908 499 246 c 1
 518 372 l 1
 501.455336389 393.660377358 480.764196204 400 460.802734375 400 c 0
 402.395091449 400 350 344.183486239 350 256 c 0
453 683 m 0
 767.98489426 683 854 467.78609911 854 350 c 0
 854 128.04803989 758.453871825 55 634 55 c 1
 566 55 532 91 522 119 c 1
 483.779013032 82.5095104711 442.020057981 64 402 64 c 0
 295.805263158 64 243 141.784753363 243 241 c 0
 243 391.31300115 334.736842105 500 453 500 c 0
 486.12483724 500 515.554335056 488.235294118 536.197265625 470 c 1
 539.658203125 495 l 1
 643 484 l 1
 597 173.791992188 l 1
 593.032258065 144.791992188 606.547945205 128 638 128 c 3
 685.767448496 128 744 162.612679636 744 326 c 1
 744 422.300595238 667.826086957 573 452 573 c 0
 317.533101045 573 184 483.918032787 184 287 c 0
 184 141.147540984 263.226027397 0 453 0 c 0
 559.909090909 0 589.977272727 8.8 649 32 c 1
 669 -41 l 5
 621.077586207 -65.7912087912 543.086206897 -88 451 -88 c 0
 224.136752137 -88 70 73.6197183099 70 287 c 0
 70 530.606741573 245.58739255 683 453 683 c 0
EndSplineSet
Validated: 33
EndChar

StartChar: A
Encoding: 65 65 34
GlifName: A_
Width: 733
GlyphClass: 2
Flags: HMW
HStem: 0 21G<21 21 21 173 531 531 531 700> 146 104<260 444 260 479 224 444> 675 20G<263 458 458 458>
AnchorPoint: "top_550" 350 790 basechar 0
LayerCount: 2
Back
SplineSet
30 0 m 5
 300 703 l 5
 376 703 l 5
 646 0 l 5
 573 0 l 5
 492 210 l 5
 175 210 l 5
 95 0 l 5
 30 0 l 5
196 263 m 5
 472 263 l 5
 334 630 l 4
 196 263 l 5
EndSplineSet
Fore
SplineSet
21 0 m 1
 263 695 l 1
 458 695 l 1
 700 0 l 1
 531 0 l 1
 479 146 l 1
 224 146 l 1
 173 0 l 1
 21 0 l 1
260 250 m 1
 444 250 l 1
 352 527 l 1
 260 250 l 1
EndSplineSet
Validated: 1
EndChar

StartChar: B
Encoding: 66 66 35
GlifName: B_
Width: 733
GlyphClass: 2
Flags: HMW
HStem: 0 104<242 357 357 366> 316 90<242 327 327 341 242 327> 591 104<242 255 255 340 340 350 242 242>
VStem: 84 158<104 104 104 281 281 316 406 554 554 591> 485 153<495 523> 513 154<185.5 222.5>
AnchorPoint: "top_550" 330 790 basechar 0
LayerCount: 2
Fore
SplineSet
84 0 m 1xf4
 84 695 l 1
 420 695 l 0
 567.771812081 695 638 612 638 509 c 0xf8
 638 421 574 382 528 364 c 1
 587 349 667 308 667 197 c 0
 667 37 545.252491694 -1.58283422576e-014 416 0 c 2
 84 0 l 1xf4
242 104 m 1
 387 104 l 2
 456.368031375 104 513 124.381911892 513 201 c 0xf4
 513 298.862891749 446.256832426 316 394 316 c 2
 242 316 l 1
 242 104 l 1
242 406 m 1
 394 406 l 2
 443.735670193 406 485 422.126845608 485 506 c 0xf8
 485 540 468.666666667 591 380 591 c 2
 242 591 l 1
 242 406 l 1
EndSplineSet
Validated: 1
EndChar

StartChar: C
Encoding: 67 67 36
GlifName: C_
Width: 703
GlyphClass: 2
Flags: MW
HStem: -22 117<341 467.5> 599 117<343 463 326 474.5>
VStem: 54 163<280.5 418 280.5 494>
AnchorPoint: "top_550" 400 790 basechar 0
LayerCount: 2
Fore
SplineSet
54 346 m 0
 54 642 228 716 424 716 c 0
 502 716 558 704 632 678 c 1
 607 529 l 1
 570 552 527 599 422 599 c 0
 264 599 217 487 217 349 c 0
 217 212 258 95 424 95 c 0
 522 95 556 117 633 166 c 1
 643 36 l 1
 554 -12 513 -22 422 -22 c 0
 223 -22 54 59 54 346 c 0
EndSplineSet
Validated: 1
EndChar

StartChar: D
Encoding: 68 68 37
GlifName: D_
Width: 794
GlyphClass: 2
Flags: MW
HStem: 0 104<245 335 335 377> 591 104<245 344 245 245>
VStem: 85 160<104 104 104 591> 567 160<321 450>
AnchorPoint: "top_550" 340 790 basechar 0
LayerCount: 2
Fore
SplineSet
85 0 m 1
 85 695 l 1
 376 695 l 2
 567 695 727 629 727 340 c 0
 727 43 539 0 377 0 c 2
 85 0 l 1
245 104 m 1
 335 104 l 2
 503 104 564 172 567 321 c 0
 567 579 451 591 344 591 c 2
 245 591 l 1
 245 104 l 1
EndSplineSet
Validated: 1
EndChar

StartChar: E
Encoding: 69 69 38
GlifName: E_
Width: 642
GlyphClass: 2
Flags: MW
HStem: 0 123<247 247 247 593> 303 112<247 548 247 548> 570 122<84 578>
VStem: 84 163<123 303 415 573>
AnchorPoint: "top_550" 330 790 basechar 0
LayerCount: 2
Fore
SplineSet
84 0 m 1
 84 692 l 1
 578 692 l 1
 578 570 l 1
 247 573 l 1
 247 415 l 1
 548 415 l 1
 548 303 l 1
 247 303 l 1
 247 123 l 1
 593 127 l 1
 593 0 l 1
 84 0 l 1
EndSplineSet
Validated: 1
EndChar

StartChar: F
Encoding: 70 70 39
GlifName: F_
Width: 611
GlyphClass: 2
Flags: MW
HStem: 0 21G<83 83 83 247> 291 111<247 519 247 519> 570 122<83 563>
VStem: 83 164<0 291 402 573>
AnchorPoint: "top_550" 330 790 basechar 0
LayerCount: 2
Fore
SplineSet
83 0 m 1
 83 692 l 1
 563 692 l 1
 563 570 l 1
 247 573 l 1
 247 402 l 1
 519 402 l 1
 519 291 l 1
 247 291 l 1
 247 0 l 1
 83 0 l 1
EndSplineSet
Validated: 1
EndChar

StartChar: G
Encoding: 71 71 40
GlifName: G_
Width: 733
GlyphClass: 2
Flags: MW
HStem: -21 116<340.5 440 340.5 465> 226 112<409 503 409 655> 600 116<337.5 464 289 483.5>
VStem: 54 163<281 411 281 461> 503 152<104 226 226 226>
AnchorPoint: "top_550" 400 790 basechar 0
LayerCount: 2
Fore
SplineSet
54 348 m 0
 54 574 158 716 420 716 c 0
 508 716 567 702 646 665 c 1
 621 515 l 1
 601 530 546 600 421 600 c 0
 254 600 217 474 217 348 c 0
 217 214 258 95 423 95 c 0
 457 95 487 104 503 104 c 1
 503 226 l 1
 409 226 l 1
 409 338 l 1
 655 338 l 1
 655 28 l 1
 588 0 511 -21 419 -21 c 0
 127 -21 54 156 54 348 c 0
EndSplineSet
Validated: 1
EndChar

StartChar: H
Encoding: 72 72 41
GlifName: H_
Width: 794
GlyphClass: 2
Flags: MW
HStem: 0 21G<84 84 84 248 534 534 534 698> 305 112<248 534 248 534> 675 20G<84 248 248 248 534 698 698 698>
VStem: 84 164<0 305 417 695> 534 164<0 305 305 305 417 695 0 695>
AnchorPoint: "top_550" 380 790 basechar 0
LayerCount: 2
Fore
SplineSet
84 0 m 1
 84 695 l 1
 248 695 l 1
 248 417 l 1
 534 417 l 1
 534 695 l 1
 698 695 l 5
 698 0 l 1
 534 0 l 1
 534 305 l 1
 248 305 l 1
 248 0 l 1
 84 0 l 1
EndSplineSet
Validated: 1
EndChar

StartChar: I
Encoding: 73 73 42
GlifName: I_
Width: 331
GlyphClass: 2
Flags: MW
HStem: 0 21G<81 81 81 244> 675 20G<81 244 244 244>
VStem: 81 163<0 695 0 695>
AnchorPoint: "top_550" 160 790 basechar 0
LayerCount: 2
Fore
SplineSet
81 0 m 1
 81 695 l 1
 244 695 l 1
 244 0 l 1
 81 0 l 1
EndSplineSet
Validated: 1
EndChar

StartChar: J
Encoding: 74 74 43
GlifName: J_
Width: 519
GlyphClass: 2
Flags: MW
HStem: -21 113<202 222 149.5 276.5> 675 20G<268 428 428 428>
VStem: 268 160<157 160 160 695>
AnchorPoint: "top_550" 340 790 basechar 0
LayerCount: 2
Fore
SplineSet
36 22 m 1
 62 170 l 1
 78 148 118 92 181 92 c 0
 263 92 268 139 268 157 c 2
 268 695 l 1
 428 695 l 1
 428 160 l 2
 428 15 323 -21 230 -21 c 0
 174 -21 110 -11 36 22 c 1
EndSplineSet
Validated: 1
EndChar

StartChar: K
Encoding: 75 75 44
GlifName: K_
Width: 764
GlyphClass: 2
Flags: MW
HStem: 0 21G<84 84 84 230 553 553 553 721> 675 20G<84 230 230 230 529 710 710 710>
VStem: 84 146<0 218 398 695>
AnchorPoint: "top_550" 370 790 basechar 0
LayerCount: 2
Fore
SplineSet
84 0 m 1
 84 695 l 1
 230 695 l 1
 230 398 l 1
 529 695 l 1
 710 695 l 1
 430 415 l 1
 524 281 628 134 721 0 c 1
 553 0 l 1
 330 317 l 1
 230 218 l 1
 230 0 l 1
 84 0 l 1
EndSplineSet
Validated: 1
EndChar

StartChar: L
Encoding: 76 76 45
GlifName: L_
Width: 581
GlyphClass: 2
Flags: MW
HStem: 0 118<246 246 246 533> 675 20G<83 246 246 246>
VStem: 83 163<118 695 118 695 118 695>
AnchorPoint: "top_550" 160 790 basechar 0
LayerCount: 2
Fore
SplineSet
83 0 m 1
 83 695 l 1
 246 695 l 1
 246 118 l 1
 533 121 l 1
 533 0 l 1
 83 0 l 1
EndSplineSet
Validated: 1
EndChar

StartChar: M
Encoding: 77 77 46
GlifName: M_
Width: 978
GlyphClass: 2
Flags: MW
HStem: 0 21G 675 20G<86 278 278 278 683 878 878 878>
VStem: 86 139<0 500 0 695> 738 140<0 501 501 501>
LayerCount: 2
Fore
SplineSet
86 0 m 1
 86 695 l 1
 278 695 l 1
 479 185 l 1
 683 695 l 1
 878 695 l 1
 878 0 l 1
 738 0 l 1
 738 501 l 1
 544 21 l 1
 416 21 l 1
 225 500 l 1
 225 0 l 1
 86 0 l 1
EndSplineSet
Validated: 1
EndChar

StartChar: N
Encoding: 78 78 47
GlifName: N_
Width: 794
GlyphClass: 2
Flags: MW
HStem: 0 21G<84 84 84 223 495 495 495 698> 675 20G<84 286 286 286 558 698 698 698>
VStem: 84 139<0 527 0 695> 558 140<167 695 0 695>
AnchorPoint: "top_550" 420 790 basechar 0
LayerCount: 2
Fore
SplineSet
84 0 m 1
 84 695 l 1
 286 695 l 1
 558 167 l 1
 558 695 l 1
 698 695 l 1
 698 0 l 1
 495 0 l 1
 223 527 l 1
 223 0 l 1
 84 0 l 1
EndSplineSet
Validated: 1
EndChar

StartChar: O
Encoding: 79 79 48
GlifName: O_
Width: 794
GlyphClass: 2
Flags: MW
HStem: -21 98<363.5 422 363.5 525.5> 621 95<314 413>
VStem: 54 163<331 424 331 487> 563 164<322 366.5>
LayerCount: 2
Fore
SplineSet
54 346 m 0
 54 526 120 716 390 716 c 0
 660 716 727 526 727 346 c 0
 727 166 660 -21 390 -21 c 0
 120 -21 54 166 54 346 c 0
217 346 m 0
 217 206 240 77 390 77 c 0
 540 77 563 206 563 346 c 0
 563 486 540 621 390 621 c 0
 240 621 217 486 217 346 c 0
EndSplineSet
Validated: 1
EndChar

StartChar: P
Encoding: 80 80 49
GlifName: P_
Width: 703
GlyphClass: 2
Flags: MW
HStem: 0 21G<84 84 84 247> 260 97<247 344 344 361.5 244 381 247 247> 591 104<244 344 244 244>
VStem: 84 160<357 357 357 591> 482 156<443 500.5 371.5 524.5>
LayerCount: 2
Fore
SplineSet
84 0 m 1
 84 695 l 1
 366 695 l 2
 514.218898846 695 638 631.248683042 638 474 c 0
 638 269 452 260 381 260 c 2
 247 260 l 1
 247 0 l 1
 84 0 l 1
244 364 m 1
 344 364 l 2
 435.878813018 364 482 380.817507281 482 473 c 0
 482 568 431 591 344 591 c 2
 244 591 l 1
 244 364 l 1
EndSplineSet
Validated: 1
EndChar

StartChar: Q
Encoding: 81 81 50
GlifName: Q_
Width: 794
GlyphClass: 2
Flags: MW
HStem: -108 21G<513 706 513 513> -21 94<390 390> 621 95
VStem: 54 161<286 352.5 286 465> 566 161<292.5 409>
AnchorPoint: "top_550" 390 790 basechar 0
LayerCount: 2
Fore
SplineSet
54 342 m 0
 54 588 159 715 393 716 c 0
 663 715 727 532 727 343 c 0
 727 192 685 92 599 33 c 1
 706 -108 l 1
 513 -108 l 1
 454 -17 l 1
 424 -17 416 -21 390 -21 c 0
 121 -21 54 154 54 342 c 0
215 339 m 0
 215 233 215 98 391 73 c 0
 392 74 392 74 393 74 c 2
 303 209 l 1
 465 209 l 1
 523 134 l 1
 557 184 566 243 566 342 c 0
 566 476 544 621 391 621 c 0
 195 621 215 366 215 339 c 0
EndSplineSet
Validated: 33
EndChar

StartChar: R
Encoding: 82 82 51
GlifName: R_
Width: 703
GlyphClass: 2
Flags: MW
HStem: 0 21G<84 84 84 244 508 508 508 675> 302 91<244 336 244 350> 591 104<244 338 338 351 244 244>
VStem: 84 160<0 302 393 591> 483 155<449.5 534>
AnchorPoint: "top_550" 310 790 basechar 0
LayerCount: 2
Fore
SplineSet
84 0 m 1
 84 695 l 1
 338 695 l 2
 578 695 638 584 638 493 c 0
 638 396 583 336 490 315 c 1
 550 213 617 101 675 0 c 1
 508 0 l 1
 336 302 l 1
 244 302 l 1
 244 0 l 1
 84 0 l 1
244 393 m 1
 350 393 l 2
 432 393 483 407 483 492 c 0
 483 576 434 591 351 591 c 2
 244 591 l 1
 244 393 l 1
EndSplineSet
Validated: 1
EndChar

StartChar: S
Encoding: 83 83 52
GlifName: S_
Width: 611
GlyphClass: 2
Flags: MW
HStem: -21 125<254 345.5 252.5 399> 596 120<296 337.5 296 360.5>
VStem: 53 142<503 536.5 503 558> 406 141<172 211>
LayerCount: 2
Fore
SplineSet
40 51 m 1
 66 202 l 1
 139 144 205 104 300 104 c 0
 391 104 406 155 406 189 c 0
 406 255.773548515 310.147997139 281.81787831 268 293 c 2
 219 309 l 2
 151.367116149 326.671548192 53 367.74666658 53 504 c 0
 53 612 104.997382217 716 296 716 c 0
 379 716 433 705 515 665 c 1
 490 515 l 1
 468 534 387 596 299 596 c 0
 210 596 195 547.351351351 195 516 c 0
 195 450.956876838 228.677806795 439.508627249 320.965820312 414.30078125 c 2
 366 402 l 2
 506.193163264 363.707186719 547 302.96713615 547 203 c 0
 547 90 498 -21 300 -21 c 0
 208 -21 122 5 40 51 c 1
EndSplineSet
Validated: 1
EndChar

StartChar: T
Encoding: 84 84 53
GlifName: T_
Width: 733
GlyphClass: 2
Flags: MW
HStem: 0 21G<279 442 279 279> 568 121<33 688 33 688>
VStem: 279 163<0 571 0 571>
AnchorPoint: "top_550" 370 790 basechar 0
LayerCount: 2
Fore
SplineSet
33 568 m 1
 33 689 l 1
 688 689 l 1
 688 568 l 1
 442 571 l 1
 442 0 l 1
 279 0 l 1
 279 571 l 1
 33 568 l 1
EndSplineSet
Validated: 1
EndChar

StartChar: U
Encoding: 85 85 54
GlifName: U_
Width: 764
GlyphClass: 2
Flags: MW
HStem: -21 103<318.5 446 318.5 496> 675 20G<84 247 247 247 515 667 667 667>
VStem: 84 163<249 695> 515 152<235 245 245 695>
AnchorPoint: "top_550" 380 790 basechar 0
LayerCount: 2
Fore
SplineSet
84 249 m 2
 84 695 l 1
 247 695 l 1
 247 233 l 2
 247 148 258 82 379 82 c 0
 513 82 515 166 515 235 c 2
 515 695 l 1
 667 695 l 1
 667 245 l 2
 667 101 612 -21 380 -21 c 0
 126 -21 84 111 84 249 c 2
EndSplineSet
Validated: 1
EndChar

StartChar: V
Encoding: 86 86 55
GlifName: V_
Width: 733
GlyphClass: 2
Flags: MW
HStem: 0 21G<263 459 263 263> 675 20G<6 176 176 176 560 716 716 716>
LayerCount: 2
Fore
SplineSet
6 695 m 1
 176 695 l 1
 369 166 l 1
 560 695 l 1
 716 695 l 1
 459 0 l 1
 263 0 l 1
 6 695 l 1
EndSplineSet
Validated: 1
EndChar

StartChar: W
Encoding: 87 87 56
GlifName: W_
Width: 1039
GlyphClass: 2
Flags: MW
HStem: 0 21G<197 371 197 197 647 827 647 647> 675 20G<9 158 158 158 428 603 603 603 878 1014 1014 1014>
LayerCount: 2
Fore
SplineSet
9 695 m 1
 158 695 l 1
 293 181 l 1
 428 695 l 1
 603 695 l 1
 741 176 l 1
 878 695 l 1
 1014 695 l 1
 827 0 l 1
 647 0 l 1
 509 518 l 1
 371 0 l 1
 197 0 l 1
 9 695 l 1
EndSplineSet
Validated: 1
EndChar

StartChar: X
Encoding: 88 88 57
GlifName: X_
Width: 733
GlyphClass: 2
Flags: MW
HStem: 0 21G<0 0 0 187 525 525 525 721> 675 20G<16 211 211 211 490 677 677 677>
LayerCount: 2
Fore
SplineSet
0 0 m 1
 268 368 l 1
 16 695 l 1
 211 695 l 1
 353 500 l 1
 490 695 l 1
 677 695 l 1
 440 367 l 1
 721 0 l 1
 525 0 l 1
 353 246 l 1
 187 0 l 1
 0 0 l 1
EndSplineSet
Validated: 1
EndChar

StartChar: Y
Encoding: 89 89 58
GlifName: Y_
Width: 733
GlyphClass: 2
Flags: MW
HStem: 0 21G<280 441 280 280> 675 20G<-11 184 184 184 553 731 731 731>
VStem: 280 161<0 277 0 277>
LayerCount: 2
Fore
SplineSet
-11 695 m 1
 184 695 l 1
 369 422 l 1
 553 695 l 1
 731 695 l 1
 441 277 l 1
 441 0 l 1
 280 0 l 1
 280 277 l 1
 -11 695 l 1
EndSplineSet
Validated: 1
EndChar

StartChar: Z
Encoding: 90 90 59
GlifName: Z_
Width: 672
GlyphClass: 2
Flags: MW
HStem: 0 118<261 261 261 613> 582 113<400 400>
AnchorPoint: "top_550" 340 790 basechar 0
LayerCount: 2
Fore
SplineSet
53 0 m 1
 53 78 l 1
 400 582 l 1
 68 578 l 1
 68 695 l 1
 607 695 l 1
 607 620 l 1
 261 118 l 1
 613 121 l 1
 613 0 l 1
 53 0 l 1
EndSplineSet
Validated: 1
EndChar

StartChar: bracketleft
Encoding: 91 91 60
GlifName: bracketleft
Width: 343
GlyphClass: 2
Flags: MW
HStem: -216 90<224 321 224 321> 659 89<224 321 224 224>
VStem: 75 149<-126 659 -126 748 -126 748> 75 246<-216 -126 659 748>
LayerCount: 2
Fore
SplineSet
75 -216 m 1xd0
 75 748 l 1
 321 748 l 1
 321 659 l 1xd0
 224 659 l 1
 224 -126 l 1xe0
 321 -126 l 1
 321 -216 l 1
 75 -216 l 1xd0
EndSplineSet
Validated: 1
EndChar

StartChar: backslash
Encoding: 92 92 61
GlifName: backslash
Width: 550
GlyphClass: 2
Flags: MW
HStem: -216 21G<427 455> 728 20G<86.5 110.5>
LayerCount: 2
Fore
SplineSet
30.296875 749 m 1
 128 749 l 1
 508 -216 l 1
 411.990234375 -216 l 1
 30.296875 749 l 1
EndSplineSet
EndChar

StartChar: bracketright
Encoding: 93 93 62
GlifName: bracketright
Width: 343
GlyphClass: 2
Flags: MW
HStem: -216 90<16 113 16 261 16 113> 659 89<16 113 16 261>
VStem: 16 245<-216 -126 -126 -126 659 748 -216 748> 113 148<-126 659 659 659>
LayerCount: 2
Fore
SplineSet
16 -126 m 1xe0
 113 -126 l 1
 113 659 l 1xd0
 16 659 l 1
 16 748 l 1
 261 748 l 1
 261 -216 l 1
 16 -216 l 1
 16 -126 l 1xe0
EndSplineSet
Validated: 1
EndChar

StartChar: asciicircum
Encoding: 94 94 63
GlifName: asciicircum
Width: 672
GlyphClass: 2
Flags: MW
HStem: 459 21G<150 150 150 244 418 418 418 512> 602 20G<273 389 389 389>
LayerCount: 2
Fore
SplineSet
150 459 m 1
 273 622 l 1
 389 622 l 1
 512 459 l 1
 418 459 l 1
 330 539 l 1
 302 513 272 484 244 459 c 1
 150 459 l 1
EndSplineSet
Validated: 1
EndChar

StartChar: underscore
Encoding: 95 95 64
GlifName: underscore
Width: 856
GlyphClass: 2
Flags: HMW
HStem: -329 101<143 144 144 694 694 696>
LayerCount: 2
Fore
SplineSet
86 -228 m 1
 756 -228 l 1
 756 -329 l 1
 86 -329 l 1
 86 -228 l 1
EndSplineSet
Validated: 1
EndChar

StartChar: grave
Encoding: 96 96 65
GlifName: grave
Width: 410
GlyphClass: 2
Flags: MW
HStem: 527 21G<260 353 260 260> 661 20G<80 244 244 244>
LayerCount: 2
Fore
SplineSet
68 720 m 5
 232 720 l 5
 341 550 l 5
 248 550 l 5
 68 720 l 5
EndSplineSet
Validated: 1
EndChar

StartChar: a
Encoding: 97 97 66
GlifName: a
Width: 520
GlyphClass: 2
Flags: HW
HStem: -11 90<123.5 259.29> 0 21G<312 460> 219 58<215.67 310> 405 83<165.498 292.083>
VStem: 24 146<91.3547 182.037> 310 150<0 50 100.942 219 277 389.865>
LayerCount: 2
Fore
SplineSet
24 123 m 0xbc
 24 269.513671875 260 277 310 277 c 1
 310 334 l 2
 310 367 295.966101695 405 241 405 c 0
 173.139520555 405 115.276518323 350.03515625 83 319 c 1
 74 443 l 1
 137 475 184 488 254 488 c 0
 412 488 460 431.724609375 460 344 c 2
 460 0 l 1
 312 0 l 1x7c
 312 50 l 1
 275 10.349609375 221 -11 167 -11 c 0
 80 -11 24 47.625 24 123 c 0xbc
170 135 m 0
 170 105 192 79 227 79 c 0xbc
 267.704101562 79 310 101.591796875 310 157 c 2
 310 219 l 1
 252 213 170 200 170 135 c 0
EndSplineSet
EndChar

StartChar: b
Encoding: 98 98 67
GlifName: b
Width: 561
GlyphClass: 2
Flags: MW
HStem: -11 90<292.5 314.5 250.5 378> 0 21G<54 54 54 204> 394 89<315.5 322> 666 20G<54 202 202 202>
VStem: 54 150<0 30 0 106 106 171 171 334 334 367> 367 150<190 276.5>
LayerCount: 2
Back
SplineSet
80 0 m 1x7c
 80 695 l 1
 143 695 l 1
 143 405 l 1
 203 476 268 480 293 480 c 0
 393 480 470 372 470 238 c 0
 470 97 380 -8 274 -8 c 0xbc
 196 -8 156 50 145 66 c 1
 145 0 l 1
 80 0 l 1x7c
145 131 m 2
 145 90 187 42 243 42 c 0
 307 42 405 81 405 236 c 0
 405 402 306 430 255 430 c 0
 188 430 150 378 145 362 c 1
 145 131 l 2
EndSplineSet
Fore
SplineSet
54 0 m 1x7c
 54 695 l 1
 202 695 l 1
 202 427 l 1
 233 458.652173913 273.472222222 483 326 483 c 0
 479.023391813 483 517 383.176706827 517 244 c 0
 517 61.8571428571 434.030150754 -11 308 -11 c 4xbc
 271.473684211 -11 221.368421053 11.3170731707 204 50 c 5
 204 0 l 1
 54 0 l 1x7c
204 156 m 1xbc
 204 108.719298246 232 79 269 79 c 0
 360 79 367 152.509803922 367 242 c 0
 367 325.50617284 365 394 279 394 c 0
 247 394 223 379 204 347 c 1
 204 156 l 1xbc
EndSplineSet
Validated: 1
EndChar

StartChar: c
Encoding: 99 99 68
GlifName: c
Width: 489
GlyphClass: 2
Flags: W
HStem: -11 94<215.554 365.41> 394 94<217.166 371.738>
VStem: 30 150<119.866 350.453>
AnchorPoint: "top_550" 250 550 basechar 0
LayerCount: 2
Back
SplineSet
46 237 m 4
 46 366 135 485 267 485 c 4
 340 485 372 474 431 442 c 5
 421 387 l 5
 379 419 343 435 267 435 c 4
 173 435 111 358 111 238 c 4
 111 122 174 42 265 42 c 4
 355 42 413 88 432 111 c 5
 432 55 l 5
 387 19 341 -8 264 -8 c 4
 141 -8 46 101 46 237 c 4
EndSplineSet
Fore
SplineSet
30 237 m 0
 30 408 143 488 273 488 c 0
 349 488 384 477 448 443 c 1
 430 330 l 1
 398 359 357 394 274 394 c 0
 185.053763441 394 180 298.138334625 180 236 c 4
 180 166.676300578 185.054945055 83 272 83 c 0
 357 83 416 133 444 156 c 1
 453 37 l 1
 393 5 341 -11 269 -11 c 0
 78 -11 30 107 30 237 c 0
EndSplineSet
EndChar

StartChar: d
Encoding: 100 100 69
GlifName: d
Width: 561
GlyphClass: 2
Flags: W
HStem: -11 89<207.478 308.379> 0 21G<346 496> 394 89<158.954 313.449> 675 20G<346 496>
VStem: 30 150<108.563 354.193> 346 150<0 37 96.5625 384.391 441 695>
AnchorPoint: "top_550" 410 790 basechar 0
LayerCount: 2
Back
SplineSet
111 236 m 0xbc
 111 74 206 42 260 42 c 0
 330 42 371 105 371 134 c 2
 371 352 l 2
 371 387 327 430 272 430 c 0
 208 430 111 393 111 236 c 0xbc
46 236 m 0
 46 369 129 480 235 480 c 0
 295 480 337 451 371 410 c 1
 371 695 l 1
 436 695 l 1
 436 0 l 1
 371 0 l 1x7c
 371 73 l 1
 337 23 285 -8 228 -8 c 0
 135 -8 46 89 46 236 c 0
EndSplineSet
Fore
SplineSet
180 249 m 0xbc
 180 119 197.197674419 78 267 78 c 0
 340.802631579 78 346 133 346 155 c 2
 346 371 l 1
 324.015625 387 306.21875 394 279 394 c 0
 185.051020408 394 180 319 180 249 c 0xbc
30 238 m 0
 30 369.60696945 105.636549213 483 216 483 c 0
 272 483 311 467 346 441 c 1
 346 695 l 1
 496 695 l 1
 496 0 l 1
 346 0 l 1x7c
 346 37 l 1
 311.196850394 7 273.322834646 -11 216 -11 c 0
 161 -11 30 10 30 238 c 0
EndSplineSet
EndChar

StartChar: e
Encoding: 101 101 70
GlifName: e
Width: 511
GlyphClass: 2
Flags: HW
HStem: -11 90<216.763 375.727> 221 90<172 345> 399 89<204.918 319.387>
VStem: 24 142<135.36 221>
LayerCount: 2
Back
SplineSet
42 240 m 4
 42 366 127 484 248 484 c 4
 319 484 433 448 433 250 c 5
 107 250 l 5
 107 243 l 6
 107 125 179 42 264 42 c 4
 339 42 389 77 426 111 c 5
 426 56 l 5
 384 21 334 -8 264 -8 c 4
 142 -8 42 99 42 240 c 4
112 290 m 5
 374 290 l 5
 374 372 324 434 248 434 c 4
 181 434 127 371 112 290 c 5
EndSplineSet
Fore
SplineSet
24 240 m 0
 24 347 72 488 263 488 c 0
 452 488 474 343.733870968 474 221 c 1
 174 221 l 1
 174 148.782019429 211.369832619 79 282 79 c 0
 360 79 424 124 461 153 c 1
 469 40 l 1
 434 20 371 -11 276 -11 c 0
 147 -11 24 49 24 240 c 0
180 311 m 1
 345 311 l 1
 335 389 296 399 264 399 c 0
 201 399 185.47826087 340 180 311 c 1
EndSplineSet
EndChar

StartChar: f
Encoding: 102 102 71
GlifName: f
Width: 336
GlyphClass: 2
Flags: W
HStem: 0 21G<77 227> 384 88<23 77 227 319> 606 89<231.659 342.447>
VStem: 77 150<0 384 472 597.787>
AnchorPoint: "top_550" 230 790 basechar 0
LayerCount: 2
Back
SplineSet
28 422 m 5
 28 472 l 5
 113 472 l 5
 113 535 l 6
 113 568 115 613 167 657 c 4
 195 680 232 695 281 695 c 4
 293 695 313 694 343 687 c 5
 343 631 l 5
 318 641 292 645 278 645 c 4
 203 645 178 619 178 536 c 6
 178 472 l 5
 300 472 l 5
 300 422 l 5
 178 422 l 5
 178 0 l 5
 113 0 l 5
 113 422 l 5
 28 422 l 5
EndSplineSet
Fore
SplineSet
23 384 m 1
 23 472 l 1
 77 472 l 1
 77 527 l 2
 77 604 108 648 154 671 c 0
 189.833333333 689 233.857142857 695 283 695 c 0
 315.96969697 695 338.272727273 692 379 683 c 1
 379 557 l 1
 350.03757225 584.152276015 308.212121212 606 283 606 c 0
 229 606 224 574 224 553 c 2
 224 472 l 1
 319 472 l 1
 319 384 l 1
 227 384 l 1
 227 0 l 1
 77 0 l 1
 77 384 l 1
 23 384 l 1
EndSplineSet
EndChar

StartChar: g
Encoding: 103 103 72
GlifName: g
Width: 561
GlyphClass: 2
Flags: HW
HStem: -182 89<156.682 325.757> -36 20G<69 96.5> -10 89<215.648 300.457> 394 89<223.093 311.342> 452 20G<346 496>
VStem: 30 151<119.734 347.698> 346 150<-72.2551 55 117.289 370.85 434 472>
LayerCount: 2
Back
SplineSet
47 237 m 4
 47 365 115 480 234 480 c 4
 299 480 353 434 372 408 c 5
 372 480 l 5
 437 480 l 5
 437 9 l 6
 437 -112 354 -184 257 -184 c 4
 181 -184 132 -168 72 -139 c 5
 72 -85 l 5
 131 -114 179 -134 255 -134 c 4
 302 -134 372 -103 372 12 c 4
 372 65 l 5
 341 19 310 -8 232 -8 c 4
 140 -8 47 102 47 237 c 4
112 237 m 4
 112 127 176 42 260 42 c 4
 347 42 372 93 372 140 c 6
 372 359 l 5
 357 396 306 430 269 430 c 4
 186 430 112 376 112 237 c 4
EndSplineSet
Fore
SplineSet
30 236 m 0xee
 30 334 62 483 234 483 c 0xf6
 277 483 318 463 346 434 c 1
 346 472 l 1
 496 472 l 1
 496 33 l 2
 496 -92 428.404444444 -182 269 -182 c 0
 187 -182 134 -165 69 -130 c 1
 69 -16 l 1
 124 -58 175 -93 264 -93 c 0
 344.962025316 -93 346 -35.9075630252 346 -7 c 2
 346 55 l 1
 321.389830508 21 283.449152542 -10 225 -10 c 0
 128 -10 30 39.661971831 30 236 c 0xee
180 238 m 0
 180 168.595238095 191.129411765 79 266 79 c 0
 334 79 346 178 346 216 c 2
 346 310 l 2
 346 323 335 394 279 394 c 0
 219.397959184 394 180 351 180 238 c 0
EndSplineSet
EndChar

StartChar: h
Encoding: 104 104 73
GlifName: h
Width: 561
GlyphClass: 2
Flags: HW
HStem: 0 21G<50 200 345 495> 394 89<257.718 415.53> 675 20G<50 200>
VStem: 50 150<0 353.5 409 695> 345 150<0 383.829>
AnchorPoint: "top_550" 330 550 basechar 0
LayerCount: 2
Fore
SplineSet
50 0 m 1
 50 695 l 1
 200 695 l 1
 200 409 l 1
 225 445 270 483 345 483 c 0
 480.059602649 483 495 402 495 311 c 9
 495 0 l 1
 345 0 l 1
 345 323 l 2
 345 363 338 394 290 394 c 0
 228.965517241 394 204.137931034 332 200 288 c 1
 200 0 l 1
 50 0 l 1
EndSplineSet
Validated: 1
EndChar

StartChar: i
Encoding: 105 105 74
GlifName: i
Width: 270
GlyphClass: 2
Flags: W
HStem: 0 21G<60 210> 452 20G<60 210> 550 136<60 210>
VStem: 60 150<0 472 550 686>
LayerCount: 2
Fore
SplineSet
60 0 m 1
 60 472 l 1
 210 472 l 1
 210 0 l 1
 60 0 l 1
60 550 m 1
 60 686 l 1
 210 686 l 1
 210 550 l 1
 60 550 l 1
EndSplineSet
EndChar

StartChar: j
Encoding: 106 106 75
GlifName: j
Width: 290
GlyphClass: 2
Flags: W
HStem: -171 101<-44.265 149.877> 452 20G<80 230> 550 136<80 230>
VStem: 80 150<-67.2188 472 550 686>
LayerCount: 2
Fore
SplineSet
-77 -137 m 1
 -52 -50 l 1
 -20 -64 0 -70 27 -70 c 0
 72 -70 80 -59 80 -43 c 2
 80 472 l 1
 230 472 l 1
 230 -23 l 2
 227.973509934 -73 220.079470199 -171 77 -171 c 0
 20 -171 -31 -156 -77 -137 c 1
80 550 m 1
 80 686 l 1
 230 686 l 1
 230 550 l 1
 80 550 l 1
EndSplineSet
EndChar

StartChar: k
Encoding: 107 107 76
GlifName: k
Width: 531
GlyphClass: 2
Flags: HMW
HStem: 0 21G<62 62 62 191 362 362 362 514> 452 20G<324 495 495 495> 666 20G<62 194 194 194>
VStem: 62 132<338 686 338 686 338 686>
AnchorPoint: "top_550" 330 550 basechar 0
LayerCount: 2
Fore
SplineSet
62 0 m 5
 62 695 l 5
 194 695 l 5
 194 338 l 5
 324 472 l 5
 495 472 l 5
 321 290 l 5
 514 0 l 5
 362 0 l 5
 230 195 l 5
 191 154 l 5
 191 0 l 5
 62 0 l 5
EndSplineSet
EndChar

StartChar: l
Encoding: 108 108 77
GlifName: l
Width: 250
GlyphClass: 2
Flags: HW
HStem: 0 21G<51 201> 675 20G<51 201>
VStem: 51 150<0 695>
AnchorPoint: "top_550" 120 790 basechar 0
LayerCount: 2
Fore
SplineSet
50 0 m 1
 50 695 l 1
 200 695 l 1
 200 0 l 1
 50 0 l 1
EndSplineSet
EndChar

StartChar: m
Encoding: 109 109 78
GlifName: m
Width: 867
GlyphClass: 2
Flags: MW
HStem: 0 21G<56 56 56 206 348 348 348 499 642 642 642 792> 376 102 464 20G<600.5 713.5>
VStem: 56 145<403 478 403 478 403 478> 348 151<0 288 0 323 0 343.5> 642 151<307.5 323 323 343.5>
LayerCount: 2
Fore
SplineSet
56 0 m 1xdc
 56 478 l 1
 201 478 l 1xdc
 201 403 l 1
 227 440 273 483 348 483 c 0
 456.232394366 483 479.070422535 435 489 399 c 1
 513 437 559 484 640 484 c 0xbc
 784.046052632 484 791 401 791 311 c 0
 791 0 l 1
 641 0 l 1
 641 323 l 2
 641 364 632 394 585 394 c 0
 526.813852066 394 502.626432532 332.72218114 498 288 c 1
 498 0 l 1
 348 0 l 1
 348 323 l 2
 348 364 341 394 293 394 c 0
 234.813852066 394 210.626432532 332.72218114 206 288 c 1
 206 0 l 1
 56 0 l 1xdc
EndSplineSet
Validated: 1
EndChar

StartChar: n
Encoding: 110 110 79
GlifName: n
Width: 561
GlyphClass: 2
Flags: W
HStem: 0 21G<53 203 345 495> 394 89<260.07 411.134>
VStem: 53 150<0 355.515 404 478> 345 150<0 384.2>
AnchorPoint: "top_550" 285 550 basechar 0
LayerCount: 2
Fore
SplineSet
53 0 m 1
 53 478 l 1
 198 478 l 1
 198 404 l 1
 223 441 270 483 345 483 c 0
 486.059602649 483 495 402 495 312 c 0
 495 0 l 1
 345 0 l 1
 345 323 l 2
 345 363 338 394 290 394 c 0
 231 394 207 332 203 288 c 1
 203 0 l 1
 53 0 l 1
EndSplineSet
Validated: 1
EndChar

StartChar: o
Encoding: 111 111 80
GlifName: o
Width: 548
GlyphClass: 2
Flags: HW
HStem: -11 94<215.163 332.912> 399 89<210.863 332.428>
VStem: 30 150<118.574 362.364> 368 150<118.721 361.111>
LayerCount: 2
Fore
SplineSet
30 239 m 0
 30 436 150.494140625 488 274 488 c 0
 398 488 518 436 518 239 c 0
 518 29 398 -11 274 -11 c 0
 150.494140625 -11 30 29 30 239 c 0
180 241 m 0
 180 171 181.989257812 83 274 83 c 0
 365.978515625 83 368 172 368 241 c 0
 368 315 359 399 274 399 c 0
 180 399 180 315 180 241 c 0
EndSplineSet
EndChar

StartChar: p
Encoding: 112 112 81
GlifName: p
Width: 561
GlyphClass: 2
Flags: MW
HStem: -160 21G<54 54 54 204> -11 90<295 311 250 378.5> 389 83<54 314.5> 463 20G<323 404>
VStem: 54 150<-160 30 106 308 308 365> 367 150<200.5 236>
LayerCount: 2
Fore
SplineSet
54 -160 m 1xdc
 54 472 l 1
 202 472 l 5xec
 202 434 l 1
 240 460 291 483 355 483 c 0
 453 483 517 415 517 238 c 0
 517 59 438 -11 319 -11 c 0
 271 -11 233 6 204 30 c 1
 204 -160 l 1
 54 -160 l 1xdc
204 106 m 1
 212 98 232 79 268 79 c 0
 354 79 367 172 367 229 c 0
 367 288.284921807 365.600479955 389 277 389 c 0
 242 389 216 373 204 365 c 1
 204 106 l 1
EndSplineSet
Validated: 1
EndChar

StartChar: q
Encoding: 113 113 82
GlifName: q
Width: 561
GlyphClass: 2
Flags: W
HStem: -160 21G<346 496> -11 90<139.097 305.109> 389 94<222.782 308.287> 452 20G<346 496>
VStem: 30 150<117.826 341.537> 346 150<-160 36 97.4982 371.77 432 472>
LayerCount: 2
Fore
SplineSet
30 235 m 0xdc
 30 413 110 483 230 483 c 0xec
 285 483 325 454 346 432 c 1
 346 472 l 1
 496 472 l 1
 496 -160 l 1
 346 -160 l 1
 346 36 l 1
 312.208 9 265.104 -11 218 -11 c 0
 63 -11 30 136 30 235 c 0xdc
180 235 m 0
 180 156 194.159090909 79 269 79 c 0
 322 79 346 108 346 160 c 2
 346 330 l 2
 346 360 315 389 278 389 c 0
 232.536082474 389 180 357 180 235 c 0
EndSplineSet
EndChar

StartChar: r
Encoding: 114 114 83
GlifName: r
Width: 372
GlyphClass: 2
Flags: W
HStem: 0 21G<50 200> 366 117<268.427 355> 452 20G<50 194>
VStem: 50 150<0 307.022 390 472>
AnchorPoint: "top_550" 220 550 basechar 0
LayerCount: 2
Fore
SplineSet
50 0 m 1xd0
 50 472 l 1
 194 472 l 1xb0
 194 390 l 1
 220 433 271 481 355 483 c 1
 355 366 l 1
 246 364 204 298 200 258 c 1
 200 0 l 1
 50 0 l 1xd0
EndSplineSet
EndChar

StartChar: s
Encoding: 115 115 84
GlifName: s
Width: 422
GlyphClass: 2
Flags: HW
HStem: -11 95<117.378 271.816> 400 88<150.869 295.832>
VStem: 29 115<306.848 391.477> 279 115<93.6435 158.851>
LayerCount: 2
Fore
SplineSet
23 38 m 1
 44.68359375 168.102539062 l 1
 51.201643319 152.62890625 92.7210012487 84 177 84 c 0
 233 84 244 108 244 129 c 0
 244 155.19047619 214.577009496 172.983787475 186 179 c 2
 148 188 l 2
 109.686176317 197.074326662 29 226.644051977 29 338 c 0
 29 444 118 488 210 488 c 0
 272.366863905 488 327 468 380 442 c 1
 359 338 l 1
 314.391304348 380 284.652173913 400 233 400 c 0
 186 400 179 369.736842105 179 350 c 0
 179 305.238906181 211.79050225 294.328067032 242 286.193359375 c 2
 265 280 l 2
 322.877190435 264.415033045 394 227.263835878 394 150 c 0
 394 21.6075949367 313 -11 213 -11 c 0
 142 -11 84 6 23 38 c 1
EndSplineSet
EndChar

StartChar: t
Encoding: 116 116 85
GlifName: t
Width: 404
GlyphClass: 2
Flags: W
HStem: -11 94<146.786 320.258> 384 88<14 78 228 354>
VStem: 78 150<88.9275 384 472 602>
AnchorPoint: "top_550" 150 720 basechar 0
LayerCount: 2
Fore
SplineSet
14 384 m 1
 14 472 l 1
 78 472 l 1
 78 602 l 1
 228 602 l 1
 228 472 l 1
 354 472 l 1
 354 384 l 1
 228 384 l 1
 228 161 l 2
 228 112 235.175 83 269 83 c 0
 308.224719101 83 331.550561798 101 352 118 c 1
 373 36 l 1
 324.157894737 9 273.631578947 -11 213 -11 c 0
 80.5714285714 -11 78 92 78 146 c 2
 78 384 l 1
 14 384 l 1
EndSplineSet
EndChar

StartChar: u
Encoding: 117 117 86
GlifName: u
Width: 561
GlyphClass: 2
Flags: HMW
HStem: -11 21G<135.5 239.5> 0 67 452 20G<53 203 203 203 345 495 495 495>
VStem: 53 150<134 472 125 472> 345 150<177 472 0 472>
AnchorPoint: "top_550" 260 550 basechar 0
LayerCount: 2
Fore
SplineSet
53 134 m 2xb8
 53 472 l 1
 203 472 l 1
 203 125 l 2
 204 82 212 67 254 67 c 0
 294 67 345 95 345 177 c 2
 345 472 l 1
 495 472 l 1
 495 0 l 1
 348 0 l 1x78
 348 55 l 1
 323 24 276 -11 203 -11 c 0
 68 -11 53 49 53 134 c 2xb8
EndSplineSet
EndChar

StartChar: v
Encoding: 118 118 87
GlifName: v
Width: 500
GlyphClass: 2
Flags: MW
HStem: 0 21G<155 334 155 155> 452 20G<6 146 146 146 346 483 483 483>
AnchorPoint: "top_550" 240 550 basechar 0
LayerCount: 2
Fore
SplineSet
6 472 m 1
 146 472 l 1
 246 156 l 1
 346 472 l 1
 483 472 l 1
 334 0 l 1
 155 0 l 1
 6 472 l 1
EndSplineSet
Validated: 1
EndChar

StartChar: w
Encoding: 119 119 88
GlifName: w
Width: 744
GlyphClass: 2
Flags: HMW
HStem: 0 21G<137 277 137 137 413 591 413 413> 452 20G<9 147 147 147 308 414 414 414 584 720 720 720>
LayerCount: 2
Fore
SplineSet
9 472 m 1
 147 472 l 1
 228 176 l 1
 308 472 l 1
 414 472 l 1
 500 160 l 1
 584 472 l 1
 720 472 l 1
 591 0 l 1
 445 0 l 1
 361 278 l 1
 277 0 l 1
 137 0 l 1
 9 472 l 1
EndSplineSet
EndChar

StartChar: x
Encoding: 120 120 89
GlifName: x
Width: 500
GlyphClass: 2
Flags: HMW
HStem: 0 21G<-15 -15 -15 140 348 348 348 505> 452 20G<-9 147 147 147 331 487 487 487>
LayerCount: 2
Fore
SplineSet
-15 0 m 1
 177 245 l 1
 -9 472 l 1
 147 472 l 1
 242 349 l 1
 331 472 l 1
 487 472 l 1
 306 244 l 1
 505 0 l 1
 348 0 l 1
 242 156 l 1
 140 0 l 1
 -15 0 l 1
EndSplineSet
EndChar

StartChar: y
Encoding: 121 121 90
GlifName: y
Width: 500
GlyphClass: 2
Flags: MW
HStem: -171 120 452 20G<5 149 149 149 347 482 482 482>
LayerCount: 2
Fore
SplineSet
5 472 m 1
 149 472 l 1
 261 194 l 1
 347 472 l 1
 482 472 l 1
 314 -31 l 2
 277.735493345 -139.577659805 189 -171 124 -171 c 0
 92 -171 52 -166 34 -163 c 1
 34 -54 l 1
 60.8549348709 -63.1843611035 82.0183879494 -70 126 -70 c 0
 182 -70 197.213483146 -36.7415730337 205 -3 c 2
 208 10 l 1
 5 472 l 1
EndSplineSet
Validated: 1
EndChar

StartChar: z
Encoding: 122 122 91
GlifName: z
Width: 476
GlyphClass: 2
Flags: HMW
HStem: 0 90<201 239 201 438> 388 84<223.5 261>
AnchorPoint: "top_550" 240 550 basechar 0
LayerCount: 2
Fore
SplineSet
24 0 m 1
 24 59 l 1
 261 388 l 1
 38 388 l 1
 38 472 l 1
 436 472 l 1
 436 416 l 1
 201 90 l 1
 438 90 l 1
 438 0 l 1
 24 0 l 1
EndSplineSet
Validated: 1
EndChar

StartChar: braceleft
Encoding: 123 123 92
GlifName: braceleft
Width: 550
GlyphClass: 2
Flags: MW
HStem: -216 90<387 495 437.5 495 437.5 495> 221 45 659 89<430 466 466 495>
VStem: 195 152<-104 -86 -86 108 424 619>
LayerCount: 2
Fore
SplineSet
48 221 m 5
 48 311 l 5
 147 312 195 366 195 424 c 6
 195 621 l 6
 195 688 246 748 430 748 c 6
 495 748 l 5
 495 659 l 5
 466 659 l 6
 361 659 347 645 347 619 c 6
 347 424 l 6
 347 338 288 290 210 266 c 5
 300 243 347 188 347 108 c 6
 347 -86 l 6
 347 -122 380 -126 495 -126 c 5
 495 -216 l 5
 430 -216 l 6
 344 -216 209 -207 195 -108 c 5
 195 118 l 5
 189 187 128 221 48 221 c 5
EndSplineSet
Validated: 1
EndChar

StartChar: bar
Encoding: 124 124 93
GlifName: bar
Width: 306
GlyphClass: 2
Flags: MW
HStem: -216 21G<140.5 162> 728 20G<143 159.5>
VStem: 99 100<-158 686 -170 691 -170 716>
LayerCount: 2
Fore
SplineSet
99 -158 m 2
 99 691 l 2
 99 741 136 748 150 748 c 0
 169 748 199 740 199 686 c 2
 199 -170 l 2
 197 -196 174 -216 150 -216 c 0
 131 -216 99 -205 99 -158 c 2
EndSplineSet
Validated: 1
EndChar

StartChar: braceright
Encoding: 125 125 94
GlifName: braceright
Width: 550
GlyphClass: 2
Flags: HMW
HStem: -216 90<48 77 77 113 48 77> 221 90<411.5 495> 266 45 659 89<48 114 114 131.5>
VStem: 195 152<-86 109 109 117 424 580 580 611>
LayerCount: 2
Fore
SplineSet
495 221 m 5xd8
 415 221 354 187 348 118 c 5
 348 -108 l 5
 334 -207 199 -216 113 -216 c 6
 48 -216 l 5
 48 -126 l 5
 163 -126 196 -122 196 -86 c 6
 196 108 l 6
 196 188 243 243 333 266 c 5xb8
 255 290 196 338 196 424 c 6
 196 619 l 6
 196 645 182 659 77 659 c 6
 48 659 l 5
 48 748 l 5
 113 748 l 6
 297 748 348 688 348 621 c 6
 348 424 l 6
 348 366 396 312 495 311 c 5
 495 221 l 5xd8
EndSplineSet
Validated: 1
EndChar

StartChar: asciitilde
Encoding: 126 126 95
GlifName: asciitilde
Width: 672
GlyphClass: 2
Flags: MW
HStem: 550 90<403 437.5 403 467> 604 91<223.5 258.5> 675 20G<193 280.5 489 577 577 577>
LayerCount: 2
Fore
SplineSet
83 560 m 1xa0
 86 643 154 695 232 695 c 0x40
 329 695 375 640 431 640 c 0xa0
 444 640 483 646 489 695 c 1
 577 695 l 1x40
 573 603 506 550 428 550 c 0xa0
 333 550 287 604 230 604 c 0x40
 217 604 178 599 173 550 c 1
 93 550 l 1
 83 560 l 1xa0
EndSplineSet
Validated: 1
EndChar

StartChar: exclamdown
Encoding: 257 161 97
GlifName: exclamdown
Width: 367
GlyphClass: 2
Flags: HMW
HStem: -162 21G<107 107 107 253> 386 147<107 253 107 253>
VStem: 107 146<-162 -162 386 533>
LayerCount: 2
Fore
SplineSet
107 -162 m 1
 119 322 l 1
 241 322 l 1
 253 -162 l 1
 107 -162 l 1
107 386 m 1
 107 533 l 1
 253 533 l 1
 253 386 l 1
 107 386 l 1
EndSplineSet
Validated: 1
EndChar

StartChar: cent
Encoding: 258 162 98
GlifName: cent
Width: 550
GlyphClass: 2
Flags: MW
HStem: -81 21G<256 345 256 256> -9 99<256 256 256 345> 398 97<345 345> 545 20G<256 345 345 345>
VStem: 29 153<222.5 224 222.5 332.5> 256 89<-81 -9 -81 -9 90 394 394 394 495 565>
LayerCount: 2
Fore
SplineSet
29 239 m 0
 29 426 160 482 256 494 c 1
 256 565 l 1
 345 565 l 1
 345 495 l 1
 409 491 439 481 513 449 c 1
 494 335 l 1
 427 379 404 394 345 398 c 1
 345 86 l 1
 399 95 442 112 508 156 c 1
 517 38 l 1
 435 1 386 -5 345 -9 c 1
 345 -81 l 1
 256 -81 l 1
 256 -9 l 1
 151 4 29 48 29 239 c 0
182 224 m 1
 183 168 194 110 256 90 c 1
 256 394 l 1
 158 361 182 221 182 224 c 1
EndSplineSet
Validated: 33
EndChar

StartChar: sterling
Encoding: 259 163 99
GlifName: sterling
Width: 703
GlyphClass: 2
Flags: MW
HStem: -11 70<191.5 198.5> 92 63<207 207.5> 302 91<172 225 172 225 377 460> 650 91<411.5 460>
VStem: 226 151 510 127
LayerCount: 2
Fore
SplineSet
4 92 m 0
 4 162 49.0918743914 206 116 206 c 0
 146.000006022 206 184.077993191 199.845583969 221 187 c 1
 223.806121759 201.076047939 225 212 225 234 c 2
 225 302 l 1
 172 302 l 1
 172 393 l 1
 225 393 l 1
 225 507 l 2
 225 640.646156163 270.777234872 741 445 741 c 0
 579 741 637 648.352941176 637 536 c 1
 510 536 l 1
 510 614 475 650 445 650 c 0
 378 650 377 530 377 527 c 2
 377 393 l 1
 460 393 l 1
 460 302 l 1
 377 302 l 1
 377 205 l 2
 377 170.094339623 372.5 144.962264151 368 131 c 1
 411.202726283 109.464153782 461 99 494 99 c 0
 546.783783784 99 557 125 557 155 c 1
 667 155 l 1
 662.944753456 52.7739933723 616.988707626 -11 463 -11 c 0
 418.95505618 -11 336.641025641 6.14285714286 303 29 c 1
 273.661417323 9 233.408450704 -11 141 -11 c 0
 58.0096153846 -11 4 30.4861111111 4 92 c 0
114 91 m 0
 114 79.6666666667 127 74 146 74 c 0
 158 74 174.8 77.75 188 89 c 1
 165.880597015 97.0909090909 146 105 131 105 c 0
 120.90625 105 114 97.6666666667 114 91 c 0
EndSplineSet
Validated: 1
EndChar

StartChar: currency
Encoding: 260 164 100
GlifName: currency
Width: 808
GlyphClass: 2
Flags: MW
HStem: -63 152 -11 100<342.5 424.5> 520 101<371 455 371 482.5> 520 153
VStem: 29 154 82 101<250 359.5> 613 100<248 360.5 248 367> 613 154
LayerCount: 2
Fore
SplineSet
29 -14 m 0xaa
 29 8 40 17 57 35 c 2
 88 66 l 2
 104 83 115 94 131 110 c 1
 114 138 82 195 82 305 c 0xa6
 82 414 114 471 131 500 c 1
 38 580 29 606 29 623 c 0
 29 653 54 673 80 673 c 0x9a
 110 673 126 648 203 571 c 1
 267 614 342 621 400 621 c 0xaa
 510 621 568 586 593 570 c 1
 629 606 677 673 716 673 c 0
 741 673 767 653 767 623 c 0x99
 767 588 738 580 664 500 c 1
 681 473 713 417 713 304 c 0xaa
 713 192 681 136 664 109 c 1
 701 72 l 2
 753 21 767 8 767 -14 c 0
 767 -44 741 -63 716 -63 c 0xa9
 682 -63 671 -36 594 38 c 1
 530 -4 451 -11 398 -11 c 0x6a
 287 -11 229 20 202 38 c 1
 167 2 l 2
 110 -55 102 -63 80 -63 c 0
 49 -63 29 -39 29 -14 c 0xaa
183 304 m 0
 183 182 231 89 394 89 c 0
 511 89 613 124 613 305 c 0
 613 429 564 520 401 520 c 0
 285 520 183 485 183 304 c 0
EndSplineSet
Validated: 1
EndChar

StartChar: yen
Encoding: 261 165 101
GlifName: yen
Width: 733
GlyphClass: 2
Flags: MW
HStem: 0 21G<281 441 281 281> 173 89<17.5 281 19 281 19 281 441 705 705 705> 402 91<-1 130 22 130 22 194 338 403 338 338 592 701 701 713> 675 20G<-9 185 185 185 554 732 732 732>
VStem: 281 160<0 173 0 173 262 266 266 271.5>
LayerCount: 2
Fore
SplineSet
-37 218 m 0
 -37 235 -27 262 19 262 c 2
 281 262 l 1
 281 266 l 2
 281 277 275 285 237 339 c 2
 194 402 l 1
 20 402 l 2
 -22 402 -37 426 -37 447 c 0
 -37 477 -12 493 22 493 c 2
 130 493 l 1
 85 557 34 633 -9 695 c 1
 185 695 l 1
 324 493 l 1
 415 493 l 1
 461 559 510 629 554 695 c 1
 732 695 l 1
 592 493 l 1
 701 493 l 2
 736 493 759 476 759 447 c 0
 759 432 748 402 713 402 c 2
 529 402 l 1
 441 277 l 1
 441 262 l 1
 709 262 l 2
 746 262 759 235 759 217 c 0
 759 199 750 173 705 173 c 1
 705 173 l 1
 441 173 l 1
 441 0 l 1
 281 0 l 1
 281 173 l 1
 18 173 l 2
 17 173 16 172 12 172 c 0
 -23 172 -37 199 -37 218 c 0
338 402 m 1
 373 355 l 1
 403 402 l 1
 338 402 l 1
EndSplineSet
Validated: 5
EndChar

StartChar: brokenbar
Encoding: 262 166 102
GlifName: brokenbar
Width: 183
GlyphClass: 2
Flags: MW
HStem: -216 21G<80.5 98> 728 20G<81.5 99.5>
VStem: 39 100<-158 -155 -155 142 142 143 390 392 392 688 688 690>
LayerCount: 2
Fore
SplineSet
39 200 m 25
 139 200 l 25
 139 -216 l 25
 39 -216 l 25
 39 200 l 25
39 331 m 25
 39 748 l 25
 139 748 l 25
 139 331 l 25
 39 331 l 25
EndSplineSet
Validated: 1
EndChar

StartChar: section
Encoding: 253 167 103
GlifName: section
Width: 533
GlyphClass: 2
Flags: MW
HStem: -173 103 600 106
VStem: 67 164 315 141<-18.5 19.5 244 275.5>
LayerCount: 2
Fore
SplineSet
39 -100 m 1
 63 34 l 1
 86 4 122 -46 185 -70 c 0
 206 -78 229 -83 257 -83 c 0
 303 -83 315 -32 315 -5 c 0
 315 44 244 62 192 86 c 0
 170 99 67 160 67 271 c 0
 67 295 72 350 129 397 c 1
 95 430 67 475 67 534 c 0
 67 626 147 706 265 706 c 0
 346 706 399 680 453 645 c 1
 432 519 l 1
 419 532 396 575 339 600 c 0
 319 609 296 615 267 615 c 0
 219 615 209 562 209 537 c 0
 209 518 218 505 231 495 c 0
 244 485 262 477 281 469 c 0
 318 454 456 397 456 260 c 0
 456 211 433 167 394 134 c 1
 431 99 456 52 456 -1 c 0
 456 -93 376 -173 259 -173 c 0
 175 -173 114 -152 39 -100 c 1
209 274 m 0
 209 237 238 223 299 200 c 1
 305 210 315 230 315 258 c 0
 315 293 286 309 226 333 c 1
 219 323 209 303 209 274 c 0
EndSplineSet
Validated: 1
EndChar

StartChar: dieresis
Encoding: 263 168 104
GlifName: dieresis
Width: 540
GlyphClass: 2
Flags: MW
HStem: 550 128<103 231 103 231 103 311 311 439>
AnchorPoint: "top_550" 275 560 mark 0
LayerCount: 2
Fore
SplineSet
311 550 m 5
 311 678 l 5
 439 678 l 5
 439 550 l 5
 311 550 l 5
103 550 m 1
 103 678 l 1
 231 678 l 1
 231 550 l 1
 103 550 l 1
EndSplineSet
Validated: 1
EndChar

StartChar: copyright
Encoding: 264 169 105
GlifName: copyright
Width: 1143
GlyphClass: 2
Flags: MW
HStem: -238 100<414.5 688> -22 117<580.5 678.5 580.5 682.5> 352 162 670 101<452 690.5>
VStem: 57 100<140.5 427.5 140.5 468> 255 163<185.5 276 185.5 360.5> 967 100<137 392.5 64.5 410.5>
LayerCount: 2
Fore
SplineSet
255 257 m 0
 255 508.857677903 456.253298153 565 594 565 c 0
 662.134502924 565 705.695906433 554.555555556 785 518 c 1
 765 399 l 1
 725.967308424 423.705663165 685.358510743 447 592 447 c 0
 441.579439252 447 418 332.4 418 256 c 0
 418 102.947019868 503.909090909 65 598 65 c 0
 688.700598802 65 723.413173653 88.5714285714 785 131 c 1
 796 0 l 1
 737.011299435 -30.7142857143 695.830508475 -52 599 -52 c 0
 441.333333333 -52 255 0.840148698885 255 257 c 0
57 266 m 0
 57 566 261 771 561 771 c 0
 861 771 1067 566 1067 266 c 0
 1067 -34 863 -238 563 -238 c 0
 263 -238 57 -34 57 266 c 0
157 266 m 0
 157 26 321 -138 561 -138 c 0
 801 -138 967 26 967 266 c 0
 967 506.594059406 802 671 562 671 c 4
 322 671 157 506.594059406 157 266 c 0
EndSplineSet
Validated: 1
EndChar

StartChar: ordfeminine
Encoding: 265 170 106
GlifName: ordfeminine
Width: 500
GlyphClass: 2
Flags: MW
HStem: 213 21G<67.5 91 91 432 432 432> 213 90<67.5 432 98 432 98 432 98 432> 364 80<208.5 426 208.5 276> 465 60 681 84<217 248>
VStem: 273 153<525 561 364 587 364 630>
LayerCount: 2
Fore
SplineSet
36 213 m 1x7c
 36 303 l 1
 462 303 l 1
 462 213 l 1
 36 213 l 1x7c
44 457 m 0
 44 530 237 525 273 525 c 1
 273 587 l 2
 273 673 257 681 239 681 c 0
 160 681 104 576 104 576 c 1
 94 713 l 1
 143 748 185 765 249 765 c 0
 400.858398438 765 426 664.064453125 426 593 c 2
 426 364 l 1
 276 364 l 1
 276 408 l 1
 234 363 181 354 160 354 c 0
 83 354 44 416 44 457 c 0
192 460 m 0
 192 453 200 444 217 444 c 0
 232 444 248 455 258 465 c 1
 198 462 192 461 192 460 c 0
EndSplineSet
Validated: 33
EndChar

StartChar: guillemotleft
Encoding: 266 171 107
GlifName: guillemotleft
Width: 733
GlyphClass: 2
Flags: MW
HStem: 0 21G<277 407 277 277 503 503 503 633> 459 20G<277 406 406 406 503 632 632 632>
LayerCount: 2
Fore
SplineSet
63 240 m 1
 277 479 l 1
 406 479 l 1
 200 239 l 1
 264 164 344 74 407 0 c 1
 277 0 l 1
 63 240 l 1
289 240 m 1
 503 479 l 1
 632 479 l 1
 426 239 l 1
 490 164 570 74 633 0 c 1
 503 0 l 1
 289 240 l 1
EndSplineSet
Validated: 1
EndChar

StartChar: logicalnot
Encoding: 267 172 108
GlifName: logicalnot
Width: 672
GlyphClass: 2
Flags: MW
HStem: 52 21G<538.5 565> 310 101<111 113.5>
VStem: 506 101<126 311 311 311>
LayerCount: 2
Fore
SplineSet
53 361 m 0
 53 379 64 411 111 411 c 2
 549 411 l 2
 580 411 607 399 607 354 c 2
 607 112 l 2
 607 58 573 52 557 52 c 0
 520 52 506 79 506 126 c 2
 506 311 l 1
 118 311 l 2
 116 311 115 310 112 310 c 0
 59 310 53 349 53 361 c 0
EndSplineSet
Validated: 1
EndChar

StartChar: uni00AD
Encoding: 173 173 109
GlifName: uni00A_D_
Width: 183
GlyphClass: 2
Flags: MW
HStem: 194 91<4 308 4 308>
LayerCount: 2
Fore
SplineSet
4 194 m 1
 4 285 l 1
 308 285 l 1
 308 194 l 1
 4 194 l 1
EndSplineSet
Validated: 1
EndChar

StartChar: registered
Encoding: 268 174 110
GlifName: registered
Width: 1143
GlyphClass: 2
Flags: MW
HStem: -238 529<568 606.5 568 618.5> 0 0<314 314 474 474 740 740 899 899> 266 21G 389 254 492 0<314 314 578 578>
VStem: 57 17 314 0<0 0 492 492> 733 0<212 212>
LayerCount: 2
Fore
SplineSet
57 266 m 0x77
 57 566 261 771 561 771 c 0
 861 771 1067 566 1067 266 c 0x77
 1067 -34 863 -238 563 -238 c 0x97
 263 -238 57 -34 57 266 c 0x77
157 266 m 0
 157 26 321 -138 561 -138 c 0
 801 -138 967 26 967 266 c 0
 967 506.594059406 802 671 562 671 c 0
 322 671 157 506.594059406 157 266 c 0
294 0 m 1x6f
 294 542 l 1
 558 542 l 2
 664 542 848 534.078947368 848 370 c 0
 848 280.96875 788 237.03125 713 222 c 1
 869 0 l 1
 690 0 l 1
 557 211 l 1
 454 211 l 1
 454 0 l 1
 294 0 l 1x6f
454 302 m 1
 567 302 l 0x97
 625.312943665 302 694 303.237544707 694 370 c 0
 694 424.918367347 653 439 568 439 c 2
 454 439 l 1
 454 302 l 1
EndSplineSet
Validated: 1
EndChar

StartChar: macron
Encoding: 269 175 111
GlifName: macron
Width: 525
GlyphClass: 2
InSpiro: 1
Flags: HMW
HStem: 598 102<60 465 60 465>
LayerCount: 2
Fore
SplineSet
60 600 m 1
 60 700 l 1
 465 700 l 1
 465 600 l 1
 60 600 l 1
  Spiro
    60 600 v
    60 700 v
    465 700 v
    465 600 v
    0 0 z
  EndSpiro
EndSplineSet
EndChar

StartChar: degree
Encoding: 270 176 112
GlifName: degree
Width: 367
GlyphClass: 2
Flags: MW
HStem: 437 101<172.5 192 172.5 217> 594 101<173 191>
VStem: 51 100<554 578.5 554 608.5> 208 100<558.5 576>
LayerCount: 2
Fore
SplineSet
51 566 m 0
 51 651 104 695 179 695 c 0
 258 695 308 648 308 567 c 0
 308 480 255 437 179 437 c 0
 95 437 51 491 51 566 c 0
151 566 m 0
 151 542 164 538 181 538 c 0
 203 538 208 550 208 567 c 0
 208 585 201 594 181 594 c 0
 165 594 151 591 151 566 c 0
EndSplineSet
Validated: 1
EndChar

StartChar: plusminus
Encoding: 271 177 113
GlifName: plusminus
Width: 672
GlyphClass: 2
Flags: MW
HStem: 78 100<104 114 114 280 381 543 543 548> 305 100<102 280 102 280 381 543 543 551> 612 20G<311 350.5>
VStem: 280 101<178 305 178 305 405 559>
LayerCount: 2
Fore
SplineSet
53 178 m 1
 280 178 l 1
 280 305 l 1
 53 305 l 1
 53 405 l 1
 280 405 l 1
 280 632 l 1
 381 632 l 1
 381 405 l 1
 606 405 l 1
 606 305 l 1
 381 305 l 1
 381 178 l 1
 606 178 l 1
 606 78 l 1
 53 78 l 1
 53 178 l 1
EndSplineSet
Validated: 1
EndChar

StartChar: uni00B2
Encoding: 272 178 114
GlifName: uni00B_2
Width: 489
GlyphClass: 2
Flags: MW
HStem: 337 119<46 433 46 46> 653 118<185.5 228.5>
VStem: 276 157<581.5 618.5>
LayerCount: 2
Fore
SplineSet
42 718 m 0
 98 752 148 771 223 771 c 0
 346 771 433 705 433 607 c 0
 433 541 375 525 314 508 c 0
 272 496 291 505 190 461 c 1
 275 461 l 2
 282 461 290 462 297 462 c 2
 433 462 l 1
 433 337 l 1
 46 337 l 1
 46 456 l 1
 79 474 111 491 144 509 c 1
 208 530 276 559 276 604 c 0
 276 633 249 653 208 653 c 0
 155 653 122 618 110 606 c 1
 86 639 63 671 39 704 c 0
 40 709 41 713 42 718 c 0
EndSplineSet
Validated: 1
EndChar

StartChar: uni00B3
Encoding: 273 179 115
GlifName: uni00B_3
Width: 489
GlyphClass: 2
Flags: MW
HStem: 327 111<189 235.5 189 259.5> 664 107<205 236.5>
VStem: 257 156<622 652> 279 134<456.5 680> 279 160
LayerCount: 2
Fore
SplineSet
35 326 m 1xc8
 53 435 l 1
 107 436 162 438 216 438 c 0
 255 438 279 440 279 473 c 0xd0
 279 501 261 508 232 508 c 2
 171 508 l 1
 171 597 l 1
 208 605 257 601 257 643 c 0
 257 661 244 664 229 664 c 0
 181 664 148 654 106 637 c 1
 47 729 l 1
 110 756 167 771 229 771 c 0
 360 771 413 719 413 641 c 0xe0
 413 598 390 572 370 557 c 1
 404 544 442 519 442 471 c 0
 442 465 441 457 439 448 c 0
 418 349 310 327 209 327 c 0
 151 327 93 326 35 326 c 1xc8
EndSplineSet
Validated: 1
EndChar

StartChar: acute
Encoding: 274 180 116
GlifName: acute
Width: 408
GlyphClass: 2
Flags: MW
HStem: 527 21G<187 187 187 281> 661 20G<297 460 460 460>
LayerCount: 2
Fore
SplineSet
68 550 m 5
 177 720 l 1
 341 720 l 1
 161 550 l 1
 68 550 l 5
EndSplineSet
Validated: 1
EndChar

StartChar: mu
Encoding: 275 181 117
GlifName: mu
Width: 561
GlyphClass: 2
Flags: MW
HStem: -162 21G<52 52 52 204> -7 21G 0 180<348 500 348 351> 458 20G<52 204 204 204 348 500 500 500>
VStem: 52 152<-162 -11 126 478> 348 152<180 180 180 478 0 478>
LayerCount: 2
Fore
SplineSet
52 -162 m 5xdc
 52 478 l 5
 204 478 l 5
 204 126 l 5
 205 83 206 68 256 68 c 4
 296 68 348 96 348 180 c 6
 348 478 l 5
 500 478 l 5
 500 0 l 5
 351 0 l 5xbc
 351 56 l 5
 318 15 278 -1 245 -7 c 4
 229 -10 214 -11 204 -11 c 5
 204 -162 l 5
 52 -162 l 5xdc
EndSplineSet
Validated: 1
EndChar

StartChar: paragraph
Encoding: 276 182 118
GlifName: paragraph
Width: 672
GlyphClass: 2
Flags: MW
HStem: -161 21G<333 349 484 513> 594 101<392 447 392 392 547 574 547 547>
VStem: 292 100<-108 -104 -104 219 219 219> 447 100<-111 -104 -104 594>
LayerCount: 2
Fore
SplineSet
54 455 m 0
 54 571 149 695 342 695 c 2
 637 695 l 1
 637 594 l 1
 547 594 l 1
 547 -161 l 1
 447 -161 l 1
 447 594 l 1
 392 594 l 1
 392 -161 l 1
 292 -161 l 1
 292 219 l 1
 132 242 54 349 54 455 c 0
EndSplineSet
Validated: 1
EndChar

StartChar: periodcentered
Encoding: 277 183 119
GlifName: periodcentered
Width: 219
GlyphClass: 2
Flags: MW
HStem: 189 21G<43 43 43 172> 297 20G<43 172 172 172>
LayerCount: 2
Fore
SplineSet
43 189 m 1
 43 317 l 1
 172 317 l 1
 172 189 l 1
 43 189 l 1
EndSplineSet
Validated: 1
EndChar

StartChar: cedilla
Encoding: 278 184 120
GlifName: cedilla
Width: 489
GlyphClass: 2
Flags: MW
HStem: -163 21G<97 97 97 221> -23 20G<199 289 289 289>
LayerCount: 2
Fore
SplineSet
97 -163 m 1
 199 -3 l 1
 289 -3 l 1
 221 -163 l 1
 97 -163 l 1
EndSplineSet
Validated: 1
EndChar

StartChar: uni00B9
Encoding: 279 185 121
GlifName: uni00B_9
Width: 489
GlyphClass: 2
Flags: MW
HStem: 337 91<83 175 329 414 83 175> 607 91<68 93> 751 20G<282 329 329 329>
VStem: 68 261<607 698 698 698> 175 154<428 618 618 618>
LayerCount: 2
Fore
SplineSet
68 607 m 1xf0
 68 698 l 1xf0
 199 699 249 739 282 771 c 1
 329 771 l 1
 329 428 l 1
 414 428 l 1
 414 337 l 1
 83 337 l 1
 83 428 l 1
 175 428 l 1
 175 618 l 1xe8
 148 612 118 607 68 607 c 1xf0
EndSplineSet
Validated: 1
EndChar

StartChar: ordmasculine
Encoding: 280 186 122
GlifName: ordmasculine
Width: 489
GlyphClass: 2
Flags: MW
HStem: 213 21G<46.5 70 70 411 411 411> 213 90<46.5 411 77 411 77 411 77 411> 354 95<212 256> 674 91<206 266.5>
VStem: 23 151<519.5 587 519.5 637> 305 152<533 608.5>
LayerCount: 2
Fore
SplineSet
23 552 m 0x3c
 23 722 128 765 242 765 c 0
 349 765 457 723 457 552 c 0
 457 396 356 358 256 354 c 1
 151 354 23 374 23 552 c 0x3c
37 213 m 5x7c
 37 303 l 1
 456 303 l 1
 456 213 l 1
 37 213 l 5x7c
174 554 m 0
 174 485 184 449 240 449 c 0
 302 449 305 493 305 573 c 0
 305 644 293 674 240 674 c 0
 178 674 174 620 174 554 c 0
EndSplineSet
Validated: 1
EndChar

StartChar: guillemotright
Encoding: 281 187 123
GlifName: guillemotright
Width: 733
GlyphClass: 2
Flags: MW
HStem: 0 21G<89 89 89 218 314 445 314 314> 459 20G<89 218 218 218 314 445 445 445>
LayerCount: 2
Fore
SplineSet
89 0 m 1
 296 239 l 1
 89 479 l 1
 218 479 l 1
 433 239 l 1
 218 0 l 1
 89 0 l 1
314 0 m 1
 521 239 l 1
 314 479 l 1
 445 479 l 1
 658 239 l 1
 445 0 l 1
 314 0 l 1
EndSplineSet
Validated: 1
EndChar

StartChar: onequarter
Encoding: 282 188 124
GlifName: onequarter
Width: 489
GlyphClass: 3
Flags: MW
HStem: -162 21G<231 371 231 231> -137 112<168 231 371 458> 243 101<16 431 58 431 431 441> 405 91<83 176 330 415 83 176> 648 91<69 81> 751 20G<290.5 330>
VStem: 176 154<496 652 652 652> 236 135<-25 59 59 59>
LayerCount: 2
Fore
SplineSet
21 243 m 1xfc
 21 344 l 1
 464 344 l 1
 464 243 l 1
 21 243 l 1xfc
44 -32 m 5
 214 182 l 5
 391 182 l 5
 391 -25 l 5
 438 -25 l 5
 438 -137 l 5
 391 -137 l 5
 391 -162 l 5
 251 -162 l 5
 251 -137 l 5
 44 -137 l 5
 44 -32 l 5
69 648 m 1
 69 739 l 1
 306 739 251 771 330 771 c 1
 330 496 l 1
 415 496 l 1
 415 405 l 1
 83 405 l 1
 83 496 l 1
 176 496 l 1
 176 652 l 1xfe
 121 647 93 648 69 648 c 1
188 -25 m 5
 256 -25 l 5
 256 59 l 5
 188 -25 l 5
EndSplineSet
Validated: 33
LCarets2: 2 0 0
EndChar

StartChar: onehalf
Encoding: 283 189 125
GlifName: onehalf
Width: 489
GlyphClass: 3
Flags: HMW
HStem: -162 96<197 276 276 279.5 197 435> 77 126 243 101<16 431 58 431 431 441> 405 91<83 176 330 415 83 176> 648 91<69 81> 751 20G<290.5 330>
VStem: 176 154<496 652 652 652> 266 169
LayerCount: 2
Fore
SplineSet
21 243 m 5xfc
 21 344 l 5
 464 344 l 5
 464 243 l 5
 21 243 l 5xfc
36 177 m 1
 111.462857143 196.066666667 153.977142857 203 222 203 c 0
 396 203 435 127 435 73 c 0
 435 -12 289 -29 212 -59 c 1
 197 -66 l 1
 435 -66 l 1
 435 -162 l 1xfd
 48 -162 l 1
 48 -76 l 1
 147 -20 l 1
 202 10 278 34.9065788359 278 71 c 0
 278 87 266 113 208 113 c 0
 163 113 137 96 109 77 c 1
 36 177 l 1
69 648 m 1
 69 739 l 1
 306 739 251 771 330 771 c 1
 330 496 l 1
 415 496 l 1
 415 405 l 1
 83 405 l 1
 83 496 l 1
 176 496 l 1
 176 652 l 1xfe
 121 647 93 648 69 648 c 1
EndSplineSet
Validated: 33
LCarets2: 2 0 0
EndChar

StartChar: threequarters
Encoding: 284 190 126
GlifName: threequarters
Width: 489
GlyphClass: 3
Flags: MW
HStem: -162 21G<231 371 231 231> -137 112<168 231 371 458> 243 101<16 431 58 431 431 441> 384 112 534 91<163.5 239 163.5 173> 664 107<207 235.5>
VStem: 236 135<-25 59 59 59> 258 157<637 658.5> 280 160
LayerCount: 2
Fore
SplineSet
21 243 m 1xfc
 21 344 l 1
 464 344 l 1
 464 243 l 1
 21 243 l 1xfc
36 413 m 1
 55 525 l 1
 132 502.548387097 190 496 227 496 c 0
 262.057096286 496 280 501 280 515 c 0xfc80
 280 531 261 534 239 534 c 2
 173 534 l 1
 173 625 l 1
 200 626 258 629 258 652 c 0
 258 663 242.193548387 664 223 664 c 0
 184.333333333 664 145.666666667 655 107 645 c 1
 48 757 l 1
 111 766 172 771 227 771 c 0
 305 771 415 750 415 652 c 0xfd
 415 614 399 596 382 583 c 1
 410 572 444 553 444 513 c 0
 444 402.288027844 323.056739541 384 245 384 c 0
 199 384 139 387.741935484 36 413 c 1
44 -32 m 1
 214 182 l 1
 391 182 l 1
 391 -25 l 1
 438 -25 l 1
 438 -137 l 1
 391 -137 l 1
 391 -162 l 1
 251 -162 l 1
 251 -137 l 1
 44 -137 l 1
 44 -32 l 1
188 -25 m 1
 256 -25 l 1
 256 59 l 1
 188 -25 l 1
EndSplineSet
Validated: 1
LCarets2: 2 0 0
EndChar

StartChar: questiondown
Encoding: 285 191 127
GlifName: questiondown
Width: 519
GlyphClass: 2
Flags: MW
HStem: -173 97 386 147<167 314 167 314>
VStem: 52 153<-44 0 -44 21> 167 147<386 533 386 533>
LayerCount: 2
Fore
SplineSet
52 -18 m 0xe0
 52 60 84 88 106 107 c 1
 106 106 l 1
 150 172 180 198 180 280 c 2
 180 322 l 1
 301 322 l 1
 301 280 l 2
 301 235 302 168 224 51 c 1
 224 52 l 1
 210 29 205 20 205 -20 c 0
 205 -68 207 -83 241 -83 c 0
 263 -83 283 -81 301 -76 c 0
 380 -55 398 -15 422 -15 c 1
 459 -121 l 1
 350 -171 277 -173 250 -173 c 0
 153 -173 52 -158 52 -18 c 0xe0
167 386 m 1xd0
 167 533 l 1
 314 533 l 1
 314 386 l 1
 167 386 l 1xd0
EndSplineSet
Validated: 33
EndChar

StartChar: Aring
Encoding: 291 197 133
GlifName: A_ring
Width: 733
GlyphClass: 2
Flags: MW
HStem: 0 21G<21 21 21 173 531 531 531 700> 146 104<260 444 260 479 224 444> 675 20G 807 90
VStem: 207 80<737 778 737 786.5> 386 69
LayerCount: 2
Fore
SplineSet
21 0 m 1
 244 637 l 1
 219 663 207 701 207 748 c 0
 207 825 231 896 337 897 c 0
 406 896 440 865 455 821 c 0
 463 799 465 774 465 749 c 0
 465 719 461 705 458 694 c 1
 700 0 l 1
 531 0 l 1
 479 146 l 1
 224 146 l 1
 173 0 l 1
 21 0 l 1
260 250 m 1
 444 250 l 1
 421 319 395 391 372 461 c 2
 355 513 l 2
 354 518 353 522 352 527 c 1
 338 478 314 414 260 250 c 1
287 754 m 0
 287 720 289 696 333 695 c 0
 363 696 386 695 386 746 c 0
 386 781 384 806 339 807 c 0
 305 807 287 802 287 754 c 0
EndSplineSet
Validated: 1
EndChar

StartChar: AE
Encoding: 292 198 134
GlifName: A_E_
Width: 947
GlyphClass: 2
Flags: MW
HStem: 0 123<606 606 606 891> 186 104<280 444 280 444 241 444> 305 112<606 846 606 846> 577 118<383 444 383 383>
VStem: 444 162<123 186 186 186 290 305 417 576>
LayerCount: 2
Fore
SplineSet
22 0 m 1
 274 695 l 1
 876 695 l 1
 876 573 l 1
 606 576 l 1
 606 417 l 1
 846 417 l 1
 846 305 l 1
 606 305 l 1
 606 123 l 1
 853 126 l 2
 866 126 878 127 891 127 c 1
 891 0 l 1
 444 0 l 1
 444 186 l 1
 241 186 l 1
 174 0 l 1
 22 0 l 1
280 290 m 1
 444 290 l 1
 444 577 l 1
 383 577 l 1
 347 477 317 391 280 290 c 1
EndSplineSet
Validated: 1
EndChar

StartChar: Eth
Encoding: 302 208 144
GlifName: E_th
Width: 794
GlyphClass: 2
Flags: MW
HStem: 0 104<245 336 336 372 245 376> 296 91<-5 85 -5 85 245 401> 591 104<245 344 245 245>
VStem: 85 160<104 104 104 296 387 591> 567 160<321 439.5>
LayerCount: 2
Fore
SplineSet
-5 296 m 1
 -5 387 l 1
 85 387 l 1
 85 695 l 1
 376 695 l 1
 376 695 l 1
 568 695 727 629 727 340 c 0
 727 42 541 0 376 0 c 2
 85 0 l 1
 85 296 l 1
 -5 296 l 1
245 104 m 1
 336 104 l 2
 408 104 488 108 534 176 c 1
 534 175 l 1
 561 217 566 270 567 321 c 0
 567 558 454 591 344 591 c 2
 245 591 l 1
 245 387 l 1
 401 387 l 1
 401 296 l 1
 245 296 l 1
 245 104 l 1
EndSplineSet
Validated: 5
EndChar

StartChar: multiply
Encoding: 309 215 151
GlifName: multiply
Width: 672
GlyphClass: 2
Flags: MW
HStem: 55 21G<158 183.5 488 488> 456 20G<164 183.5 479.5 504.5>
LayerCount: 2
Fore
SplineSet
120 105 m 0
 120 110 121 115 124 121 c 0
 140 154 177 178 260 266 c 1
 204 323 l 2
 121 404 120 404 120 427 c 0
 120 435 122 442 126 449 c 0
 134 463 148 473 164 476 c 0
 203 476 181 487 331 337 c 1
 463 475 468 476 491 476 c 0
 518 476 541 456 541 427 c 1
 541 427 l 1
 541 394 520 386 401 265 c 1
 459 209 l 2
 541 128 541 128 541 106 c 0
 541 72 518 61 502 57 c 0
 494 55 488 55 488 55 c 1
 455 58 435 92 330 194 c 1
 274 137 l 2
 199 62 196 55 171 55 c 0
 145 55 120 79 120 105 c 0
EndSplineSet
Validated: 37
EndChar

StartChar: Oslash
Encoding: 310 216 152
GlifName: O_slash
Width: 856
GlyphClass: 2
Flags: MW
HStem: -63 21G<235 235> -21 89<398.5 530 398.5 567> 626 90<325.5 439.5> 738 20G<607 607>
VStem: 55 145<321 388.5 321 491.5> 641 145<294.5 386>
LayerCount: 2
Fore
SplineSet
55 342 m 0
 55 641 231 716 420 716 c 0
 475 716 523 710 570 696 c 1
 607 758 l 1
 689 710 l 1
 656 653 l 1
 744 593 786 484 786 340 c 0
 786 155 713 -21 421 -21 c 0
 371 -21 319 -17 270 -3 c 1
 260 -22 245 -46 235 -63 c 1
 152 -16 l 1
 184 39 l 1
 101 97 55 198 55 342 c 0
200 321 m 0
 202 263 208 195 243 143 c 1
 334 297 429 454 520 609 c 1
 493 619 459 626 420 626 c 0
 205 626 200 456 200 321 c 0
321 84 m 1
 347 74 376 68 421 68 c 0
 639 68 641 241 641 348 c 0
 641 424 637 490 596 551 c 1
 507 398 410 236 321 84 c 1
EndSplineSet
Validated: 1
EndChar

StartChar: Thorn
Encoding: 316 222 158
GlifName: T_horn
Width: 642
GlyphClass: 2
Flags: MW
HStem: 0 21G<83 83 83 241> 175 104<241 305 305 332.5 241 337 241 305> 491 104<242 306 242 242> 675 20G<83 241 241 241>
VStem: 83 159<487 491 487 695> 423 155<333 427 283 436.5>
LayerCount: 2
Fore
SplineSet
83 0 m 1
 83 695 l 1
 241 695 l 1
 241 595 l 1
 331 595 l 2
 371 595 419 594 463 577 c 0
 548 542 578 467 578 387 c 0
 578 179 413 175 337 175 c 2
 241 175 l 1
 241 0 l 1
 83 0 l 1
241 279 m 1
 305 279 l 2
 360 279 423 281 423 385 c 0
 423 488 339 491 306 491 c 2
 242 491 l 1
 242 483 241 475 241 467 c 2
 241 279 l 1
EndSplineSet
Validated: 1
EndChar

StartChar: germandbls
Encoding: 317 223 159
GlifName: germandbls
Width: 565
GlyphClass: 2
Flags: MW
HStem: -11 90<297.5 344.5 297.5 370> 0 21G<54 54 54 202> 384 88<241 241> 607 89<255 295>
VStem: 54 148<0 547 547 549 0 607> 335 163 378 149<166.5 246.5 111.5 273>
LayerCount: 2
Fore
SplineSet
54 0 m 1x7c
 54 547 l 2
 54 667 147 696 275 696 c 0
 341 696 498 693 498 556 c 0x7c
 498 529 491 466 432 424 c 1
 493 380 527 300 527 193 c 0
 527 30 422 -11 318 -11 c 0
 269 -11 232 2 210 11 c 1
 240 94 l 1
 260 86 284 79 311 79 c 0
 378 79 378 144 378 189 c 0xba
 378 357 311 380 241 384 c 1
 241 472 l 1
 282 473 317 479 335 503 c 0
 344 515 349 532 349 555 c 0
 349 607 306 607 284 607 c 0
 226 607 202 601 202 549 c 2
 202 0 l 1
 54 0 l 1x7c
EndSplineSet
Validated: 1
EndChar

StartChar: ae
Encoding: 324 230 166
GlifName: ae
Width: 794
GlyphClass: 2
Flags: MW
HStem: -8 87 212 73<314 314> 240 71<469 618 469 750 464 618> 399 89<531 573>
VStem: 27 145<127.5 151 127.5 206> 327 137<142 240>
LayerCount: 2
Fore
SplineSet
27 136 m 0xbc
 27 276 257 283 313 285 c 1xdc
 313 319 l 2
 313 349 310 405 255 405 c 0
 233 405 213 401 195 395 c 0
 142 377 107 340 86 319 c 1
 77 443 l 1
 136 473 183 488 257 488 c 0
 323 488 366 482 405 453 c 1
 452 484 512 488 550 488 c 0
 723 488 750 366 750 240 c 1
 464 240 l 1
 464 182 469 131 506 100 c 1
 505 100 l 1
 523 84 544 79 568 79 c 0
 653 79 717 139 735 154 c 1
 744 40 l 1
 700 15 659 -1 612 -8 c 0
 596 -10 580 -11 563 -11 c 0
 462 -11 415 20 390 39 c 1
 323 -7 216 -11 174 -11 c 0
 72 -11 27 74 27 136 c 0xbc
172 136 m 0
 172 119 185 79 232 79 c 0
 281 79 329 102 329 128 c 0
 329 129 328 135 326 142 c 1
 327 142 l 1
 321 157 315 179 314 212 c 1
 199 203 172 166 172 136 c 0
469 311 m 1xbc
 618 311 l 1
 613 348 596 399 550 399 c 0
 493 399 474 340 469 311 c 1xbc
EndSplineSet
Validated: 1
EndChar

StartChar: eth
Encoding: 334 240 176
GlifName: eth
Width: 550
GlyphClass: 2
Flags: MW
HStem: -11 94<222.5 304 222.5 349.5> 399 89<267 284 267 319.5> 667 20G 670 20G<277 277>
VStem: 25 150<210 293 210 334> 362 150<230.5 243 243 260>
LayerCount: 2
Fore
SplineSet
25 231 m 0xdc
 25 437 144 488 267 488 c 0
 279 488 271 489 284 488 c 1
 270 505 257 518 241 531 c 1
 214 516 l 1
 197 544 l 2
 184 567 180 572 171 577 c 0
 153 586 122 597 78 605 c 1
 110 632 142 660 174 687 c 1xec
 196 680 219 675 241 668 c 1
 251 673 267 684 277 690 c 1
 292 662 l 1
 292 663 l 1
 310 633 310 633 322 625 c 0
 434 547 512 419 512 269 c 2
 512 243 l 2
 512 218 511 193 507 170 c 0
 491 66 431 -11 268 -11 c 0
 74 -11 25 106 25 231 c 0xdc
175 259 m 0
 175 161 177 83 268 83 c 0
 340 83 362 131 362 233 c 0
 362 287 371 399 268 399 c 0
 181 399 175 327 175 259 c 0
EndSplineSet
Validated: 33
EndChar

StartChar: divide
Encoding: 341 247 183
GlifName: divide
Width: 672
GlyphClass: 2
Flags: HMW
HStem: -100 227<248.5 388 273 387> 216 100<98 111 111 542 542 547> 404 228<248 390 273 387>
VStem: 217 227<-40 47 47 67 -57.5 69 -57.5 96 465 571>
LayerCount: 2
Fore
SplineSet
53 316 m 1
 606 316 l 1
 606 216 l 1
 53 216 l 1
 53 316 l 1
258.995117188 105.004882812 m 1
 402.004882812 105.004882812 l 1
 402.004882812 -38.0048828125 l 1
 258.995117188 -38.0048828125 l 1
 258.995117188 105.004882812 l 1
258.995117188 569.8203125 m 5
 402.004882812 569.8203125 l 5
 402.004882812 426.1796875 l 5
 258.995117188 426.1796875 l 5
 258.995117188 569.8203125 l 5
EndSplineSet
Validated: 1
EndChar

StartChar: oslash
Encoding: 342 248 184
GlifName: oslash
Width: 550
GlyphClass: 2
Flags: MW
HStem: -101 21G<126 126> -11 89<261.5 322.5 261.5 331.5> 400 88<217.5 276> 554 20G<411 411 411 411>
VStem: 25 134<227 279.5 227 299.5> 378 134<197 249.5>
LayerCount: 2
Fore
SplineSet
25 232 m 0
 25 367 78 488 268 488 c 0
 309 488 333 484 357 479 c 1
 411 574 l 1
 411 574 l 1
 489 530 l 1
 436 437 l 1
 467 413 512 363 512 230 c 0
 512 37 395 -11 268 -11 c 0
 238 -11 209 -8 183 -2 c 1
 126 -101 l 1
 49 -57 l 1
 102 36 l 1
 67 64 25 119 25 232 c 0
159 240 m 0
 159 214 158 177 166 147 c 1
 214 231 260 309 309 394 c 1
 297 398 284 400 268 400 c 0
 167 400 159 319 159 240 c 0
231 82 m 1
 243 79 255 78 268 78 c 0
 377 78 378 162 378 232 c 0
 378 267 380 293 371 324 c 1
 231 82 l 1
EndSplineSet
Validated: 37
EndChar

StartChar: thorn
Encoding: 348 254 190
GlifName: thorn
Width: 561
GlyphClass: 2
Flags: MW
HStem: -160 21G<54 54 54 204> -11 90<295 311 250 378.5> 389 94<259.5 404> 666 20G<54 202 202 202>
VStem: 54 150<-160 30 -160 106 106 308 308 365> 367 150<200.5 236>
LayerCount: 2
Fore
SplineSet
54 -160 m 1
 54 686 l 1
 202 686 l 1
 202 434 l 1
 240 460 291 483 355 483 c 0
 453 483 517 415 517 238 c 0
 517 59 438 -11 319 -11 c 0
 271 -11 233 6 204 30 c 1
 204 -160 l 1
 54 -160 l 1
204 365 m 1
 204 308 l 1
 204 106 l 1
 212 98 232 79 268 79 c 0
 354 79 367 172 367 229 c 0
 367 243 366 256 366 270 c 0
 363 307 352 389 277 389 c 0
 242 389 216 373 204 365 c 1
EndSplineSet
Validated: 1
EndChar

StartChar: dcaron
Encoding: 365 271 207
GlifName: dcaron
Width: 732
GlyphClass: 2
Flags: MW
HStem: -11 21G<190.5 245.5> 0 18<345 496 345 345> 394 89<234.5 246 196.5 294> 666 20G<348 496 496 496> 728 20G<535 681 681 681>
VStem: 32 151<184 277> 345 151<0 18 18 37 37 37 112 177 177 371 371 371> 535 146<609 748 609 748 609 748>
LayerCount: 2
Fore
SplineSet
32 238 m 0xbf
 32 316 45 396 102 444 c 1
 101 444 l 1
 133 471 175 483 218 483 c 0
 274 483 313 467 348 441 c 1
 348 686 l 1
 496 686 l 1
 496 0 l 1
 345 0 l 1
 345 18 l 1x7f
 345 37 l 1
 311 7 274 -11 217 -11 c 0
 164 -11 32 10 32 238 c 0xbf
183 249 m 0
 183 119 200 78 269 78 c 0
 314 78 337 104 345 112 c 1
 345 177 l 1
 345 371 l 1
 324 387 307 394 281 394 c 0
 188 394 183 319 183 249 c 0
528 532 m 1
 565 603 l 1
 535 603 l 1
 535 748 l 1
 681 748 l 1
 681 609 l 1
 658 583 634 558 611 532 c 1
 528 532 l 1
EndSplineSet
Validated: 1
EndChar

StartChar: Dcroat
Encoding: 366 272 208
GlifName: D_croat
Width: 794
GlyphClass: 2
Flags: MW
HStem: 0 104<245 336 336 372 245 376> 296 91<-5 85 -5 85 245 401> 591 104<245 344 245 245>
VStem: 85 160<104 104 104 296 387 591> 567 160<321 439.5>
LayerCount: 2
Fore
SplineSet
-5 296 m 1
 -5 387 l 1
 85 387 l 1
 85 695 l 1
 376 695 l 1
 376 695 l 1
 568 695 727 629 727 340 c 0
 727 42 541 0 376 0 c 2
 85 0 l 1
 85 296 l 1
 -5 296 l 1
245 104 m 1
 336 104 l 2
 408 104 488 108 534 176 c 1
 534 175 l 1
 561 217 566 270 567 321 c 0
 567 558 454 591 344 591 c 2
 245 591 l 1
 245 387 l 1
 401 387 l 1
 401 296 l 1
 245 296 l 1
 245 104 l 1
EndSplineSet
Validated: 5
EndChar

StartChar: dcroat
Encoding: 367 273 209
GlifName: dcroat
Width: 561
GlyphClass: 2
Flags: MW
HStem: -11 21G<189.5 244.5> 0 18<344 495 344 344> 394 89<232.5 245 195.5 293> 522 89<185 347 185 347 495 577> 666 20G<347 495 495 495>
VStem: 31 151<231 274.5 231 277> 344 151<0 18 18 37 37 37 155 371 371 371>
LayerCount: 2
Fore
SplineSet
31 238 m 0xbe
 31 316 44 396 101 444 c 1
 100 444 l 1
 132 471 174 483 217 483 c 0
 273 483 313 466 347 441 c 1
 347 522 l 1
 185 522 l 1
 185 611 l 1
 347 611 l 1
 347 686 l 1
 495 686 l 1
 495 611 l 1
 577 611 l 1
 577 522 l 1
 495 522 l 1
 495 0 l 1
 344 0 l 1
 344 18 l 1x7e
 344 37 l 1
 309 7 273 -11 216 -11 c 0
 163 -11 31 10 31 238 c 0xbe
182 231 m 0
 181 226 181 221 181 214 c 0
 181 151 192 78 268 78 c 0
 359 78 344 133 344 155 c 2
 344 371 l 1
 323 387 306 394 280 394 c 0
 185 394 182 318 182 231 c 0
EndSplineSet
Validated: 33
EndChar

StartChar: hbar
Encoding: 386 295 228
GlifName: hbar
Width: 617
GlyphClass: 2
Flags: MW
HStem: 0 21G<107 258 107 107 400 550 400 400> 394 89<362 368> 490 88<-10 107 -10 107 255 404> 666 20G<107 255 255 255>
VStem: 107 148<409 490 409 490 409 490 578 686> 400 151<307.5 323 323 343>
LayerCount: 2
Fore
SplineSet
-10 490 m 1
 -10 578 l 1
 107 578 l 1
 107 686 l 1
 255 686 l 1
 255 578 l 1
 404 578 l 1
 404 490 l 1
 255 490 l 1
 255 409 l 1
 280 445 324 483 400 483 c 0
 542 483 551 402 551 311 c 0
 551 304 550 297 550 291 c 2
 550 0 l 1
 400 0 l 1
 400 323 l 2
 400 363 392 394 344 394 c 0
 286 394 262 332 258 288 c 1
 258 240 l 1
 258 0 l 1
 107 0 l 1
 107 490 l 1
 -10 490 l 1
EndSplineSet
Validated: 1
EndChar

StartChar: dotlessi
Encoding: 394 305 236
GlifName: dotlessi
Width: 256
GlyphClass: 2
Flags: MW
HStem: 0 21G<51 51 51 198> 452 20G<51 198 198 198>
VStem: 51 147<0 472 0 472>
LayerCount: 2
Fore
SplineSet
51 0 m 1
 51 472 l 1
 198 472 l 1
 198 0 l 1
 51 0 l 1
EndSplineSet
Validated: 1
EndChar

StartChar: Lslash
Encoding: 403 321 245
GlifName: L_slash
Width: 672
GlyphClass: 2
Flags: MW
HStem: 0 118<336 336 336 623> 675 20G<173 336 336 336>
VStem: 173 163<118 223 223 223 497 695>
LayerCount: 2
Fore
SplineSet
62 279 m 1
 173 365 l 1
 173 695 l 1
 336 695 l 1
 336 497 l 1
 448 588 l 1
 518 500 l 1
 336 355 l 1
 336 118 l 1
 623 121 l 1
 623 0 l 1
 173 0 l 1
 173 223 l 1
 132 190 l 1
 62 279 l 1
EndSplineSet
Validated: 1
EndChar

StartChar: lslash
Encoding: 404 322 246
GlifName: lslash
Width: 381
GlyphClass: 2
Flags: MW
HStem: 0 21G<110 258 110 110> 666 20G<110 258 258 258>
VStem: 110 148<0 240 240 240 354 358 472 686>
LayerCount: 2
Fore
SplineSet
6 271 m 1
 110 354 l 1
 110 686 l 1
 258 686 l 1
 258 472 l 1
 324 525 l 1
 379 455 l 1
 258 358 l 1
 258 0 l 1
 110 0 l 1
 110 240 l 1
 61 201 l 1
 6 271 l 1
EndSplineSet
Validated: 1
EndChar

StartChar: Eng
Encoding: 409 330 251
GlifName: E_ng
Width: 825
GlyphClass: 2
Flags: MW
HStem: -21 113<524.5 626> 0 21G<85 85 85 248> 631 151<385 447.5> 675 20G<85 140 140 195 195 195>
VStem: 85 163<0 484 0 695> 594 163<160 160 160 446 446 448>
LayerCount: 2
Fore
SplineSet
85 0 m 1x6c
 85 695 l 1
 140 695 l 1
 195 695 l 1x5c
 261 755 347 782 423 782 c 0
 582 782 757 670 757 448 c 2
 757 155 l 2
 757 14 663 -21 589 -21 c 0
 526 -21 470 -1 425 22 c 1
 453 181 l 1
 479 117 510 92 539 92 c 0xac
 558 92 594 100 594 160 c 1
 594 160 l 1
 594 446 l 2
 594 594 477 631 418 631 c 0
 327 631 248 560 248 484 c 2
 248 0 l 1
 85 0 l 1x6c
EndSplineSet
Validated: 5
EndChar

StartChar: eng
Encoding: 410 331 252
GlifName: eng
Width: 561
GlyphClass: 2
Flags: MW
HStem: -171 101<311.5 321.5 284 417.5> 0 21G<53 53 53 203> 376 102 463 20G<307.5 416>
VStem: 53 145<404 478 404 478 404 478> 346 148<-25.5 53.5>
LayerCount: 2
Fore
SplineSet
53 0 m 1xec
 53 478 l 1
 198 478 l 1xec
 198 404 l 1
 223 441 270 483 345 483 c 0xdc
 487 483 496 402 496 312 c 0
 496 305 495 298 495 292 c 2
 495 272 l 2
 495 185 494 97 494 10 c 0
 494 -19 495 -171 340 -171 c 0
 283 -171 226 -153 188 -137 c 1
 229 -51 l 1
 254 -62 272 -70 296 -70 c 0
 347 -70 346 -32 346 -19 c 0
 346 -9 345 0 345 10 c 2
 345 323 l 2
 345 363 338 394 290 394 c 0
 270 394 254 387 242 376 c 0
 217 354 206 317 203 288 c 2
 203 0 l 1
 53 0 l 1xec
EndSplineSet
Validated: 33
EndChar

StartChar: OE
Encoding: 417 338 259
GlifName: O_E_
Width: 1069
GlyphClass: 2
Flags: MW
HStem: -21 89<351.5 427.5> 0 68 0 123<554 662 662 662 662 1011> 305 112<662 967 662 967> 573 122<594 997> 626 90<298.5 427 298.5 444>
VStem: 27 160<239 385.5 239 492.5> 502 160<250 305 417 437 437 517>
LayerCount: 2
Fore
SplineSet
27 344 m 0x9b
 27 641 193.87534626 716 358 716 c 0x97
 424.640776699 716 487.743589744 698.524590164 534 675 c 1
 534 695 l 1
 997 695 l 1
 997 573 l 1
 662 576 l 1
 662 417 l 1
 967 417 l 1
 967 305 l 1
 662 305 l 1
 662 123 l 1x3b
 1011 127 l 1
 1011 0 l 1
 534 0 l 1
 534 20 l 1x5b
 482.102564103 -6.88524590164 425.495145631 -21 358 -21 c 0
 189.290858726 -21 27 52 27 344 c 0x9b
187 362 m 0
 187 116 307 68 396 68 c 0
 461.924528302 68 502.754716981 78.4615384615 534 100 c 1
 534 587 l 1
 505.295238095 611.869565217 447.457142857 626 397 626 c 0
 191 626 187 409 187 362 c 0
EndSplineSet
Validated: 1
EndChar

StartChar: oe
Encoding: 418 339 260
GlifName: oe
Width: 856
GlyphClass: 2
Flags: MW
HStem: -11 90<228 321 228 323.5 615 655.5> 240 71<528 677 528 809 523 677> 399 89<580.5 627.5>
VStem: 28 145<193 278.5 193 338.5> 372 151<211 240 211 321.5>
LayerCount: 2
Fore
SplineSet
28 239 m 0
 28 438 148 488 272 488 c 0
 371 488 418 460 446 438 c 1
 470 459 516 488 610 488 c 0
 830 488 809 276 809 240 c 1
 523 240 l 1
 523 182 529 131 565 100 c 1
 564 100 l 1
 582 84 603 79 627 79 c 0
 712 79 776 139 794 154 c 1
 803 40 l 1
 745 7 689 -11 622 -11 c 0
 523 -11 475 20 447 41 c 1
 422 20 373 -11 274 -11 c 0
 77 -11 28 109 28 239 c 0
173 238 m 0
 173 148 182 79 274 79 c 0
 368 79 372 162 372 241 c 0
 372 402 326 400 272 400 c 0
 174 400 173 319 173 238 c 0
528 311 m 1
 677 311 l 1
 676 319 674 328 672 336 c 0
 664 368 646 399 609 399 c 0
 552 399 533 340 528 311 c 1
EndSplineSet
Validated: 33
EndChar

StartChar: longs
Encoding: 456 383 298
GlifName: longs
Width: 336
GlyphClass: 2
Flags: MW
HStem: 0 21G<78 78 78 224> 607 89<252.5 291.5 241.5 300.5>
VStem: 78 146<0 515 515 540 0 542>
LayerCount: 2
Fore
SplineSet
78 0 m 1
 78 515 l 2
 78 569 83 616 124 651 c 0
 152 676 206 696 277 696 c 0
 306 696 340 693 380 684 c 1
 380 557 l 1
 346 588 320 607 281 607 c 0
 224 607 224 572 224 540 c 2
 224 0 l 1
 78 0 l 1
EndSplineSet
Validated: 1
EndChar

StartChar: uni0180
Encoding: 457 384 299
GlifName: uni0180
Width: 561
GlyphClass: 2
Flags: MW
HStem: -11 90<296 315.5 251 365.5> 0 21G<55 205 55 55> 394 89<316.5 326.5> 490 88<-27 55 -27 55 203 352> 666 20G<55 203 203 203>
VStem: 55 150<0 30 106 292 292 367> 368 150<190 246 138.5 269>
LayerCount: 2
Fore
SplineSet
-27 490 m 1x7e
 -27 578 l 1
 55 578 l 1
 55 686 l 1
 203 686 l 1
 203 578 l 1
 352 578 l 1
 352 490 l 1
 203 490 l 1
 203 437 l 1
 239 463 286 483 347 483 c 0
 515 483 517 303 518 246 c 0
 518 31 412 -11 319 -11 c 0xbe
 273 -11 233 8 205 30 c 1
 205 0 l 1
 55 0 l 1
 55 490 l 1
 -27 490 l 1x7e
205 106 m 1
 213 97 232 79 270 79 c 0
 361 79 368 148 368 232 c 0
 368 306 373 394 280 394 c 0
 248 394 227 385 205 367 c 1
 205 292 l 1
 205 106 l 1
EndSplineSet
Validated: 33
EndChar

StartChar: uni0186
Encoding: 458 390 300
GlifName: uni0186
Width: 703
GlyphClass: 2
Flags: MW
HStem: -21 117<233 353 221.5 370.5> 600 117<228.5 355>
VStem: 479 163<277 414.5>
LayerCount: 2
Fore
SplineSet
642 349 m 0
 642 52 469 -21 272 -21 c 0
 194 -21 138 -9 64 17 c 1
 90 166 l 1
 128 142 169 96 274 96 c 0
 432 96 479 208 479 346 c 0
 479 483 438 600 272 600 c 0
 174 600 140 578 63 529 c 1
 53 659 l 1
 142 706 183 717 274 717 c 0
 473 717 642 636 642 349 c 0
EndSplineSet
Validated: 1
EndChar

StartChar: uni0188
Encoding: 459 392 301
GlifName: uni0188
Width: 550
GlyphClass: 2
Flags: MW
HStem: -11 94<233 307> 394 94<228.5 293.5 210.5 310.5> 580 95
VStem: 32 150<196 274 196 338.5> 361 89<481 531 531 536 436.5 580.5 531 531>
LayerCount: 2
Fore
SplineSet
32 239 m 0
 32 438 148 488 273 488 c 0
 314 488 337 486 361 481 c 1
 361 531 l 1
 361 531 l 1
 361 630 418 675 505 675 c 0
 553 675 581 661 618 626 c 1
 575 508 l 1
 562 550 544 571 528 580 c 0
 520 585 512 586 505 586 c 0
 479 586 450 577 450 536 c 2
 450 453 l 2
 450 420 437 367 432 330 c 1
 407 348 l 2
 375 373 346 394 275 394 c 0
 182 394 182 306 182 242 c 0
 182 150 193 83 273 83 c 0
 359 83 416 132 446 156 c 1
 455 37 l 1
 395 6 343 -11 271 -11 c 0
 80 -11 32 107 32 239 c 0
EndSplineSet
Validated: 5
EndChar

StartChar: uni018E
Encoding: 460 398 302
GlifName: uni018E_
Width: 642
GlyphClass: 2
Flags: MW
HStem: 0 127<84 84 84 593> 303 112<128 430 128 430> 573 119<430 430>
VStem: 430 163<123 303 303 303 415 573 573 573>
LayerCount: 2
Fore
SplineSet
84 0 m 1
 84 127 l 1
 430 123 l 1
 430 303 l 1
 128 303 l 1
 128 415 l 1
 430 415 l 1
 430 573 l 1
 98 570 l 1
 98 692 l 1
 593 692 l 1
 593 0 l 1
 84 0 l 1
EndSplineSet
Validated: 1
EndChar

StartChar: uni018F
Encoding: 461 399 303
GlifName: uni018F_
Width: 761
GlyphClass: 2
Flags: MW
HStem: -21 95<356 438.5 296.5 503.5> 255 89<179 179 179 546> 600 116<352 435.5>
VStem: 25 154<255 344> 549 160<344 344>
LayerCount: 2
Fore
SplineSet
25 344 m 1
 549 344 l 1
 546 467 519 600 352 600 c 0
 224 600 208 581 108 531 c 1
 82 680 l 1
 217 715 242 715 352 716 c 0
 646 716 709 531 709 340 c 0
 709 149 651 -21 356 -21 c 0
 262 -18 152 -4 83 92 c 1
 28 177 25 291 25 344 c 1
179 255 m 1
 185 172 234 74 359 74 c 0
 518 74 542 219 546 255 c 1
 179 255 l 1
EndSplineSet
Validated: 1
EndChar

StartChar: uni0190
Encoding: 462 400 304
GlifName: uni0190
Width: 611
GlyphClass: 2
Flags: MW
HStem: -21 116<285 371> 316 90<285.5 399 337 399 337 399> 600 116<301.5 373 261 381>
VStem: 38 155<158 253 158 259.5> 68 125 68 152<489 543.5 455 601>
LayerCount: 2
Fore
SplineSet
38 203 m 0xe8
 38 316 117 351 167 363 c 1
 75 398 68 472 68 506 c 0
 68 696 186 716 336 716 c 0
 410 716 458 708 543 678 c 1
 517 531 l 1
 498 542 l 1
 461 570 424 600 338 600 c 0
 265 600 220 585 220 502 c 0xe4
 220 408 293 406 337 406 c 2
 399 406 l 1
 399 316 l 1
 321 316 l 2
 250 316 193 299 193 207 c 0
 193 109 253 95 317 95 c 0
 426 95 464 120 543 166 c 1
 554 36 l 1
 474 -3 429 -21 313 -21 c 0
 156 -21 38 21 38 203 c 0xe8
EndSplineSet
Validated: 1
EndChar

StartChar: florin
Encoding: 463 402 305
GlifName: florin
Width: 630
GlyphClass: 2
Flags: MW
HStem: -171 101<114 133 95.5 182.5> 384 88<224 259 205 277 423 498> 576 120
LayerCount: 2
Fore
SplineSet
-10 -136 m 1
 40 -51 l 1
 65 -63 82 -70 109 -70 c 0
 157 -70 166 -57 169 -39 c 2
 259 384 l 1
 205 384 l 1
 224 472 l 1
 277 472 l 1
 281 491 l 2
 288 531 298 573 320 608 c 0
 331 627 370 696 528 696 c 0
 567 696 589 692 625 684 c 1
 599 560 l 1
 594 565 589 571 584 576 c 0
 570 590 553 607 512 607 c 0
 449 607 442 572 428 502 c 2
 423 472 l 1
 517 472 l 1
 498 384 l 1
 408 384 l 1
 379 250 350 115 321 -19 c 0
 315 -49 308 -80 290 -107 c 0
 266 -143 224 -171 141 -171 c 0
 87 -171 43 -159 -10 -136 c 1
EndSplineSet
Validated: 1
EndChar

StartChar: uni0195
Encoding: 464 405 306
GlifName: uni0195
Width: 815
GlyphClass: 2
Flags: MW
HStem: -11 90<565 593.5 565 637.5> 0 21G<55 55 55 206> 382 102 666 20G<55 203 203 203>
VStem: 55 148<409 464 464 686> 348 151<298 308 308 314 286 325> 593 168<198 429.5> 611 150<198 314 198 333.5>
LayerCount: 2
Fore
SplineSet
55 0 m 1x7e
 55 686 l 1
 203 686 l 1
 203 409 l 1
 228 445 272 484 347 484 c 0
 485 484 498 412 498 314 c 2
 498 141 l 2
 498 89.3333333333 531.333333333 79 554 79 c 0
 599.206896552 79 611 109.035532995 611 176 c 2xbd
 611 423 l 1
 761 423 l 1
 761 176 l 2
 761 60.0209059233 698 -11 553 -11 c 0xbe
 353.256410256 -11 348 87.7184466019 348 153 c 2
 348 308 l 2
 348 342 343 393 292 393 c 0
 237.030291701 393 206 344.96935119 206 267 c 2
 206 0 l 1
 55 0 l 1x7e
EndSplineSet
Validated: 1
EndChar

StartChar: uni0199
Encoding: 465 409 307
GlifName: uni0199
Width: 531
GlyphClass: 2
Flags: MW
HStem: 0 21G<62 62 62 191 362 362 362 514> 452 20G<324 495 495 495> 618 89<285.5 343.5>
VStem: 62 132<338 537 537 538 338 578>
LayerCount: 2
Fore
SplineSet
62 0 m 1
 62 537 l 2
 62 619 102 663 164 686 c 0
 206 701 257 707 314 707 c 0
 382 707 425 693 484 648 c 1
 442 537 l 1
 408 591 374 618 313 618 c 0
 198 618 194 566 194 538 c 2
 194 338 l 1
 324 472 l 1
 495 472 l 1
 321 290 l 1
 514 0 l 1
 362 0 l 1
 230 195 l 1
 191 154 l 1
 191 0 l 1
 62 0 l 1
EndSplineSet
Validated: 1
EndChar

StartChar: uni019A
Encoding: 466 410 308
GlifName: uni019A_
Width: 428
GlyphClass: 2
Flags: MW
HStem: 0 21G<135 283 135 135> 337 88<18 135 18 135 283 400> 666 20G<135 283 283 283>
VStem: 135 148<0 337 0 337 425 686>
LayerCount: 2
Fore
SplineSet
18 337 m 1
 18 425 l 1
 135 425 l 1
 135 686 l 1
 283 686 l 1
 283 425 l 1
 400 425 l 1
 400 337 l 1
 283 337 l 1
 283 0 l 1
 135 0 l 1
 135 337 l 1
 18 337 l 1
EndSplineSet
Validated: 1
EndChar

StartChar: uni019B
Encoding: 467 411 309
GlifName: uni019B_
Width: 581
GlyphClass: 2
Flags: MW
HStem: -12 21G<78 96 96 96> 666 20G<20.5 76.5>
LayerCount: 2
Fore
SplineSet
-32 641 m 0
 -32 685 3 686 38 686 c 0
 115 686 174 680 205 632 c 2
 230 589 l 2
 241 570 247 555 261 532 c 1
 296 552 336 576 370 595 c 1
 432 485 l 1
 323 424 l 1
 523 73 l 2
 536 50 552 23 577 -11 c 1
 508 -11 l 2
 410 -11 396 -9 362 52 c 2
 269 214 l 1
 148 13 155 15 141 5 c 0
 129 -5 114 -12 96 -12 c 1
 96 -12 l 1
 60 -12 17 18 17 61 c 0
 17 85 22 93 83 186 c 1
 83 185 l 1
 100 210 121 241 146 280 c 2
 190 348 l 1
 156 329 116 305 83 288 c 1
 22 397 l 1
 131 459 l 1
 82 557 58 582 56 585 c 0
 34 602 -32 582 -32 641 c 0
EndSplineSet
Validated: 5
EndChar

StartChar: uni019E
Encoding: 468 414 310
GlifName: uni019E_
Width: 531
GlyphClass: 2
Flags: MW
HStem: -160 21G<345 496 345 345> 0 21G<53 53 53 203> 394 84<53 313.5> 463 20G<307.5 419>
VStem: 53 145<404 478 404 478 404 478> 345 151<-160 316 -160 325 -160 345.5>
LayerCount: 2
Fore
SplineSet
53 0 m 1xec
 53 478 l 1
 198 478 l 1xec
 198 404 l 1
 223 441 270 483 345 483 c 0xdc
 493 483 496 394 496 316 c 2
 496 -160 l 1
 345 -160 l 1
 345 325 l 2
 345 366 337 394 290 394 c 0
 231 394 207 332 203 289 c 1
 203 289 l 1
 203 0 l 1
 53 0 l 1xec
EndSplineSet
Validated: 5
EndChar

StartChar: Ohorn
Encoding: 469 416 311
GlifName: O_horn
Width: 794
GlyphClass: 2
Flags: MW
HStem: -21 98<364 422.5 364 524.5> 584 237<501 754> 621 95<314 413.5> 654 20G<607 630 607 607>
VStem: 54 164<331.5 424.5 331.5 439.5> 564 163<322 366.5> 607 147<679 821 679 821 679 821>
LayerCount: 2
Fore
SplineSet
54 340 m 0xac
 54 539 122 716 393 716 c 0xaa
 457 716 542 701 609 654 c 1
 616 661 618 664 630 674 c 1
 607 674 l 1x9a
 607 821 l 1
 754 821 l 1
 754 679 l 1xca
 659 603 l 1
 710 535 727 446 727 344 c 0
 727 152 660 -21 389 -21 c 0
 188 -21 54 80 54 340 c 0xac
218 369 m 0
 218 294 218 211 258 145 c 1
 257 145 l 1
 287 100 337 77 391 77 c 0
 454 77 560 117 564 322 c 0
 564 411 572 518 501 584 c 1xcc
 501 583 l 1
 475 606 436 621 391 621 c 0
 237 621 218 480 218 369 c 0
EndSplineSet
Validated: 33
EndChar

StartChar: ohorn
Encoding: 470 417 312
GlifName: ohorn
Width: 550
GlyphClass: 2
Flags: MW
HStem: -11 94<225.5 312.5 225.5 367.5> 399 84 399 199<221 588> 433 20G<443 465>
VStem: 26 150<199 276 199 297> 363 225<191 598> 443 145<433 598 458 598 458 598 458 598>
LayerCount: 2
Fore
SplineSet
26 230 m 0xaa
 26 364 74 488 269 488 c 0
 293 488 314 486 333 483 c 0xcc
 389 473 423 451 443 433 c 1
 465 453 l 1
 443 453 l 1x9a
 443 598 l 1
 588 598 l 1
 588 458 l 1
 484 377 l 1
 495 355 513 315 513 230 c 0
 513 107 465 -11 270 -11 c 0
 144 -11 26 37 26 230 c 0xaa
176 241 m 0
 176 157 181 83 270 83 c 0
 355 83 363 155 363 227 c 0
 363 290 375 399 269 399 c 0
 173 399 176 311 176 241 c 0
EndSplineSet
Validated: 33
EndChar

StartChar: uni01A5
Encoding: 471 421 313
GlifName: uni01A_5
Width: 531
GlyphClass: 2
Flags: MW
HStem: -160 21G<25 25 25 175> -11 90<264 286 221.5 364.5> 394 89<234 384> 618 89<247.5 343.5>
VStem: 25 150<-160 30 106 171 171 334 334 367> 338 151<189.5 275.5>
LayerCount: 2
Fore
SplineSet
25 -160 m 1
 25 532 l 2
 25 542 25 558 29 575 c 0
 40 627 70 707 301 707 c 0
 418 707 441 670 490 649 c 1
 450 539 l 1
 422 574 384 618 303 618 c 0
 192 618 171 582 171 529 c 0
 171 498 172 467 172 436 c 1
 229 477 284 483 316 483 c 0
 452 483 489 361 489 248 c 0
 489 120 441 -11 288 -11 c 0
 240 -11 204 7 175 30 c 1
 175 -160 l 1
 25 -160 l 1
175 106 m 1
 184 97 203 79 240 79 c 0
 332 79 338 147 338 232 c 0
 338 319 336 394 251 394 c 0
 217 394 197 385 175 367 c 1
 175 334 l 1
 175 171 l 1
 175 106 l 1
EndSplineSet
Validated: 1
EndChar

StartChar: uni01A7
Encoding: 472 423 314
GlifName: uni01A_7
Width: 611
GlyphClass: 2
Flags: MW
HStem: -21 125<243.5 339.5> 534 182<124 293>
VStem: 41 142<172 211 172 261.5> 394 142<499.5 536.5>
LayerCount: 2
Fore
SplineSet
41 203 m 0
 41 318.352112676 101.598384023 388.438345308 190 413 c 2
 272 438 l 2
 341.832787627 457.58724531 394 477 394 522 c 0
 394 551 378 596 290 596 c 0
 189.637783075 596 117.761128563 529.761128563 99 511 c 1
 73 665 l 1
 156 704 207.001191111 716.45262531 293 716 c 0
 483 715 536 613 536 504 c 0
 536 397.02020202 461.752645685 345.931290468 390 326 c 2
 246 286 l 2
 202.398346833 273.888429676 181.886569495 233.24479615 183 189 c 0
 183.855347048 155.0107608 198 104 289 104 c 0
 413.476458121 104 493.965119149 172.021761619 523 198 c 1
 548 51 l 1
 476 9 390 -21 289 -21 c 0
 91 -21 41 90 41 203 c 0
EndSplineSet
Validated: 33
EndChar

StartChar: uni01A8
Encoding: 473 424 315
GlifName: uni01A_8
Width: 422
GlyphClass: 2
Flags: MW
HStem: -11 95<204 204 204 239.5> 400 88<183.5 230>
VStem: 24 180<84 195> 273 115<340.5 377.5>
LayerCount: 2
Fore
SplineSet
24 137 m 0
 24 216.8 70.1269563587 255.839588036 106 270 c 2
 220 315 l 2
 244.352261903 324.612734962 273 338.99233905 273 362 c 0
 273 393 244 400 216 400 c 0
 151 400 111 377 58 338 c 1
 38 453 l 1
 106 481 144 488 207 488 c 0
 308 488 388 460.933333333 388 348 c 4
 388 274.538461538 334.14861591 245.310303824 284 227 c 2
 198 195.599609375 l 2
 165.413142628 183.70146925 139 168.957045438 139 129 c 0
 139 104 155 84 204 84 c 0
 293 84 345 131 375 159 c 1
 395 38 l 1
 333 6 275 -11 204 -11 c 0
 104 -11 24 18.9746835443 24 137 c 0
EndSplineSet
Validated: 1
EndChar

StartChar: uni01AA
Encoding: 474 426 316
GlifName: uni01A_A_
Width: 419
GlyphClass: 2
Flags: MW
HStem: -181 89<322.5 355.5> 469 89<144.5 153 144.5 157 144 153> 617 81
VStem: 10 109<579 596.5 579 614.5> 156 143
LayerCount: 2
Fore
SplineSet
10 588 m 0
 10 641 48 681 102 698 c 0
 120 704 140 707 161 707 c 0
 251 707 287 666 299 614 c 0
 303 597 304 578 304 560 c 2
 304 -38 l 2
 304 -66 309 -92 336 -92 c 0
 400 -92 390 -6 408 -20 c 1
 446 -127 l 1
 411 -166 382 -181 329 -181 c 0
 160 -181 157 -80 157 -30 c 2
 157 469 l 1
 144 469 l 1
 85 473 10 511 10 588 c 0
119 588 m 0
 119 570 138 558 151 558 c 0
 155 558 156 569 156 591 c 0
 156 616 153 617 151 617 c 0
 136 617 119 605 119 588 c 0
EndSplineSet
Validated: 33
EndChar

StartChar: uni01AB
Encoding: 475 427 317
GlifName: uni01A_B_
Width: 435
GlyphClass: 2
Flags: MW
HStem: -181 101 -10 93 384 88<14 80 14 77 223 353> 582 20G<80 223 223 223>
VStem: 80 143<472 602> 247 124<-43 -28 -28 -6 -6 -6>
LayerCount: 2
Fore
SplineSet
14 384 m 1
 14 472 l 1
 80 472 l 1
 80 602 l 1
 223 602 l 1
 223 472 l 1
 353 472 l 1
 353 384 l 1
 223 384 l 1
 223 161 l 2
 223 112 233.615384615 83 292 83 c 0
 341.707865169 83 357.685393258 102 371 118 c 1
 371 -28 l 0
 371 -133.565298283 336.682942117 -181 218 -181 c 0
 156.990825688 -181 117.403669725 -156.618181818 89 -132 c 1
 124 -40 l 1
 137.144037188 -61.5759168104 168.23448607 -92 213 -92 c 0
 245 -92 247 -60 247 -43 c 2
 247 -6 l 1
 229.301268242 -9.21795122867 209.73086385 -11 192 -11 c 0
 101.095238095 -11 77 79.3225806452 77 164 c 2
 77 384 l 1
 14 384 l 1
EndSplineSet
Validated: 1
EndChar

StartChar: uni01AD
Encoding: 476 429 318
GlifName: uni01A_D_
Width: 435
GlyphClass: 2
Flags: MW
HStem: -11 94<131 290.5> 384 88<14 80 14 77 223 354> 540 100
VStem: 80 143<472 480>
LayerCount: 2
Fore
SplineSet
14 384 m 1
 14 472 l 1
 80 472 l 1
 80 481 l 2
 80 578 126 640 269 640 c 0
 334 640 368 620 402 595 c 1
 360 482 l 1
 351 501 336 525 313 540 c 0
 302 547 289 552 273 552 c 0
 222 552 223 503 223 480 c 2
 223 472 l 1
 354 472 l 1
 354 384 l 1
 223 384 l 1
 223 161 l 2
 223 112 230 83 262 83 c 0
 319 83 327 118 352 118 c 1
 374 36 l 1
 315 9 256 -11 183 -11 c 0
 79 -11 78 92 78 146 c 0
 78 150 77 155 77 159 c 2
 77 384 l 1
 14 384 l 1
EndSplineSet
Validated: 33
EndChar

StartChar: Uhorn
Encoding: 477 431 319
GlifName: U_horn
Width: 870
GlyphClass: 2
Flags: MW
HStem: -21 103<318.5 446 318.5 496> 675 20G<84 247 247 247 515 667 667 667> 690 20G<703 703 703 738> 837 20G<703 850 850 850>
VStem: 84 163<249 695> 515 152<235 245 245 695> 703 147<731 857 731 857 731 857>
LayerCount: 2
Fore
SplineSet
84 249 m 2xde
 84 695 l 1
 247 695 l 1
 247 233 l 2
 247 148 258 82 379 82 c 0
 513 82 515 166 515 235 c 2
 515 695 l 1
 667 695 l 1
 667 245 l 2
 667 101 612 -21 380 -21 c 0
 126 -21 84 111 84 249 c 2xde
703 710 m 1xbe
 703 857 l 1
 850 857 l 1
 850 731 l 2
 849 713 849 713 833 688 c 0
 824 673 806 644 783 602 c 1
 699 602 l 1
 738 710 l 1
 703 710 l 1xbe
EndSplineSet
Validated: 1
EndChar

StartChar: uhorn
Encoding: 478 432 320
GlifName: uhorn
Width: 700
GlyphClass: 2
Flags: MW
HStem: -11 21G<135.5 239.5> 0 55<348 495 348 348> 0 67 439 21G<529 613 529 529> 442 20G 452 20G<53 203 203 203 345 495 495 495> 674 20G<533 680 680 680>
VStem: 53 150<134 472 125 472> 64 131 345 150<177 472 0 472> 356 131 504 126 533 147<568 694 568 694 568 694>
LayerCount: 2
Fore
SplineSet
53 134 m 2x8540
 53 472 l 1
 203 472 l 1
 203 125 l 2
 204 82 204 67 254 67 c 0
 294 67 345 95 345 177 c 2
 345 472 l 1
 495 472 l 1
 495 0 l 1
 348 0 l 1x2540
 348 55 l 1
 323 24 276 -11 203 -11 c 0
 68 -11 53 49 53 134 c 2x8540
533 547 m 1x1208
 533 694 l 1
 680 694 l 1
 680 568 l 2
 679 550 679 550 663 525 c 0
 654 510 636 481 613 439 c 1
 529 439 l 1
 568 547 l 1
 533 547 l 1x1208
EndSplineSet
Validated: 1
EndChar

StartChar: uni01B7
Encoding: 479 439 321
GlifName: uni01B_7
Width: 599
GlyphClass: 2
Flags: MW
HStem: -21 95<294 347 276.5 408> 315 75 551 144<38 559>
VStem: 399 160
LayerCount: 2
Fore
SplineSet
37 168 m 1
 189 182 l 1
 200 86 259 74 294 74 c 0
 400 74 399 137 399 189 c 0
 399 271 403 315 275 315 c 1
 275 315 l 1
 178 315 l 1
 178 400 l 1
 379 550 l 1
 38 547 l 1
 38 695 l 1
 559 695 l 1
 559 551 l 1
 348 394 l 1
 348 394 l 1
 364 393 380 392 395 390 c 0
 487 375 562 323 562 189 c 0
 562 98 522 -21 294 -21 c 0
 205 -19 56 -7 37 168 c 1
EndSplineSet
Validated: 37
EndChar

StartChar: uni01B9
Encoding: 480 441 322
GlifName: uni01B_9
Width: 476
GlyphClass: 2
Flags: MW
HStem: -171 89<211.5 285.5> 345 127<430 439>
VStem: 39 147
LayerCount: 2
Fore
SplineSet
39 37 m 0
 39 212 75 254 112 265 c 1
 50 373 40 388 40 404 c 2
 40 406 l 1
 40 409 l 2
 40 412 41 414 41 418 c 2
 41 472 l 1
 439 472 l 1
 439 345 l 1
 421 345 403 346 385 346 c 2
 277 346 l 2
 270 346 263 347 256 347 c 2
 221 347 l 1
 344 135 l 1
 250 135 l 2
 227 135 184 152 184 102 c 0
 184 90 185 76 186 62 c 0
 192 2 172 -82 251 -82 c 0
 328 -82 391 -42 420 -23 c 1
 440 -138 l 1
 388 -155 323 -171 248 -171 c 0
 71 -171 39 -68 39 37 c 0
EndSplineSet
Validated: 33
EndChar

StartChar: uni01BA
Encoding: 481 442 323
GlifName: uni01B_A_
Width: 476
GlyphClass: 2
Flags: MW
HStem: -171 81<233 233 233 310> 347 125<228 245>
VStem: 91 143<-85.5 -80.5 -89 3.5>
LayerCount: 2
Fore
SplineSet
39 345 m 1
 39 472 l 1
 436 472 l 1
 436 439 l 1
 436 406 l 2
 436 385 426 373 393 325 c 2
 356 269 l 1
 431 219 439 153 439 124 c 0
 439 109 436 97 431 86 c 0
 415 52 377 31 337 9 c 0
 238 -48 234 -72 234 -89 c 1
 233 -90 l 1
 251 -85 308 -98 384 -28 c 1
 495 -139 l 1
 430 -156 349 -171 271 -171 c 0
 166 -171 91 -122 91 -49 c 0
 91 56 296 77 296 160 c 0
 296 176 263 177 134 181 c 1
 245 347 l 1
 211 347 171 346 136 346 c 2
 92 346 l 2
 74 346 57 345 39 345 c 1
EndSplineSet
Validated: 1
EndChar

StartChar: uni01BF
Encoding: 482 447 324
GlifName: uni01B_F_
Width: 500
GlyphClass: 2
Flags: MW
HStem: -179 21G<55 55> 385 87<53 281.5> 458 20G<279.5 333>
VStem: 53 151<336 366 336 472 336 472> 307 151<266 290 290 290>
LayerCount: 2
Fore
SplineSet
54 -10 m 2xb8
 54 197 l 2
 54 205 53 213 53 221 c 2
 53 472 l 1
 201 472 l 1xd8
 201 454 l 1
 216 459 l 2
 264 476 268 478 291 478 c 0
 375 478 458 398 458 278 c 0
 458 130 360 56 232 19 c 2
 202 11 l 1
 202 -93 l 2
 202 -109 201 -125 201 -141 c 1
 55 -179 l 1
 55 -34 l 2
 55 -26 54 -18 54 -10 c 2xb8
202 101 m 1
 282 119 292 125 299 153 c 1
 299 152 l 1
 307 185 307 226 307 266 c 2
 307 290 l 2
 305 328 298 385 265 385 c 0
 255 385 230 375 204 366 c 1
 204 306 203 248 203 189 c 2
 203 125 l 2
 203 117 202 109 202 101 c 1
EndSplineSet
Validated: 1
EndChar

StartChar: uni01C0
Encoding: 483 448 325
GlifName: uni01C_0
Width: 306
GlyphClass: 2
Flags: MW
HStem: -162 21G<74 74 74 227> 675 20G<74 227 227 227>
VStem: 74 153<-162 695 -162 695>
LayerCount: 2
Fore
SplineSet
74 -162 m 1
 74 695 l 1
 227 695 l 1
 227 -162 l 1
 74 -162 l 1
EndSplineSet
Validated: 1
EndChar

StartChar: uni01C1
Encoding: 484 449 326
GlifName: uni01C_1
Width: 489
GlyphClass: 2
Flags: MW
HStem: -162 21G<71 71 71 218 261 408 261 261> 675 20G<71 218 218 218 261 408 408 408>
VStem: 71 147<-162 695 -162 695> 261 147<-162 695 -162 695>
LayerCount: 2
Fore
SplineSet
71 -162 m 1
 71 695 l 1
 218 695 l 1
 218 -162 l 1
 71 -162 l 1
261 -162 m 1
 261 695 l 1
 408 695 l 1
 408 -162 l 1
 261 -162 l 1
EndSplineSet
Validated: 1
EndChar

StartChar: uni01C2
Encoding: 485 450 327
GlifName: uni01C_2
Width: 611
GlyphClass: 2
Flags: MW
HStem: -162 21G<224 376 224 224> 132 101<53 224 53 224 376 548> 258 102<53 224 53 224 376 548> 675 20G<224 376 376 376>
VStem: 224 152<-162 132 -162 132 233 258 -162 258 360 695>
LayerCount: 2
Fore
SplineSet
53 132 m 1
 53 233 l 1
 224 233 l 1
 224 258 l 1
 53 258 l 1
 53 360 l 1
 224 360 l 1
 224 695 l 1
 376 695 l 1
 376 360 l 1
 548 360 l 1
 548 258 l 1
 376 258 l 1
 376 233 l 1
 548 233 l 1
 548 132 l 1
 376 132 l 1
 376 -162 l 1
 224 -162 l 1
 224 132 l 1
 53 132 l 1
EndSplineSet
Validated: 1
EndChar

StartChar: uni01C3
Encoding: 486 451 328
GlifName: uni01C_3
Width: 367
GlyphClass: 2
Flags: MW
HStem: 0 147<107 253 107 253> 675 20G<107 253 253 253>
VStem: 107 146<0 147 0 147>
LayerCount: 2
Fore
SplineSet
107 695 m 1
 253 695 l 1
 241 211 l 1
 119 211 l 1
 107 695 l 1
107 0 m 1
 107 147 l 1
 253 147 l 1
 253 0 l 1
 107 0 l 1
EndSplineSet
Validated: 1
EndChar

StartChar: uni01DD
Encoding: 504 477 346
GlifName: uni01D_D_
Width: 511
GlyphClass: 2
Flags: MW
HStem: -11 90<211 266.5 211 296> 167 71<153 153 153 326> 399 89<175.5 252>
VStem: 39 114 332 142<238 238>
LayerCount: 2
Fore
SplineSet
24 238 m 1
 332 238 l 1
 329 353 287 399 217 399 c 0
 133 399 68 348 39 326 c 1
 30 437 l 1
 66 457 128 488 223 488 c 0
 351 488 474 438 474 238 c 0
 474 39 357 -11 235 -11 c 0
 46 -11 24 124 24 238 c 1
153 167 m 1
 159 117 187 79 235 79 c 0
 298 79 321 138 326 167 c 1
 153 167 l 1
EndSplineSet
Validated: 1
EndChar

StartChar: uni0221
Encoding: 553 545 395
GlifName: uni0221
Width: 622
GlyphClass: 2
Flags: MW
HStem: -120 21G<149 303 149 149> -22 88<519 525.5 519 558> -5 21G 108 94<520 573> 394 89<227 244 180.5 298> 666 20G<349 495 495 495>
VStem: 32 151<220 254.5 150.5 347> 346 149<193 371 371 371> 536 124<79 91>
LayerCount: 2
Fore
SplineSet
32 248 m 0xbf80
 32 446 143 483 218 483 c 0
 270 483 314 464 349 440 c 1
 349 686 l 1
 495 686 l 1
 495 193 l 1
 510 198 525 202 542 202 c 0
 604 202 660 151 660 83 c 0
 660 20 597 -22 519 -22 c 0xdf80
 451 -22 410 7 393 19 c 1
 363 -15 346 -38 303 -120 c 1
 149 -120 l 1
 174 -72 195 -38 216 -11 c 1
 201 -11 185 -9 170 -5 c 0
 27 28 32 192 32 248 c 0xbf80
183 218 m 0
 183 83 223 79 270 79 c 1
 270 79 l 1
 297 79 308 85 346 113 c 1
 346 371 l 1
 336 379 315 394 281 394 c 0
 173 394 183 291 183 218 c 0
497 100 m 1
 503 69 517 66 521 66 c 0
 530 66 536 73 536 85 c 0
 536 97 532 109 525 109 c 0
 524 109 522 108 520 108 c 0
 514 107 506 104 497 100 c 1
EndSplineSet
Validated: 37
EndChar

StartChar: uni0225
Encoding: 554 549 396
GlifName: uni0225
Width: 538
GlyphClass: 2
Flags: MW
HStem: -163 89<348.5 366.5 348 400> 0 103<223 245 245 252> 383 89<207 240>
LayerCount: 2
Fore
SplineSet
25 0 m 1
 25 34 l 2
 25 72 34.1536465139 81.894961656 52 108 c 2
 240 383 l 1
 174 383 103 381 39 381 c 1
 39 472 l 1
 437 472 l 1
 435 415 l 1
 223 103 l 1
 335 103 l 2
 473.391646351 103 519 45.5255195553 519 -23 c 0
 519 -122.272727273 434 -163 366 -163 c 0
 331 -163 296 -153 265 -143 c 1
 279 -56 l 1
 315 -68 340 -74 356 -74 c 0
 377 -74 385 -60.7142857143 385 -43 c 0
 385 -4.05660377358 335.69924812 -4.77395900589e-015 302 0 c 6
 25 0 l 1
EndSplineSet
Validated: 1
EndChar

StartChar: uni0235
Encoding: 561 565 403
GlifName: uni0235
Width: 622
GlyphClass: 2
Flags: MW
HStem: -120 21G<165 318 165 165> -22 88<518 524.5 518 558> 0 21G<54 54 54 205> 109 93<524 579> 394 84<54 318.5> 463 20G<309 420.5>
VStem: 54 145<404 478 404 478 404 478> 347 151<110 318 193 318 193 319 193 336> 536 124<77.5 89.5>
LayerCount: 2
Fore
SplineSet
54 0 m 1xbb80
 54 478 l 1
 199 478 l 1xbb80
 199 404 l 1
 225 441 271 483 347 483 c 0
 494 483 498 396 498 318 c 2
 498 193 l 1
 511 198 527 202 544 202 c 0
 614 202 660 141 660 83 c 0
 660 20 597 -22 519 -22 c 0xd780
 473 -22 434 -8 400 15 c 1
 363 -35 350 -57 318 -120 c 1
 165 -120 l 1
 208 -35 271 56 347 110 c 1
 346 120 347 130 347 140 c 2
 347 319 l 2
 347 353 346 394 291 394 c 0
 233 394 209 332 205 288 c 1
 205 288 l 1
 205 0 l 1
 54 0 l 1xbb80
500 98 m 1
 503 76 514 66 522 66 c 0xdb80
 527 66 536 70 536 85 c 0
 536 94 534 109 526 109 c 0
 522 109 510 103 500 98 c 1
EndSplineSet
Validated: 5
EndChar

StartChar: uni0236
Encoding: 562 566 404
GlifName: uni0236
Width: 404
GlyphClass: 2
Flags: MW
HStem: -120 21G<-62 -62 -62 77> -21 94<187 267> 100 91 384 88<14 78 14 81 223 354> 582 20G<81 223 223 223>
VStem: 78 145<187 384 187 384 187 384>
LayerCount: 2
Fore
SplineSet
-62 -120 m 1
 -65 -116 -68 -111 -71 -107 c 0
 -67 -90 -45 19 78 111 c 1
 78 384 l 1
 14 384 l 1
 14 472 l 1
 81 472 l 1
 81 602 l 1
 223 602 l 1
 223 472 l 1
 354 472 l 1
 354 384 l 1
 223 384 l 1
 223 187 l 1
 240 193 258 196 279 196 c 0
 293 196 306 194 319 191 c 0
 369 178 404 142 404 93 c 0
 404 -3 280 -21 209 -21 c 0
 165 -21 141 -12 125 -3 c 1
 107 -32 92 -63 77 -120 c 1
 -62 -120 l 1
229 88 m 1
 234 80 243 73 261 73 c 0
 273 73 277 80 279 86 c 0
 279 87 280 89 280 90 c 0
 280 96 275 100 266 100 c 0
 254 100 239 93 229 88 c 1
EndSplineSet
Validated: 1
EndChar

StartChar: uni0237
Encoding: 563 567 405
GlifName: uni0237
Width: 286
GlyphClass: 2
Flags: MW
HStem: -171 101<48 51.5 16 155.5> 452 20G<80 228 228 228>
VStem: 80 148<-23 472 -23 472 -23 472>
LayerCount: 2
Fore
SplineSet
-78 -137 m 1
 -45 -51 l 1
 -16 -64 3 -70 29 -70 c 0
 74 -70 80 -58 80 -43 c 2
 80 472 l 1
 228 472 l 1
 228 -23 l 2
 226 -73 234 -171 77 -171 c 0
 19 -171 -32 -156 -78 -137 c 1
EndSplineSet
Validated: 1
EndChar

StartChar: uni0238
Encoding: 564 568 406
GlifName: uni0238
Width: 917
GlyphClass: 2
Flags: MW
HStem: -11 90<240 257.5 614.5 651.5> 0 21G<375 524 375 375> 394 89<237 256 129.5 310 637.5 655> 666 20G<375 522 522 522>
VStem: 34 151<182 224> 372 152<159 330> 712 150<198 273.5>
LayerCount: 2
Fore
SplineSet
34 224 m 0xbe
 35 298 40 483 227 483 c 0
 285 483 333 465 374 436 c 1
 374 686 l 1
 524 686 l 1
 524 436 l 1
 561 461 607 483 670 483 c 0
 825 483 863 365 863 237 c 0
 863 39 752 -11 641 -11 c 0xbe
 590 -11 556 4 524 31 c 1
 524 0 l 1
 374 0 l 1x7e
 374 47 l 1
 335 14 289 -11 226 -11 c 0
 72 -11 34 117 34 224 c 0xbe
185 224 m 0
 185 140 196 79 284 79 c 0
 373 79 374 128 374 159 c 2
 374 367 l 1
 349 386 326 394 294 394 c 0
 188 394 185 299 185 224 c 0
524 106 m 1
 543 87 564 79 593 79 c 0
 712 79 713 167 713 229 c 0
 713 318 709 394 603 394 c 0
 559 394 524 384 524 330 c 2
 524 106 l 1
EndSplineSet
Validated: 1
EndChar

StartChar: uni0239
Encoding: 565 569 407
GlifName: uni0239
Width: 917
GlyphClass: 2
Flags: MW
HStem: -160 21G<372 522 372 372> -11 90<241 263> 389 94<236.5 271 178.5 315.5 643.5 650>
VStem: 34 151<207 251 204.5 324.5> 375 147<180 181 181 319 319 325 434 483> 712 150<222 260.5>
LayerCount: 2
Fore
SplineSet
34 236 m 0
 34 413 117 483 240 483 c 0
 302 483 342 459 375 421 c 1
 375 483 l 1
 522 483 l 1
 522 434 l 1
 563 462 611 483 676 483 c 0
 825 483 862 366 862 238 c 0
 862 59 773 -11 641 -11 c 0
 588 -11 554 4 522 33 c 1
 522 -160 l 1
 372 -160 l 1
 372 44 l 1
 336 10 296 -11 230 -11 c 0
 83.4892202562 -11 34 118.06603862 34 236 c 0
185 244 m 0
 185 165 197 79 285 79 c 0
 371 79 375 132 375 180 c 2
 375 319 l 2
 375 357 338 389 293 389 c 0
 195 389 185 258 185 244 c 0
522 109 m 1
 532 99 552 79 590 79 c 0
 639 79 708 99 712 222 c 0
 712 299 700 389 600 389 c 0
 554 389 522 376 522 325 c 0
 522 253 522 181 522 109 c 1
EndSplineSet
Validated: 1
EndChar

StartChar: uni0250
Encoding: 566 592 408
GlifName: uni0250
Width: 525
GlyphClass: 2
Flags: MW
HStem: -16 83<232.5 293> 195 58<203 237.5> 393 79<53 303.5> 463 20G<318.5 389>
VStem: 53 149<313.5 347 313.5 472 313.5 472> 343 145<305 352>
LayerCount: 2
Fore
SplineSet
53 160 m 2xdc
 53 472 l 1
 200 472 l 1xec
 200 424 l 1
 238 462 292 483 345 483 c 0
 433 483 488 410 488 339 c 0
 488 206 272 195 203 195 c 1
 203 157 l 2
 203 123 203 67 262 67 c 0
 342 67 386 108 409 132 c 2
 430 153 l 1
 438 29 l 1
 375 -3 328 -16 258 -16 c 0
 100 -16 53 55 53 160 c 2xdc
202 316 m 0
 202 311 203 305 203 301 c 2
 203 253 l 1
 262 259 343 273 343 337 c 0
 343 367 320 393 287 393 c 0
 259 393 202 378 202 316 c 0
EndSplineSet
Validated: 1
EndChar

StartChar: uni0251
Encoding: 567 593 409
GlifName: uni0251
Width: 561
GlyphClass: 2
Flags: MW
HStem: -11 21G<188.5 244> 0 18<343 494 343 343> 394 89<231.5 244 194.5 292>
VStem: 30 151<231 274.5 231 277> 343 151<0 18 18 37 37 37 155 371 371 371>
LayerCount: 2
Fore
SplineSet
30 238 m 0xb8
 30 316 43 396 100 444 c 1
 99 444 l 1
 131 471 173 483 216 483 c 0
 272 483 312 466 346 441 c 1
 346 483 l 1
 494 483 l 1
 494 0 l 1
 343 0 l 1
 343 18 l 1x78
 343 37 l 1
 309 7 272 -11 216 -11 c 0
 161 -11 30 10 30 238 c 0xb8
181 231 m 0
 180 226 180 221 180 214 c 0
 180 151 191 78 267 78 c 0
 358 78 343 133 343 155 c 2
 343 371 l 1
 322 387 305 394 279 394 c 0
 184 394 181 318 181 231 c 0
EndSplineSet
Validated: 33
EndChar

StartChar: uni0252
Encoding: 568 594 410
GlifName: uni0252
Width: 561
GlyphClass: 2
Flags: MW
HStem: -11 90<292.5 314.5 250.5 364.5> 0 21G<54 54 54 204> 394 84<54 325.5> 463 20G<315.5 430>
VStem: 54 150<0 30 106 171 171 334 334 367> 367 150<190 246 138.5 269>
LayerCount: 2
Fore
SplineSet
54 0 m 1x6c
 54 478 l 1
 202 478 l 1x6c
 202 437 l 1
 238 463 285 483 346 483 c 0
 514 483 516 303 517 246 c 0
 517 31 411 -11 318 -11 c 0x9c
 267 -11 234 4 204 30 c 1
 204 0 l 1
 54 0 l 1x6c
204 106 m 1
 213 97 232 79 269 79 c 0xac
 360 79 367 148 367 232 c 0
 367 306 372 394 279 394 c 0
 247 394 227 385 204 367 c 1
 204 334 l 1
 204 171 l 1
 204 106 l 1
EndSplineSet
Validated: 33
EndChar

StartChar: uni0253
Encoding: 569 595 411
GlifName: uni0253
Width: 611
GlyphClass: 2
Flags: MW
HStem: -11 90<334.5 361 285 421.5> 0 21G<79 79 79 229> 394 89<355 360> 618 89<309 400>
VStem: 79 150<0 37 111 175 175 333 333 365> 416 151<203.5 292>
LayerCount: 2
Fore
SplineSet
79 0 m 1x7c
 79 512 l 2
 79 672 215 707 354 707 c 0
 449 707 493 681 544 642 c 1
 505 531 l 1
 475 571 440 618 360 618 c 0
 258 618 226 577 226 514 c 2
 226 432 l 1
 268 460 320 483 390 483 c 0
 531 483 567 366 567 235 c 0
 567 59 483 -11 360 -11 c 0xbc
 309 -11 266 6 229 37 c 1
 229 0 l 1
 79 0 l 1x7c
229 111 m 1x7c
 239 101 263 79 307 79 c 0xbc
 415 79 416 164 416 243 c 0
 416 341 402 394 318 394 c 0
 279 394 253 382 229 365 c 1
 229 111 l 1x7c
EndSplineSet
Validated: 1
EndChar

StartChar: uni0254
Encoding: 570 596 412
GlifName: uni0254
Width: 489
GlyphClass: 2
Flags: MW
HStem: -16 94<161.5 250.5 159.5 270.5> 389 94<172 245.5>
VStem: 297 150<198 276>
LayerCount: 2
Fore
SplineSet
24 435 m 1
 77.7982459449 467.278947567 135.801993179 483 208 483 c 0
 396 483 447 366 447 236 c 0
 447 36 336 -16 205 -16 c 0
 118 -16 85 2 29 35 c 1
 48 151 l 1
 86 109 115 78 204 78 c 0
 297 78 297 166 297 230 c 0
 297 322 286 389 205 389 c 0
 121 389 62 341 33 317 c 1
 24 435 l 1
EndSplineSet
EndChar

StartChar: uni0255
Encoding: 571 597 413
GlifName: uni0255
Width: 489
GlyphClass: 2
Flags: MW
HStem: -120 21G<12 12 12 104> -11 94<263.5 300 263.5 322> 136 89<307 321.5> 394 94<228 310.5 208 317>
VStem: 30 149<216.5 276.5 216.5 337.5> 344 115<115 115>
LayerCount: 2
Fore
SplineSet
12 -120 m 1
 53 -44 l 1
 103 39 l 1
 73 64 30 114 30 237 c 0
 30 438 144 488 272 488 c 0
 349 488 383 477 448 443 c 1
 429 330 l 1
 384 362 361 394 273 394 c 0
 183 394 179 316 179 237 c 0
 179 196 181 178 184 162 c 1
 219 199 257 225 320 225 c 0
 398 225 459 182 459 116 c 0
 459 40 378 -11 266 -11 c 0
 217 -11 195 -4 179 1 c 1
 148 -50 127 -72 104 -120 c 1
 12 -120 l 1
236 88 m 1
 247 84 256 83 271 83 c 0
 329 83 343 99 344 115 c 0
 343 131 328 136 315 136 c 0
 299 136 268 130 236 88 c 1
EndSplineSet
Validated: 1
EndChar

StartChar: uni0256
Encoding: 572 598 414
GlifName: uni0256
Width: 586
GlyphClass: 2
Flags: MW
HStem: -127 86 -11 90<237.5 254.5> 394 89<235 254 128.5 308> 666 20G<373 519 519 519>
VStem: 32 151<182 229> 370 149<22.5 44 168 367 367 367>
LayerCount: 2
Fore
SplineSet
32 229 m 0
 33 297 32 483 225 483 c 0
 283 483 331 465 373 436 c 1
 373 686 l 1
 519 686 l 1
 519 -38 l 2
 519 -60 520.258064516 -92 558 -92 c 0
 604.186253511 -92 625.324675325 -62.6166666667 630 -51 c 1
 664 -136 l 1
 636 -156 597.333333333 -181 544 -181 c 0
 439 -181 392.13633204 -144.704428548 376 -85 c 0
 366 -48 370 1 370 44 c 1
 333 12 285 -11 224 -11 c 0
 69 -11 30.3531192465 117.012108763 32 229 c 0
183 224 m 0
 183 140 193 79 282 79 c 0
 377 79 370 129 370 168 c 2
 370 367 l 1
 345 386 324 394 292 394 c 0
 178 394 183 299 183 224 c 0
EndSplineSet
Validated: 33
EndChar

StartChar: uni0257
Encoding: 573 599 415
GlifName: uni0257
Width: 561
GlyphClass: 2
Flags: MW
HStem: -11 21G<187 245.5> 0 18<345 496 345 345> 394 89<233.5 245.5 145 294> 618 89<549.5 576.5>
VStem: 32 151<231 274.5 231 297.5> 345 151<0 18 18 37 37 37 155 371 371 371 442 518 0 573.5 0 518>
LayerCount: 2
Fore
SplineSet
32 237 m 0xbc
 32 358 72 483 218 483 c 0
 273 483 312 465 345 442 c 1
 345 518 l 1
 345 518 l 1
 345 629 396 707 557 707 c 0
 632 707 651 668 666 648 c 1
 622 527 l 1
 610 579 592 618 561 618 c 0
 538 618 496 595 496 518 c 2
 496 0 l 1
 345 0 l 1
 345 18 l 1x7c
 345 37 l 1
 310 7 274 -11 217 -11 c 0
 157 -11 32 10 32 237 c 0xbc
183 231 m 0
 182 226 182 221 182 214 c 0
 182 151 193 78 269 78 c 0
 360 78 345 133 345 155 c 2
 345 371 l 1
 324 387 307 394 281 394 c 0
 186 394 183 318 183 231 c 0
EndSplineSet
Validated: 37
EndChar

StartChar: uni0258
Encoding: 574 600 416
GlifName: uni0258
Width: 511
GlyphClass: 2
Flags: MW
HStem: -11 90<180 271 180 323.5> 240 71<155 327 155 332> 399 89<219 266>
VStem: 332 142<211.5 240>
LayerCount: 2
Fore
SplineSet
24 249 m 1
 24 389 67 488 235 488 c 0
 357 488 474 440 474 242 c 0
 474 110 424 -11 223 -11 c 0
 128 -11 66 21 30 40 c 1
 39 153 l 1
 84 116 144 79 216 79 c 0
 326 79 332 183 332 240 c 1
 34 240 l 1
 24 249 l 1
155 311 m 1
 327 311 l 1
 319 342 297 399 235 399 c 0
 203 399 164 389 155 311 c 1
EndSplineSet
Validated: 1
EndChar

StartChar: uni0259
Encoding: 575 601 417
GlifName: uni0259
Width: 511
GlyphClass: 2
Flags: MW
HStem: -16 89<197.5 273 197.5 301> 161 71<131 131 131 343> 394 89<187 267.5>
VStem: 39 92 350 142<232 277>
LayerCount: 2
Fore
SplineSet
0 232 m 1
 350 232 l 1
 350 322 316 394 219 394 c 0
 146 394 90 359 39 319 c 1
 30 433 l 1
 88 462 148 483 226 483 c 0
 362 483 492 433 492 232 c 0
 492 34 368 -16 234 -16 c 0
 47 -16 0 88 0 232 c 1
131 161 m 1
 136 127 160 73 235 73 c 0
 311 73 334 130 343 161 c 1
 131 161 l 1
EndSplineSet
Validated: 1
EndChar

StartChar: uni025A
Encoding: 576 602 418
GlifName: uni025A_
Width: 703
GlyphClass: 2
Flags: MW
HStem: -16 89<193.5 227 193.5 294.5> 214 90<551.5 566 551.5 614> 394 89<168 210.5>
VStem: 41 129 295 146 446 98<337 337 337 387 387 387>
LayerCount: 2
Fore
SplineSet
20 164 m 1
 262 368 l 1
 246 383 228 394 193 394 c 0
 128 394 78 354 41 318 c 1
 32 432 l 1
 84 464 136 483 200 483 c 0
 284 483 332 456 352 442 c 1
 367 455 384 471 399 483 c 1
 544 483 l 1
 544 336 l 2
 544 328 543 304 560 304 c 0
 572 304 590 312 594 336 c 1
 691 333 l 1
 688 301 671 214 557 214 c 0
 516 214 446 238 446 337 c 1
 446 337 l 1
 446 387 l 1
 418 363 l 1
 425 344 441 303 441 233 c 0
 441 83 380 -16 209 -16 c 0
 58 -16 21 59 20 164 c 1
170 154 m 1
 170 114 175 73 212 73 c 0
 242 73 283 90 295 170 c 0
 298 186 299 205 299 227 c 0
 299 246 300 245 298 263 c 1
 170 154 l 1
EndSplineSet
Validated: 37
EndChar

StartChar: uni025B
Encoding: 577 603 419
GlifName: uni025B_
Width: 458
GlyphClass: 2
Flags: MW
HStem: -11 95<239.5 271> 224 71<248.5 254 254 281 248.5 324> 400 88<225 275.5 182.5 282>
VStem: 30 156<86 368.5> 41 145<328 368.5 322.5 412.5>
LayerCount: 2
Fore
SplineSet
30 151 m 0xe8
 30 212 71 245 99 260 c 1
 68 277 41 305 41 351 c 0
 41 474 134 488 231 488 c 0
 320 488 344 484 419 443 c 1
 399 326 l 1
 376 348 l 2
 344 378 321 400 243 400 c 0
 207 400 186 389 186 348 c 0
 186 297 225 295 272 295 c 0
 290 295 298 296 324 293 c 1
 324 224 l 1
 254 224 l 2
 208 224 177 212 177 154 c 0
 177 98 221 84 258 84 c 0
 332 84 396 143 413 157 c 1
 425 37 l 1
 356 0 302 -11 240 -11 c 0
 128 -11 30 21 30 151 c 0xe8
EndSplineSet
Validated: 33
EndChar

StartChar: uni025C
Encoding: 578 604 420
GlifName: uni025C_
Width: 519
GlyphClass: 2
Flags: MW
HStem: -21 110<210 269 210 329> 210 88<200 216 200 236 200 216> 389 105<205.5 259>
VStem: 302 151<324 366.5> 317 136 317 149
LayerCount: 2
Fore
SplineSet
38 51 m 5xe4
 58 166 l 1
 118 115 174 89 246 89 c 0
 292 89 317 101 317 151 c 0xe8
 317 202 282 210 236 210 c 2
 200 210 l 1
 200 298 l 1
 236 298 l 2
 255.186046512 298 302 300 302 348 c 0
 302 385 272 389 246 389 c 0
 158 389 103 340 71 310 c 1
 52 421 l 1
 105 464 164 494 247 494 c 0
 426 494 453 405 453 346 c 0xf0
 453 295 424 267 397 250 c 1
 448 226 468 187 468 147 c 0
 468 57.1786297893 421.963768143 -21 247 -21 c 0
 164 -21 97 6 38 51 c 5xe4
EndSplineSet
Validated: 1
EndChar

StartChar: uni025D
Encoding: 579 605 421
GlifName: uni025D_
Width: 703
GlyphClass: 2
Flags: MW
HStem: -21 110<212.5 270 212.5 335> 210 88<199 239 199 203> 326 168<92 296.5> 463 20G<548 622 622 622>
VStem: 304 152<319.5 345 345 358 319.5 366.5> 320 149 524 207<339 339 339 402 339 402> 532 90<482 482>
LayerCount: 2
Fore
SplineSet
41 51 m 1xe5
 61 166 l 1
 121 115 176 89 249 89 c 0
 291 89 320 101 320 148 c 0xe5
 320 200 292 210 239 210 c 2
 203 210 l 1
 203 298 l 1
 195 298 304 286 304 348 c 0
 304 385 276 389 249 389 c 0
 165 389 119 348 92 325 c 1
 92 326 l 1
 86 320 80 315 74 309 c 1
 55 421 l 1
 105 462 165 494 250 494 c 0xe9
 343 494 405 469 437 420 c 1
 532 482 l 2
 537 482 543 483 548 483 c 2
 622 483 l 1
 622 345 l 2xd9
 622 325 622 323 627 318 c 0
 630 319 630 319 634 339 c 1
 731 339 l 1
 721 239 655 226 627 226 c 0
 593 226 524 248 524 337 c 2
 524 402 l 1
 456 358 l 1
 456 345 l 2xea
 456 294 425 267 399 250 c 1
 450 226 470 187 470 147 c 0
 470 140 470 132 469 124 c 0
 462 59 420 -21 250 -21 c 0
 166 -21 100 6 41 51 c 1xe5
EndSplineSet
Validated: 37
EndChar

StartChar: uni025E
Encoding: 580 606 422
GlifName: uni025E_
Width: 550
GlyphClass: 2
Flags: MW
HStem: -21 109<209 297 209 364> 210 88<230 246 246 257.5 230 258 230 246> 389 105<219.5 282.5>
VStem: 25 97<221.5 285 221.5 309> 332 151<323 364> 346 137 346 152<131.5 175 113.5 177.5>
LayerCount: 2
Fore
SplineSet
25 248 m 0xf2
 25 370 114 494 263 494 c 0
 454 494 483 405 483 345 c 0xf8
 483 294 452 266 425 249 c 1
 460 233 498 203 498 147 c 0
 498 80 465 -21 263 -21 c 0
 107 -21 25 119 25 248 c 0xf2
122 248 m 0
 122 195 152 88 266 88 c 0
 328 88 346 113 346 150 c 0xf4
 346 205 299 210 258 210 c 2
 230 210 l 1
 230 298 l 1
 246 298 l 2
 269 298 332 300 332 346 c 0
 332 382 302 389 263 389 c 0
 176 389 122 322 122 248 c 0
EndSplineSet
Validated: 1
EndChar

StartChar: uni025F
Encoding: 581 607 423
GlifName: uni025F_
Width: 336
GlyphClass: 2
Flags: MW
HStem: -171 101<42 160.5> 193 89<3 106 3 106 253 342> 452 20G<106 253 253 253>
VStem: 106 147<-43 -36 -36 193 282 472>
LayerCount: 2
Fore
SplineSet
-53 -138 m 1
 -19 -51 l 1
 10 -64 29 -70 55 -70 c 0
 103 -70 106 -56 106 -43 c 2
 106 193 l 1
 3 193 l 1
 3 282 l 1
 106 282 l 1
 106 472 l 1
 253 472 l 1
 253 282 l 1
 342 282 l 1
 342 193 l 1
 253 193 l 1
 253 -36 l 2
 253 -116 220 -171 101 -171 c 0
 57 -171 7 -162 -53 -138 c 1
EndSplineSet
Validated: 1
EndChar

StartChar: uni0260
Encoding: 582 608 424
GlifName: uni0260
Width: 586
GlyphClass: 2
Flags: MW
HStem: -182 89<230 306 222 357.5> 24 88<234.5 254.5> 394 89<261 261.5 175.5 298> 540 100
VStem: 32 151<205 306 205 325> 347 148<249 501 327 501 467.5 489 489 501 467.5 534>
LayerCount: 2
Fore
SplineSet
32 237 m 0
 32 413 115 483 236 483 c 0
 287 483 319 465 347 435 c 1
 347 489 l 2
 347 579 396 640 546 640 c 0
 610 640 639 616 667 582 c 1
 624 463 l 1
 613 497 601 525 582 540 c 0
 573 547 562 551 549 551 c 0
 497 551 495 512 495 490 c 0
 495 445 496 399 496 354 c 2
 496 19 l 2
 496 -101 446 -182 269 -182 c 0
 191 -182 138 -166 71 -130 c 1
 71 -16 l 1
 126 -58 178 -93 266 -93 c 0
 346 -93 346 -18 346 20 c 2
 346 89 l 1
 322 53 283 24 226 24 c 0
 129 24 32 66 32 237 c 0
183 238 m 0
 183 172 200 112 269 112 c 0
 333 112 345 191 347 249 c 2
 347 327 l 2
 347 329 348 332 348 335 c 0
 348 368 315 394 281 394 c 0
 241 394 183 374 183 238 c 0
EndSplineSet
Validated: 1
EndChar

StartChar: uni0261
Encoding: 583 609 425
GlifName: uni0261
Width: 561
GlyphClass: 2
Flags: MW
HStem: -182 89<228 305.5 219.5 348> 23 89<229 253.5> 394 89<249.5 259.5 143 317>
VStem: 30 151<210.5 285> 346 148<249 310 310 316.5 434 483>
LayerCount: 2
Fore
SplineSet
30 236 m 0
 30 334 52 483 234 483 c 0
 285 483 318 463 346 434 c 1
 346 483 l 1
 494 483 l 1
 494 33 l 2
 494 -92 427 -182 269 -182 c 0
 187 -182 134 -165 69 -130 c 1
 69 -16 l 1
 124 -58 175 -93 264 -93 c 0
 347 -93 343 -14 343 26 c 2
 343 88 l 1
 319 54 282 23 225 23 c 0
 128 23 30 66 30 236 c 0
181 238 m 0
 181 183 192 112 266 112 c 0
 334 112 346 211 346 249 c 2
 346 310 l 2
 346 323 355 394 279 394 c 0
 220 394 181 351 181 238 c 0
EndSplineSet
Validated: 33
EndChar

StartChar: uni0262
Encoding: 584 610 426
GlifName: uni0262
Width: 613
GlyphClass: 2
Flags: MW
HStem: -15 98<285.5 355 285.5 381.5> 113 105<338 389 338 540> 389 98<285 380.5 270 392.5>
VStem: 50 151<201 270 201 336> 389 151<85 113 113 113>
LayerCount: 2
Fore
SplineSet
50 235 m 0
 50 437 192 487 348 487 c 0
 413 487 459 479 533 452 c 1
 509 310 l 1
 488 334 437 389 348 389 c 0
 222 389 201 304 201 236 c 0
 201 166 223 83 348 83 c 0
 362 83 375 83 389 85 c 1
 389 113 l 1
 338 113 l 1
 338 218 l 1
 540 218 l 1
 540 21 l 1
 481 0 418 -15 345 -15 c 0
 134 -15 50 85 50 235 c 0
EndSplineSet
Validated: 1
EndChar

StartChar: uni0263
Encoding: 585 611 427
GlifName: uni0263
Width: 500
GlyphClass: 2
Flags: MW
HStem: -181 21G<207.5 278.5> -51 21G<247 247> 452 20G<7 146 146 146 347 482 482 482>
VStem: 119 115<-78.5 -70.5 -78.5 -47.5> 255 118<-79 -71.5>
LayerCount: 2
Fore
SplineSet
7 472 m 1
 146 472 l 1
 246 178 l 1
 347 472 l 1
 482 472 l 1
 336 43 l 1
 358 16 373 -14 373 -54 c 0
 373 -127 312 -181 245 -181 c 0
 170 -181 119 -119 119 -55 c 0
 119 -40 118 -6 155 39 c 1
 107 180 54 332 7 472 c 1
234 -76 m 0
 234 -81 236 -83 239 -90 c 0
 240 -91 243 -92 244 -92 c 0
 253 -92 255 -83 255 -75 c 0
 255 -68 251 -59 247 -51 c 2
 245 -46 l 1
 238 -56 234 -65 234 -76 c 0
EndSplineSet
Validated: 33
EndChar

StartChar: uni0264
Encoding: 586 612 428
GlifName: uni0264
Width: 581
GlyphClass: 2
Flags: MW
HStem: -21 89<282 284 282 329> 404 84
VStem: 136 130<83 101 83 127.5> 303 129<86 107.5>
LayerCount: 2
Fore
SplineSet
1 352 m 2
 -2 355 -4 359 -7 362 c 0
 -5 430 38 473 88 488 c 0
 101 492 114 494 127 494 c 0
 205 494 257 424 284 382 c 1
 327 453 378 494 442 494 c 0
 511 494 572 439 576 353 c 1
 441 330 l 1
 442 342 443 366 443 373 c 0
 443 391 441 404 433 404 c 0
 423 404 420 390 414 372 c 1
 415 373 l 1
 412 363 412 362 353 268 c 1
 420 157 432 146 432 107 c 0
 432 46 374 -21 284 -21 c 0
 204 -21 136 36 136 108 c 0
 136 147 147 157 215 268 c 1
 163 343 159 359 155 374 c 0
 153 380 151 385 149 391 c 2
 149 390 l 2
 146 399 141 404 136 404 c 0
 126 404 126 388 126 377 c 0
 126 367 127 344 128 330 c 1
 1 352 l 2
266 95 m 0
 266 71 280 68 284 68 c 0
 292 70 303 76 303 96 c 0
 303 119 292 141 284 153 c 1
 269 127 266 107 266 95 c 0
EndSplineSet
Validated: 1
EndChar

StartChar: uni0265
Encoding: 587 613 429
GlifName: uni0265
Width: 561
GlyphClass: 2
Flags: MW
HStem: -165 21G<348 495 348 348> -11 90<234.5 240> 452 20G<53 203 203 203 345 495 495 495>
VStem: 53 150<160 472> 344 151<183 184 183 188.5>
LayerCount: 2
Fore
SplineSet
53 160 m 2
 53 472 l 1
 203 472 l 1
 203 149 l 2
 203 109 211 79 258 79 c 0
 317 79 341 141 344 184 c 2
 344 183 l 2
 344 194 345 205 345 216 c 2
 345 472 l 1
 495 472 l 1
 495 -165 l 1
 348 -165 l 1
 348 66 l 1
 323 31 277 -11 203 -11 c 0
 59 -11 53 70 53 160 c 2
EndSplineSet
Validated: 1
EndChar

StartChar: uni0266
Encoding: 588 614 430
GlifName: uni0266
Width: 561
GlyphClass: 2
Flags: MW
HStem: 0 21G<53 53 53 203 345 345 345 495> 394 89<307.5 314> 618 89<271 345.5>
VStem: 53 150<0 77.5> 345 151<309 323 323 343>
LayerCount: 2
Fore
SplineSet
53 0 m 1
 53 516 l 2
 53 672 154.38697318 707 315 707 c 0
 387 707 430 694 490 648 c 1
 449 537 l 1
 411 595 375 618 316 618 c 0
 213.043095399 618 200 579.502336514 200 516 c 2
 200 409 l 1
 225 445 270 483 345 483 c 0
 486.059602649 483 495 402 495 311 c 2
 495 0 l 1
 345 0 l 1
 345 323 l 2
 345 363 338 394 290 394 c 0
 231 394 203 332 203 288 c 2
 203 0 l 1
 53 0 l 1
EndSplineSet
Validated: 1
EndChar

StartChar: uni0267
Encoding: 589 615 431
GlifName: uni0267
Width: 556
GlyphClass: 2
Flags: MW
HStem: -181 97 0 21G<53 53 53 203> 394 90<307.5 315.5> 618 89<285 349.5>
VStem: 53 150<0 86> 345 151<-38 -36 -36 312>
LayerCount: 2
Fore
SplineSet
53 0 m 1
 53 172 54 344 54 516 c 2
 54 538 l 2
 54 673 175 707 319 707 c 0
 392 707 435 694 498 648 c 1
 457 537 l 1
 417 595 380 618 319 618 c 0
 251 618 200 601 201 538 c 0
 201 531 200 523 200 516 c 1
 200 516 l 1
 200 409 l 1
 225 445 270 484 345 484 c 0
 489 484 496 401 496 312 c 2
 496 -36 l 1
 496 -36 l 1
 496 -124 451 -181 311 -181 c 0
 247 -181 216 -158 183 -128 c 1
 226 -8 l 1
 239 -48 258 -72 277 -84 c 0
 286 -90 296 -93 305 -93 c 0
 346 -93 345 -53 345 -38 c 2
 345 321 l 2
 345 362 340 394 291 394 c 0
 236 394 207 342 203 289 c 1
 203 241 l 1
 203 0 l 1
 53 0 l 1
EndSplineSet
Validated: 37
EndChar

StartChar: uni0268
Encoding: 590 616 432
GlifName: uni0268
Width: 353
GlyphClass: 2
Flags: MW
HStem: 0 21G<100 246 100 100> 193 89<-6 100 -6 100 246 352> 452 20G<100 246 246 246> 550 136<92 253 92 253>
VStem: 92 161<550 686 550 686>
LayerCount: 2
Fore
SplineSet
-6 193 m 1
 -6 282 l 1
 100 282 l 1
 100 472 l 1
 246 472 l 1
 246 282 l 1
 352 282 l 1
 352 193 l 1
 246 193 l 1
 246 0 l 1
 100 0 l 1
 100 193 l 1
 -6 193 l 1
92 550 m 1
 92 686 l 1
 253 686 l 1
 253 550 l 1
 92 550 l 1
EndSplineSet
Validated: 1
EndChar

StartChar: uni0269
Encoding: 591 617 433
GlifName: uni0269
Width: 367
GlyphClass: 2
Flags: MW
HStem: -11 92 452 20G<76 227 227 227>
VStem: 76 151<131 137 137 472> 256 150<171 171>
LayerCount: 2
Fore
SplineSet
76 131 m 2
 76 472 l 1
 227 472 l 1
 227 137 l 1
 227 137 l 1
 227 91 230 82 240 81 c 1
 247 85 252 99 256 171 c 1
 406 171 l 1
 397 73 334 -11 237 -11 c 0
 185 -11 76 17 76 131 c 2
EndSplineSet
Validated: 5
EndChar

StartChar: uni026A
Encoding: 592 618 434
GlifName: uni026A_
Width: 288
GlyphClass: 2
Flags: MW
HStem: 0 21G<66 66 66 217> 452 20G<66 217 217 217>
VStem: 66 151<0 472 0 472>
LayerCount: 2
Fore
SplineSet
66 0 m 1
 66 472 l 1
 217 472 l 1
 217 0 l 1
 66 0 l 1
EndSplineSet
Validated: 1
EndChar

StartChar: uni026B
Encoding: 593 619 435
GlifName: uni026B_
Width: 414
GlyphClass: 2
Flags: MW
HStem: 0 21G<129 277 129 129> 321 95 666 20G<129 277 277 277>
VStem: 32 245<0 332> 129 148<0 322 0 336 0 336 426 686> 129 246<0 427 336 427 427 427 427 686>
LayerCount: 2
Fore
SplineSet
32 332 m 1xf0
 34 372 58 401 92 416 c 0
 103 421 116 424 129 426 c 1
 129 686 l 1xe8
 277 686 l 1
 277 412 l 2xf0
 279 413 280 414 282 417 c 0
 283 419 285 423 286 427 c 1
 375 427 l 1xe4
 373 378 347 347 313 332 c 0
 302 327 290 323 277 322 c 1
 277 0 l 1
 129 0 l 1
 129 336 l 1xe8
 124 333 119 328 117 321 c 1
 42 321 l 1
 32 332 l 1xf0
EndSplineSet
Validated: 1
EndChar

StartChar: uni026C
Encoding: 594 620 436
GlifName: uni026C_
Width: 378
GlyphClass: 2
Flags: MW
HStem: 0 21G<110 258 110 110> 208 89<109 109> 666 20G<110 258 258 258>
VStem: 11 89<319.5 332.5 319.5 353> 110 148<0 34.5 319 357 357 357 463 686>
LayerCount: 2
Fore
SplineSet
11 327 m 0
 11 379 47 437 110 463 c 1
 110 686 l 1
 258 686 l 1
 258 319 l 1
 275 332 296 349 316 368 c 1
 371 299 l 1
 338 266 301 236 258 221 c 1
 258 0 l 1
 110 0 l 1
 110 69 109 139 109 208 c 1
 83 216 11 243 11 327 c 0
110 357 m 1
 104 348 100 339 100 326 c 0
 100 313 105 303 110 297 c 1
 110 357 l 1
EndSplineSet
Validated: 1
EndChar

StartChar: uni026D
Encoding: 595 621 437
GlifName: uni026D_
Width: 281
GlyphClass: 2
Flags: MW
HStem: -181 89<217 250.5 217 256> 666 20G<52 200 200 200>
VStem: 52 148<-29 686>
LayerCount: 2
Fore
SplineSet
52 -29 m 2
 52 686 l 1
 200 686 l 1
 200 -37 l 2
 200 -66 204 -92 230 -92 c 0
 271 -92 285 -49 290 -35 c 0
 291 -34 301 -13 301 -13 c 1
 341 -127 l 1
 314 -156 287 -181 225 -181 c 0
 49 -181 52 -71 52 -29 c 2
EndSplineSet
Validated: 33
EndChar

StartChar: uni026E
Encoding: 596 622 438
GlifName: uni026E_
Width: 574
GlyphClass: 2
Flags: MW
HStem: -171 89<293.5 369.5 293.5 394> 0 21G<54 202 54 54> 408 64<228 412 228 560> 666 20G<54 202 202 202>
VStem: 54 148<0 686 0 686> 426 134
LayerCount: 2
Fore
SplineSet
202 686 m 1
 202 0 l 1
 54 0 l 1
 54 686 l 1
 202 686 l 1
412 408 m 1
 228 408 l 1
 228 472 l 1
 560 472 l 1
 560 406 l 2
 560 381 545 371 454 239 c 1
 555 199 576 104 576 34 c 0
 576 -130 460 -171 328 -171 c 0
 250 -171 172 -157 96 -133 c 1
 136 -25 l 1
 197 -59 256 -82 331 -82 c 0
 408 -82 426 -45 426 24 c 0
 426 161 232 111 232 157 c 1
 412 408 l 1
EndSplineSet
Validated: 1
EndChar

StartChar: uni026F
Encoding: 597 623 439
GlifName: uni026F_
Width: 867
GlyphClass: 2
Flags: MW
HStem: -11 21G<134 246.5 445 538.5> -5 84 452 20G<56 206 206 206 348 499 499 499 642 792 792 792>
VStem: 56 150<161 472> 348 151<184 184 184 472> 641 151<184 189>
LayerCount: 2
Fore
SplineSet
56 161 m 2xbc
 56 472 l 1
 206 472 l 1
 206 149 l 2
 206 109 214 79 262 79 c 0
 321 79 345 140 348 184 c 1
 348 184 l 1
 348 472 l 1
 499 472 l 1
 499 149 l 2
 499 109 507 79 555 79 c 0
 614 79 637 140 641 184 c 0
 641 194 642 204 642 215 c 2
 642 472 l 1
 792 472 l 1
 792 -5 l 1
 647 -5 l 1x7c
 647 31 l 1
 647 67 l 1
 622 29 577 -11 500 -11 c 0
 390 -11 367 37 357 74 c 1
 333 35 287 -11 206 -11 c 0
 62 -11 56 71 56 161 c 2xbc
EndSplineSet
Validated: 5
EndChar

StartChar: uni0270
Encoding: 598 624 440
GlifName: uni0270
Width: 867
GlyphClass: 2
Flags: MW
HStem: -165 21G<647 792 647 647> -11 90<238 246.5 531 538.5> 452 20G<56 206 206 206 348 499 499 499 642 792 792 792>
VStem: 56 150<161 472> 348 151<184 184 184 472> 641 151<184 189>
LayerCount: 2
Fore
SplineSet
56 161 m 2
 56 472 l 1
 206 472 l 1
 206 149 l 2
 206 109 214 79 262 79 c 0
 321 79 345 140 348 184 c 1
 348 184 l 1
 348 472 l 1
 499 472 l 1
 499 149 l 2
 499 109 507 79 555 79 c 0
 614 79 637 140 641 184 c 0
 641 194 642 204 642 215 c 2
 642 472 l 1
 792 472 l 1
 792 -165 l 1
 647 -165 l 1
 647 9 l 1
 647 67 l 1
 622 29 577 -11 500 -11 c 0
 390 -11 367 37 357 74 c 1
 333 35 287 -11 206 -11 c 0
 62 -11 56 71 56 161 c 2
EndSplineSet
Validated: 5
EndChar

StartChar: uni0271
Encoding: 599 625 441
GlifName: uni0271
Width: 892
GlyphClass: 2
Flags: MW
HStem: -181 88<579.5 621.5 579.5 676.5> 0 21G<56 56 56 206 348 348 348 499> 376 102 464 20G<600.5 713.5>
VStem: 56 145<403 478 403 478 403 478> 348 151<0 273 0 323 0 343.5> 642 150<-37 -36 -36 312>
LayerCount: 2
Fore
SplineSet
56 0 m 1xee
 56 478 l 1
 201 478 l 1xee
 201 403 l 1
 227 440 273 483 348 483 c 0
 456 483 480 436 490 399 c 1
 514 437 560 484 641 484 c 0xde
 786 484 792 401 792 312 c 2
 792 -36 l 2
 792 -124 747 -181 606 -181 c 0
 553 -181 520 -166 479 -127 c 1
 521 -12 l 1
 535 -49 558 -93 601 -93 c 0
 642 -93 642 -53 642 -37 c 2
 642 320 l 2
 642 363 633 394 586 394 c 0
 568 394 552 389 540 379 c 0
 511 357 499 312 499 273 c 2
 499 0 l 1
 348 0 l 1
 348 323 l 2
 348 364 341 394 293 394 c 0
 273 394 257 387 245 376 c 0
 220 354 209 317 206 288 c 1
 206 288 l 1
 206 0 l 1
 56 0 l 1xee
EndSplineSet
Validated: 5
EndChar

StartChar: uni0272
Encoding: 600 626 442
GlifName: uni0272
Width: 561
GlyphClass: 2
Flags: MW
HStem: -181 89<13.5 39 13.5 107.5> 0 21G<345 496 345 345> 394 84<52 310> 464 20G<305.5 413.5>
VStem: 52 145<407 442 442 478> 345 151<0 311 0 319 0 343.5>
LayerCount: 2
Fore
SplineSet
-73 -126 m 1xec
 -29 -6 l 1
 -19 -43 0 -92 27 -92 c 0
 51 -92 52 -62 52 -41 c 2
 52 478 l 1
 197 478 l 1xec
 197 442 l 1
 197 407 l 1
 222 442 268 484 343 484 c 0xdc
 484 484 496 410 496 311 c 2
 496 0 l 1
 345 0 l 1
 345 319 l 2
 345 368 332 394 288 394 c 0
 229 394 204 331 200 286 c 2
 197 -44 l 2
 196 -97 180 -181 35 -181 c 0
 -23 -181 -48 -157 -73 -126 c 1xec
EndSplineSet
Validated: 1
EndChar

StartChar: uni0273
Encoding: 601 627 443
GlifName: uni0273
Width: 586
GlyphClass: 2
Flags: MW
HStem: -181 89<513.5 552.5> 0 21G<54 54 54 205> 382 96 450 20G
VStem: 54 145<403 478 403 478 403 478> 348 149<-35 -31 -31 -30.5>
LayerCount: 2
Fore
SplineSet
54 0 m 1xec
 54 478 l 1
 199 478 l 1xec
 199 403 l 1
 216 428 243 455 281 470 c 0xdc
 300 478 322 483 347 483 c 0
 496 483 497 387 497 325 c 2
 497 -38 l 2
 497 -61 499 -92 528 -92 c 0
 591 -92 584 -7 600 -20 c 1
 637 -127 l 1
 611 -156 584 -181 521 -181 c 0
 353 -181 347 -82 347 -39 c 0
 347 -37 348 -36 348 -35 c 2
 348 -31 l 2
 348 -30 347 -29 347 -26 c 2
 347 319 l 2
 347 361 341 394 292 394 c 0
 279 394 265 390 252 382 c 0
 226 365 205 330 205 268 c 1
 205 268 l 1
 205 0 l 1
 54 0 l 1xec
EndSplineSet
Validated: 37
EndChar

StartChar: uni0274
Encoding: 602 628 444
GlifName: uni0274
Width: 663
GlyphClass: 2
Flags: MW
HStem: 0 21G<70 70 70 207 390 390 390 579> 452 20G<70 260 260 260 442 579 579 579>
VStem: 70 137<0 320 0 472> 442 137<152 472 0 472>
LayerCount: 2
Fore
SplineSet
70 0 m 1
 70 472 l 1
 260 472 l 1
 442 152 l 1
 442 472 l 1
 579 472 l 1
 579 0 l 1
 390 0 l 1
 207 320 l 1
 207 0 l 1
 70 0 l 1
EndSplineSet
Validated: 1
EndChar

StartChar: uni0275
Encoding: 603 629 445
GlifName: uni0275
Width: 550
GlyphClass: 2
Flags: MW
HStem: -11 94<233.5 309.5 233.5 366.5> 192 89<176 176 176 361> 400 88<214 301.5>
VStem: 25 151<192 192 192 334.5> 362 150<281 281>
LayerCount: 2
Fore
SplineSet
25 232 m 0
 25 437 144 488 267 488 c 0
 463 488 512 365 512 231 c 0
 512 106 464 -11 269 -11 c 0
 141 -11 25 37 25 232 c 0
175 281 m 1
 362 281 l 1
 360 355 334 400 269 400 c 0
 159 400 176 291 175 281 c 1
176 192 m 1
 178 133 199 83 268 83 c 0
 351 83 359 150 361 192 c 1
 176 192 l 1
EndSplineSet
Validated: 33
EndChar

StartChar: uni0276
Encoding: 604 630 446
GlifName: uni0276
Width: 883
GlyphClass: 2
Flags: MW
HStem: -15 89<276 334.5> -8 82<276 403 276 403> 193 104<558 787> 398 74 398 89<285.5 354 201.5 367.5>
VStem: 24 148<184.5 297> 408 150<104 297 104 297>
LayerCount: 2
Fore
SplineSet
24 231 m 0xb6
 24 383 109.651877133 487 287 487 c 0xae
 353.436701463 487 402.32 466 442 442 c 1
 442 472 l 1
 811 472 l 1
 811 373 l 1
 558 373 l 1
 558 297 l 1
 787 297 l 1
 787 193 l 1
 558 193 l 1
 558 105 l 1
 822 105 l 1
 822 0 l 1
 442 0 l 1
 442 30 l 1
 397.264705882 1.66533453694e-015 351.814116621 -15 286 -15 c 0
 108.47260274 -15 24 73 24 231 c 0xb6
172 245 m 0
 172 124 231.580369021 74 305 74 c 4
 391.380891435 74 432 131.826086957 432 202 c 2
 432 267 l 2
 432 348.584336812 377.697761194 398 308 398 c 4
 233.897435897 398 172 359 172 245 c 0
EndSplineSet
Validated: 1
EndChar

StartChar: uni0277
Encoding: 605 631 447
GlifName: uni0277
Width: 672
GlyphClass: 2
Flags: MW
HStem: -11 90<203.5 231.5 203.5 244.5 412 446.5> 394 90<283.5 370.5>
VStem: 26 150<154 257.5 154 289.5> 280 124 481 149<165 262>
LayerCount: 2
Fore
SplineSet
26 213 m 0
 26 366 162 484 328 484 c 0
 461 484 630 390 630 213 c 0
 630 91 541 -11 429 -11 c 0
 386 -11 352 5 323 35 c 1
 308 19 274 -11 215 -11 c 0
 107 -11 26 92 26 213 c 0
176 204 m 0
 176 104 190 79 217 79 c 0
 246 79 265 94 280 111 c 1
 256 183 253 236 253 266 c 0
 253 319 283 343 328 343 c 0
 357 343 404 330 404 271 c 0
 404 250 401 217 394 181 c 0
 389 157 382 131 372 106 c 1
 382 95 398 79 426 79 c 0
 467 79 481 123 481 207 c 0
 481 317 413 394 328 394 c 0
 239 394 176 311 176 204 c 0
EndSplineSet
Validated: 1
EndChar

StartChar: uni0278
Encoding: 606 632 448
GlifName: uni0278
Width: 672
GlyphClass: 2
Flags: MW
HStem: -160 21G<253 404 253 253> 666 20G<253 404 404 404>
VStem: 21 145<220.5 306 220.5 325.5> 253 151<-160 25 -160 25 118 165.5 490 686> 490 145<216.5 297>
LayerCount: 2
Fore
SplineSet
21 257 m 0
 21 394 107 475 253 490 c 1
 253 686 l 1
 404 686 l 1
 404 490 l 1
 600 468 635 340 635 257 c 0
 635 176 600 46 404 25 c 1
 404 -160 l 1
 253 -160 l 1
 253 25 l 1
 104 39 21 124 21 257 c 0
166 259 m 0
 166 182 180 133 253 117 c 1
 253 214 252 300 252 397 c 1
 195 382 166 353 166 259 c 0
404 118 m 1
 468 136 490 177 490 256 c 0
 490 338 471 378 404 397 c 1
 404 118 l 1
EndSplineSet
Validated: 1
EndChar

StartChar: uni0279
Encoding: 607 633 449
GlifName: uni0279
Width: 372
GlyphClass: 2
Flags: MW
HStem: -11 21G<8 8> -5 111 452 20G<164 311 311 311>
VStem: 163 148<214 215 214 218.5>
LayerCount: 2
Fore
SplineSet
8 -11 m 1xb0
 8 106 l 1
 117 108 159 172 163 215 c 1
 163 214 l 2
 163 223 164 231 164 240 c 2
 164 472 l 1
 311 472 l 1
 311 -5 l 1
 168 -5 l 1x70
 168 38 l 1
 168 81 l 1
 141 38 92 -9 8 -11 c 1xb0
EndSplineSet
Validated: 1
EndChar

StartChar: uni027A
Encoding: 608 634 450
GlifName: uni027A_
Width: 372
GlyphClass: 2
Flags: MW
HStem: -11 21G<8 8> -5 111 612 20G<164 311 311 311>
VStem: 164 147<232 632 -5 632>
LayerCount: 2
Fore
SplineSet
8 -11 m 1xb0
 8 106 l 1
 64 107 164 131 164 232 c 2
 164 632 l 1
 311 632 l 1
 311 -5 l 1
 168 -5 l 1x70
 168 38 l 1
 168 81 l 1
 141 38 92 -9 8 -11 c 1xb0
EndSplineSet
Validated: 1
EndChar

StartChar: uni027B
Encoding: 609 635 451
GlifName: uni027B_
Width: 372
GlyphClass: 2
Flags: MW
HStem: -181 89<330.5 369> -11 117<10 10> 453 20G<165 313 313 313>
VStem: 165 148<-35 36 36 72 72 72 240 473>
LayerCount: 2
Fore
SplineSet
10 -11 m 1
 10 106 l 1
 118 108 160 172 164 215 c 1
 164 214 l 2
 164 223 165 231 165 240 c 2
 165 473 l 1
 313 473 l 1
 313 -40 l 2
 313 -65 317 -92 344 -92 c 0
 409 -92 400 -6 416 -20 c 1
 454 -127 l 1
 427 -156 400 -181 338 -181 c 0
 228 -181 182 -140 169 -76 c 0
 166 -63 165 -50 165 -35 c 2
 165 36 l 1
 165 72 l 1
 140 34 94 -9 10 -11 c 1
EndSplineSet
Validated: 33
EndChar

StartChar: uni027C
Encoding: 610 636 452
GlifName: uni027C_
Width: 372
GlyphClass: 2
Flags: MW
HStem: -160 21G<52 52 52 200> 366 112 463 20G<355 355>
VStem: 52 142<390 434 434 478 390 478>
LayerCount: 2
Fore
SplineSet
52 -160 m 1xd0
 52 478 l 1
 194 478 l 1xd0
 194 434 l 1
 194 390 l 1
 220 433 271 481 355 483 c 1xb0
 355 366 l 1
 265 364 200 318 200 241 c 2
 200 -160 l 1
 52 -160 l 1xd0
EndSplineSet
Validated: 1
EndChar

StartChar: uni027D
Encoding: 611 637 453
GlifName: uni027D_
Width: 372
GlyphClass: 2
Flags: MW
HStem: -181 88<224 263.5> 366 112 463 20G<355 355>
VStem: 52 142<390 434 434 478 390 478>
LayerCount: 2
Fore
SplineSet
52 -19 m 2xd0
 52 478 l 1
 194 478 l 1xd0
 194 390 l 1
 220 433 271 481 355 483 c 1xb0
 355 366 l 1
 275 364 210 319 200 258 c 1
 200 -36 l 2
 200 -68 207 -93 241 -93 c 0
 293.035714286 -93 318.5 -62.625 334 -39 c 1
 372 -147 l 1
 323.875 -172.185185185 284.171875 -181 218 -181 c 0
 90.7934782609 -181 52 -117.081632653 52 -19 c 2xd0
EndSplineSet
Validated: 1
EndChar

StartChar: uni027E
Encoding: 612 638 454
GlifName: uni027E_
Width: 372
GlyphClass: 2
Flags: MW
HStem: 0 21G<52 52 52 200>
VStem: 52 148<0 334 0 365 0 365>
LayerCount: 2
Fore
SplineSet
52 0 m 1
 52 315 l 1
 52 403.489922932 111 483 256 483 c 1
 355 483 l 1
 355 366 l 1
 256 366 l 2
 210.113041467 366 200 319.61518557 200 294 c 2
 200 0 l 1
 52 0 l 1
EndSplineSet
Validated: 1
EndChar

StartChar: uni027F
Encoding: 613 639 455
GlifName: uni027F_
Width: 342
GlyphClass: 2
Flags: MW
HStem: 0 21G<133 283 133 133> 342 141<79 283>
VStem: 133 150<0 342 0 343 0 343>
LayerCount: 2
Fore
SplineSet
-18 302 m 1
 -28 313 l 1
 -23 410 36 483 122 483 c 0
 176 483 283 455 283 342 c 2
 283 0 l 1
 133 0 l 1
 133 343 l 2
 132 367 131 382 126 389 c 1
 124 373 124 354 124 342 c 0
 124 335 123 317 122 302 c 1
 -18 302 l 1
EndSplineSet
Validated: 1
EndChar

StartChar: uni0280
Encoding: 614 640 456
GlifName: uni0280
Width: 577
GlyphClass: 2
Flags: MW
HStem: 0 21G<70 70 70 217 394 394 394 546> 192 89<217 271 217 287> 369 103<217 274 274 283 217 217>
VStem: 70 147<0 192 281 334 334 369> 373 142<315 350>
LayerCount: 2
Fore
SplineSet
70 0 m 1
 70 472 l 1
 274 472 l 2
 382 472 515 452 515 327 c 0
 515 303 509 232 411 204 c 1
 546 0 l 1
 394 0 l 1
 271 192 l 1
 217 192 l 1
 217 0 l 1
 70 0 l 1
217 281 m 1
 287 281 l 2
 333 281 373 282 373 325 c 0
 373 375 322 369 283 369 c 2
 217 369 l 1
 217 334 l 1
 217 281 l 1
EndSplineSet
Validated: 33
EndChar

StartChar: uni0281
Encoding: 615 641 457
GlifName: uni0281
Width: 577
GlyphClass: 2
Flags: MW
HStem: 0 103<217 275> 191 90<217 291> 452 20G<70 217 217 217 394 547 547 547>
VStem: 70 147<103 103 103 170 170 192 281 472> 373 142<125 157.5 102.5 169>
LayerCount: 2
Fore
SplineSet
70 0 m 1
 70 472 l 1
 217 472 l 1
 217 281 l 1
 271 281 l 1
 311 343 355 410 394 472 c 1
 547 472 l 1
 412 269 l 1
 511 240 515 170 515 145 c 0
 515 60 429 0 275 0 c 2
 70 0 l 1
217 103 m 1
 281 103 l 2
 336 104 373 102 373 148 c 0
 373 190 333 190 291 191 c 0
 282 191 274 192 265 192 c 2
 217 192 l 1
 217 170 l 1
 217 103 l 1
EndSplineSet
Validated: 1
EndChar

StartChar: uni0282
Encoding: 616 642 458
GlifName: uni0282
Width: 422
GlyphClass: 2
Flags: MW
HStem: -181 104 -11 95<202.5 225 176.5 268> 400 88<187.5 239.5>
VStem: 23 123<-49 174 -49 55> 279 115<109 140.5>
LayerCount: 2
Fore
SplineSet
23 45 m 1
 23 174 l 1
 86 115 141 84 212 84 c 0
 238 84 279 89 279 129 c 0
 279 152 259 165 240 172 c 1
 240 171 l 1
 230 174 216 177 206 178 c 0
 150 188 29 212 29 338 c 0
 29 464 119 488 210 488 c 0
 272 488 313 481 379 453 c 1
 360 338 l 1
 324 364 276 400 203 400 c 0
 172 400 144 394 144 361 c 0
 144 338 163 327 187 320 c 0
 213 313 248 310 272 302 c 0
 321 287 394 240 394 147 c 0
 394 35 322 -11 214 -11 c 0
 191 -11 168 -10 146 -6 c 1
 146 -29 l 2
 146 -69 151 -92 180 -92 c 0
 192 -92 202 -86 210 -77 c 0
 226 -59 236 -29 242 -10 c 1
 284 -126 l 1
 259 -154 238 -181 175 -181 c 0
 -27 -181 23 6 23 55 c 2
 23 45 l 1
EndSplineSet
Validated: 37
EndChar

StartChar: uni0283
Encoding: 617 643 459
GlifName: uni0283
Width: 367
GlyphClass: 2
Flags: MW
HStem: -174 82 618 89<271.5 297>
VStem: 111 142
LayerCount: 2
Fore
SplineSet
-36 -127 m 1
 7 -10 l 1
 19 -47 39 -92 75 -92 c 0
 104 -92 106 -62 106 -40 c 2
 106 558 l 2
 106 576 107 593 111 608 c 0
 125 669 172 707 280 707 c 0
 326 707 355 696 395 664 c 1
 353 547 l 1
 334 600 309 618 285 618 c 0
 258 618 253 592 253 563 c 2
 253 -12 l 2
 253 -16 254 -20 254 -23 c 0
 254 -94 242 -181 81 -181 c 0
 60 -181 44 -179 30 -174 c 0
 2 -165 -17 -148 -36 -127 c 1
EndSplineSet
Validated: 1
EndChar

StartChar: uni0284
Encoding: 618 644 460
GlifName: uni0284
Width: 367
GlyphClass: 2
Flags: MW
HStem: -181 89<48 84.5 48 137> 205 89<25 106 25 106 254 336> 539 97<326 326>
VStem: 109 145
LayerCount: 2
Fore
SplineSet
-50 -127 m 1
 -8 -11 l 1
 6 -48 28 -92 68 -92 c 0
 101 -92 106 -66 106 -41 c 2
 106 205 l 1
 25 205 l 1
 25 294 l 1
 106 294 l 1
 106 504 l 2
 106 517 107 530 109 542 c 0
 122 604 167 640 284 640 c 0
 300 640 314 639 327 636 c 0
 365 628 388 610 411 588 c 1
 368 472 l 1
 358 498 346 524 326 539 c 0
 316 546 304 551 290 551 c 0
 261 551 254 535 254 516 c 2
 254 294 l 1
 336 294 l 1
 336 205 l 1
 254 205 l 1
 254 -26 l 2
 254 -39 254 -52 252 -64 c 0
 242 -135 199 -181 75 -181 c 0
 21 -181 -11 -166 -50 -127 c 1
EndSplineSet
Validated: 1
EndChar

StartChar: uni0285
Encoding: 619 645 461
GlifName: uni0285
Width: 525
GlyphClass: 2
Flags: MW
HStem: -171 92 11 21G<303 453 453 453> 389 94
VStem: 138 150<-22 320 320 335>
LayerCount: 2
Fore
SplineSet
24 302 m 1
 24 313 l 1
 24 403 86 483 176 483 c 0
 265 483 338 429 338 335 c 2
 338 -66 l 2
 338 -73.1132075472 338.888888889 -79 346 -79 c 1
 351.833333333 -79 353 -70.8533333333 353 -66 c 1
 353 11 l 1
 503 11 l 1
 503 -11 l 1
 503 -99.000001418 434.044308177 -171 350 -171 c 0
 262 -171 188 -114.996856515 188 -22 c 2
 188 371 l 2
 188 382.477872894 188 389 178 389 c 1
 172.050467628 389 168 382.220779166 168 371 c 1
 168 302 l 1
 24 302 l 1
EndSplineSet
Validated: 1
EndChar

StartChar: uni0286
Encoding: 620 646 462
GlifName: uni0286
Width: 472
GlyphClass: 2
Flags: MW
HStem: -181 21G -160 68 -42 60 29 21G<106 106> 618 89<270.5 297>
VStem: -37 105<-80.5 -71.5 -80.5 -59> 109 145
LayerCount: 2
Fore
SplineSet
23 -83 m 0xbe
 23 -32.9778295895 64.6008839166 4.61309661139 118 20.6943359375 c 0
 133.267672199 25.2922227302 149.499857108 28.1315289084 166 29 c 1
 166 556 l 2
 166 650.102856514 200.358463488 707 330 707 c 0
 381.086956522 707 421.304347826 686 455 664 c 1
 418 568 l 1
 401 596 375.294117647 618 352 618 c 0
 316.451612903 618 314 588.915254237 314 566 c 2
 314 -3 l 1
 367.530434783 -27 426.017391304 -72 428 -160 c 1
 280 -160 l 1
 278.990027425 -144.945150838 277.421512037 -132.053780093 273 -121 c 1
 254 -146 216 -181 154 -181 c 0
 95 -181 23 -155 23 -83 c 0xbe
128 -76 m 0
 128 -85 137 -92 148 -92 c 0x7e
 158 -92 165 -83 166 -38 c 1
 159.288122395 -39.3423876756 153.145270234 -42.2544565441 147.845703125 -46 c 0
 135.712642596 -54.5752108664 128 -67.519475201 128 -76 c 0
EndSplineSet
Validated: 1
EndChar

StartChar: uni0287
Encoding: 621 647 463
GlifName: uni0287
Width: 404
GlyphClass: 2
Flags: MW
HStem: -130 21G<172 314 172 172> 0 89<42 172 42 172 317 381> 389 92
VStem: 172 145<-130 326 0 326 89 311 311 311>
LayerCount: 2
Fore
SplineSet
22 436 m 1
 62.9308510638 461.636363636 138.494149588 483 193 483 c 0
 313.490566038 483 317 398.286624204 317 350 c 2
 317 89 l 1
 381 89 l 1
 381 0 l 1
 314 0 l 1
 314 -130 l 1
 172 -130 l 1
 172 0 l 1
 42 0 l 1
 42 89 l 1
 172 89 l 1
 172 338 l 2
 172 375.926352257 155 389 133 389 c 0
 97.2613636364 389 66.3522727273 354.8 48 332 c 1
 22 436 l 1
EndSplineSet
Validated: 1
EndChar

StartChar: uni0288
Encoding: 622 648 464
GlifName: uni0288
Width: 404
GlyphClass: 2
Flags: MW
HStem: -181 146<223 223 223 287.5> 384 88<14 81 14 78 223 324> 582 20G<81 223 223 223>
VStem: 81 142<472 602>
LayerCount: 2
Fore
SplineSet
14 384 m 1
 14 472 l 1
 81 472 l 1
 81 602 l 1
 223 602 l 1
 223 472 l 1
 324 472 l 1
 324 384 l 1
 223 384 l 1
 223 -35 l 2
 223 -64 227 -92 258 -92 c 0
 301 -92 316 -47 321 -35 c 0
 322 -33 331 -14 331 -14 c 1
 372 -127 l 1
 350 -150 323 -181 252 -181 c 0
 87 -181 78 -85 78 -38 c 2
 78 384 l 1
 14 384 l 1
EndSplineSet
Validated: 1
EndChar

StartChar: uni0289
Encoding: 623 649 465
GlifName: uni0289
Width: 622
GlyphClass: 2
Flags: MW
HStem: -11 21G<165.5 271.5> 0 67 193 89<-4 84 -4 84 235 235 235 378 527 616> 452 20G<84 234 234 234 378 527 527 527>
VStem: 84 151<186.5 193 186.5 193 186.5 193 186.5 472> 378 149<180 193 0 193 282 472>
LayerCount: 2
Fore
SplineSet
-4 193 m 1xbc
 -4 282 l 1
 84 282 l 1
 84 472 l 1
 234 472 l 1
 234 282 l 1
 378 282 l 1
 378 472 l 1
 527 472 l 1
 527 282 l 1
 616 282 l 1
 616 193 l 1
 527 193 l 1
 527 0 l 1
 380 0 l 1x7c
 380 27 l 1
 380 55 l 1
 354 24 308 -11 235 -11 c 0
 96 -11 84 54 84 136 c 2
 84 193 l 1
 -4 193 l 1xbc
234 144 m 2
 235 77 235 67 285 67 c 0
 330 67 378 97 378 180 c 2
 378 193 l 1
 235 193 l 1
 235 180 234 172 234 159 c 2
 234 144 l 2
EndSplineSet
Validated: 1
EndChar

StartChar: uni028A
Encoding: 624 650 466
GlifName: uni028A_
Width: 611
GlyphClass: 2
Flags: MW
HStem: -21 88<262 337 262 389.5> 351 121<54 253 54 122 474 474 474 542>
VStem: 69 150<173.5 238.5> 69 184<152.5 472> 377 150<179 236.5 152 255.5>
LayerCount: 2
Fore
SplineSet
54 351 m 1xe8
 54 472 l 1
 253 472 l 1xd8
 253 360 219 306 219 201 c 0
 219 146 225 67 299 67 c 0
 375 67 377 157 377 201 c 0
 377 310 344 359 344 472 c 1
 542 472 l 1
 542 351 l 1
 474 351 l 2
 474 350 476 348 476 347 c 2
 476 348 l 1
 502 305 527 264 527 209 c 0
 527 95 481 -21 298 -21 c 0
 115 -21 69 96 69 209 c 0
 69 268 97 302 122 351 c 1
 54 351 l 1xe8
EndSplineSet
Validated: 1
EndChar

StartChar: uni028B
Encoding: 625 651 467
GlifName: uni028B_
Width: 525
GlyphClass: 2
Flags: MW
HStem: -11 90<227.5 282.5 227.5 308> 458 20G<52 203 203 203> 471 20G<436 436>
VStem: 52 151<166 478> 320 151<240 299 200 299.5>
LayerCount: 2
Fore
SplineSet
52 166 m 2xb8
 52 478 l 1
 203 478 l 1xd8
 203 153 l 2
 203 112 210 79 245 79 c 0
 320 79 320 216 320 264 c 0
 320 335 309 395 290 453 c 1
 436 491 l 1
 462 404 471 325 471 273 c 0
 471 127 376 -11 240 -11 c 0
 60 -11 52 91 52 166 c 2xb8
EndSplineSet
Validated: 1
EndChar

StartChar: uni028C
Encoding: 626 652 468
GlifName: uni028C_
Width: 500
GlyphClass: 2
Flags: MW
HStem: 0 21G<6 6 6 143 343 343 343 483> 452 20G<155 334 334 334>
LayerCount: 2
Fore
SplineSet
6 0 m 1
 155 472 l 1
 334 472 l 1
 483 0 l 1
 343 0 l 1
 243 316 l 1
 143 0 l 1
 6 0 l 1
EndSplineSet
Validated: 1
EndChar

StartChar: uni028D
Encoding: 627 653 469
GlifName: uni028D_
Width: 744
GlyphClass: 2
Flags: MW
HStem: 0 21G<9 9 9 145 314 314 314 420 582 582 582 720> 452 20G<137 316 316 316 452 591 591 591>
LayerCount: 2
Fore
SplineSet
9 0 m 1
 137 472 l 1
 316 472 l 1
 330 418 l 1
 330 419 l 1
 360 308 378 261 384 203 c 1
 396 263 419 351 452 472 c 1
 591 472 l 1
 720 0 l 1
 582 0 l 1
 555 99 528 197 501 296 c 1
 494 272 488 247 481 222 c 0
 461 148 439 73 420 0 c 1
 314 0 l 1
 286 104 257 209 229 313 c 1
 212 250 l 1
 145 0 l 1
 9 0 l 1
EndSplineSet
Validated: 1
EndChar

StartChar: uni028E
Encoding: 628 654 470
GlifName: uni028E_
Width: 500
GlyphClass: 2
Flags: MW
HStem: 0 21G<7 7 7 143 340 340 340 484> 523 120
LayerCount: 2
Fore
SplineSet
7 0 m 1
 59 157 112 315 164 472 c 1
 167 483 l 1
 166 483 l 1
 174 511 206 643 364 643 c 0
 397 643 433 638 451 635 c 1
 460 512 l 1
 453 516 446 519 439 523 c 0
 423 531 395 542 363 542 c 0
 302 542 293 508 286 482 c 1
 286 483 l 2
 285 481 284 478 284 477 c 0
 282 471 281 467 281 463 c 0
 281 461 282 459 284 455 c 0
 285 452 289 448 289 444 c 1
 289 445 288 445 288 446 c 2
 484 0 l 1
 340 0 l 1
 294 101 266 169 249 214 c 0
 238 244 231 265 227 280 c 1
 213 225 188 147 166 76 c 2
 143 0 l 1
 7 0 l 1
EndSplineSet
Validated: 5
EndChar

StartChar: uni028F
Encoding: 629 655 471
GlifName: uni028F_
Width: 602
GlyphClass: 2
Flags: MW
HStem: 0 21G<221 369 221 221> 452 20G<-5 184 184 184 410 594 594 594>
VStem: 221 148<0 140 140 173 0 187 0 187>
LayerCount: 2
Fore
SplineSet
-5 472 m 1
 184 472 l 1
 261 373 l 2
 276 355 282 344 297 326 c 1
 410 472 l 1
 594 472 l 1
 376 197 l 2
 369 187 369 185 369 173 c 2
 369 0 l 1
 221 0 l 1
 221 140 l 1
 221 187 l 1
 149 276 66 383 -5 472 c 1
EndSplineSet
Validated: 1
EndChar

StartChar: uni0290
Encoding: 630 656 472
GlifName: uni0290
Width: 476
GlyphClass: 2
Flags: MW
HStem: -176 84 0 90<202 240.5 202 316> 388 84<225 262>
VStem: 316 121
LayerCount: 2
Fore
SplineSet
25 0 m 1
 25 59 l 1
 262 388 l 1
 188 388 114 386 40 386 c 1
 40 472 l 1
 437 472 l 1
 437 416 l 1
 202 90 l 1
 279 90 364 92 440 92 c 1
 440 2 l 1
 440 -43 l 2
 441 -73 448 -92 471 -92 c 0
 505 -92 517 -53 521 -35 c 1
 539 -32 l 1
 550 -63 562 -95 573 -126 c 1
 552 -153 534 -169 510 -176 c 0
 498 -180 484 -181 468 -181 c 0
 331 -181 316 -96 316 -35 c 2
 316 0 l 1
 25 0 l 1
EndSplineSet
Validated: 1
EndChar

StartChar: uni0291
Encoding: 631 657 473
GlifName: uni0291
Width: 538
GlyphClass: 2
Flags: MW
HStem: -120 21G<156 293 156 156> 0 103<25 275 224 323 349 361 361 364> 145 91<400 408.5> 383 89<207.5 240>
VStem: 415 134<116.5 131>
LayerCount: 2
Fore
SplineSet
25 0 m 1
 25 34 l 2
 25 77 37.6348221045 87.2507191522 56 114 c 2
 240 382 l 1
 40 382 l 1
 40 472 l 1
 437 472 l 1
 437 415 l 1
 224 103 l 1
 275 103 l 1
 347 229 379 236 420 236 c 0
 489 236 549 191 549 124 c 0
 549 50 495.72972973 -1.00086746323e-014 414 0 c 6
 323 0 l 1
 271 -120 l 1
 156 -120 l 1
 217 0 l 1
 25 0 l 1
355 103 m 1
 375 103 l 2
 392.037037037 103 415 105 415 128 c 0
 415 134 413.764705882 145 394 145 c 0
 382.181818182 145 368 128 355 103 c 1
EndSplineSet
Validated: 1
EndChar

StartChar: uni0292
Encoding: 632 658 474
GlifName: uni0292
Width: 476
GlyphClass: 2
Flags: MW
HStem: -171 89<205 266 202.5 291.5> 347 125<225 243>
VStem: 301 135
LayerCount: 2
Fore
SplineSet
37 -132 m 1
 77 -24 l 1
 119 -53 170 -82 235 -82 c 0
 297 -82 301 -38 301 23 c 0
 301 75 283 103 253 118 c 0
 217 136 162 135 100 135 c 1
 243 347 l 1
 207 347 172 346 136 346 c 2
 91 346 l 2
 74 346 56 345 39 345 c 1
 39 472 l 1
 436 472 l 1
 436 404 l 2
 436 389 436 389 333 238 c 1
 434 195 452 101 452 34 c 0
 452 -130 350 -171 233 -171 c 0
 177 -171 114 -161 37 -132 c 1
EndSplineSet
Validated: 33
EndChar

StartChar: uni0293
Encoding: 633 659 475
GlifName: uni0293
Width: 476
GlyphClass: 2
Flags: MW
HStem: -171 21G<139.5 250> -160 78 -35 89<177 206 177 177> 347 125<225 243>
VStem: 19 90<-66 -50 -66 -13.5> 296 140
LayerCount: 2
Fore
SplineSet
19 -59 m 0xbc
 19 32 131 54 207 54 c 0
 238 54 270 51 302 40 c 1
 301 52 299 63 296 73 c 0
 293 83 287 91 280 99 c 0
 252 129 205 135 100 135 c 1
 243 347 l 1
 207 347 172 346 136 346 c 2
 92 346 l 2
 74 346 57 345 39 345 c 1
 39 472 l 1
 436 472 l 1
 436 404 l 2
 436 389 436 389 333 239 c 1
 436 197 452 99 452 31 c 0
 452 -1 449 -22 441 -54 c 1
 461 -82 476 -116 486 -160 c 1
 332 -160 l 1x7c
 332 -158 l 1
 332 -156 l 1
 300 -167 266 -171 234 -171 c 0
 45 -171 19 -104 19 -59 c 0xbc
109 -58 m 0
 109 -74 141 -81 191 -82 c 2
 217 -82 l 2
 255 -82 271 -81 284 -65 c 1
 253 -37 227 -35 206 -35 c 2
 177 -35 l 2
 132 -36 109 -42 109 -58 c 0
EndSplineSet
Validated: 1
EndChar

StartChar: uni0294
Encoding: 634 660 476
GlifName: uni0294
Width: 550
GlyphClass: 2
Flags: MW
HStem: 0 21G<178 330 178 178> 615 91<227.5 286.5>
VStem: 178 152<0 352 0 414 0 414> 335 153<483.5 559>
LayerCount: 2
Fore
SplineSet
51 645 m 1
 101.697983578 687.248319648 178.933340808 706 259 706 c 4
 384 706 488 668 488 517 c 0
 488 415 397 370 330 352 c 1
 330 0 l 1
 178 0 l 1
 178 414 l 1
 250 425 335 443 335 524 c 0
 335 594 317 615 256 615 c 0
 199 615 143 589 93 531 c 1
 51 645 l 1
EndSplineSet
Validated: 1
EndChar

StartChar: uni0295
Encoding: 635 661 477
GlifName: uni0295
Width: 550
GlyphClass: 2
Flags: MW
HStem: 0 21G<209 360 209 209> 607 89<251 310>
VStem: 54 149<499 550 470 591.5> 209 151<0 347 347 347>
LayerCount: 2
Fore
SplineSet
54 510 m 0
 54 673 176 696 279 696 c 0
 361 696 423 674 485 638 c 1
 443 524 l 1
 394 581 338 607 282 607 c 0
 220 607 203 584 203 516 c 0
 203 424 340 410 360 410 c 1
 360 0 l 1
 209 0 l 1
 209 347 l 1
 56 390 54 488 54 510 c 0
EndSplineSet
Validated: 1
EndChar

StartChar: uni0296
Encoding: 636 662 478
GlifName: uni0296
Width: 550
GlyphClass: 2
Flags: MW
HStem: -11 90<254 296.5 254 336.5> 666 20G<150 301 301 301>
VStem: 150 151<338 686 686 686> 333 150<159 246.5>
LayerCount: 2
Fore
SplineSet
52 62 m 1
 94 177 l 1
 163 85 242 79 266 79 c 0
 327 79 333 120 333 198 c 0
 333 295 253 338 181 338 c 2
 150 338 l 1
 150 686 l 1
 301 686 l 1
 303 415 l 1
 340 405 483 356 483 204 c 0
 483 46 403 -11 270 -11 c 0
 185 -11 116 16 52 62 c 1
EndSplineSet
Validated: 1
EndChar

StartChar: uni0297
Encoding: 637 663 479
GlifName: uni0297
Width: 550
GlyphClass: 2
Flags: MW
HStem: -171 112<243.5 299 243.5 326> 19 21G<334 484 484 484> 591 111<269 297>
VStem: 66 151<10 493 493 506> 328 150<499 530.5>
LayerCount: 2
Fore
SplineSet
66 10 m 2
 66 493 l 2
 66 612 92 702 270 702 c 0
 422 702 477 632 478 499 c 1
 328 499 l 1
 328 562 325 591 269 591 c 0
 209 590 217 547 217 506 c 2
 217 5 l 2
 217 -42 220 -59 267 -59 c 0
 331 -59 334 -39 334 19 c 1
 484 19 l 1
 482 -144 382 -171 270 -171 c 0
 154 -171 67 -137 66 10 c 2
EndSplineSet
Validated: 33
EndChar

StartChar: uni0298
Encoding: 638 664 480
GlifName: uni0298
Width: 794
GlyphClass: 2
Flags: MW
HStem: -21 97<308 419 308 521.5> 271 144<368.5 397.5 368.5 411.5> 613 94<310.5 410.5>
VStem: 56 161<306 415.5 306 481> 315 146<343 343> 559 161<318 361.5>
CounterMasks: 1 1c
LayerCount: 2
Fore
SplineSet
315 343 m 1
 323 389 349 415 388 415 c 0
 407 415 453 407 461 342 c 1
 448 304 435 271 388 271 c 0
 326 271 317 329 315 343 c 1
56 341 m 0
 56 621 206 707 387 707 c 0
 587 707 720 608 720 339 c 0
 720 153 654 -21 389 -21 c 0
 115 -21 56 159 56 341 c 0
217 365 m 0
 217 247 228 76 388 76 c 0
 450 76 555 114 559 318 c 0
 559 405 567 512 497 577 c 1
 497 576 l 1
 471 599 433 613 388 613 c 0
 233 613 217 466 217 365 c 0
EndSplineSet
Validated: 33
EndChar

StartChar: uni0299
Encoding: 639 665 481
GlifName: uni0299
Width: 608
GlyphClass: 2
Flags: MW
HStem: 0 103<215 273 273 276.5 215 316> 201 89<215 277 277 286 215 277> 369 103<215 282 215 215>
VStem: 70 145<103 103 103 201 290 369> 381 140<316 352.5> 403 69 403 118
LayerCount: 2
Fore
SplineSet
70 0 m 1xf4
 70 472 l 1
 334 472 l 6
 411.557603687 472 521 456 521 341 c 0xf2
 521 288 479 262 447 248 c 1
 496 234 545 202 545 140 c 0
 545 52.4973899842 486.340248963 -3.10862446895e-014 334 0 c 6
 70 0 l 1xf4
215 103 m 1
 327 103 l 2
 349.971352785 103 403 104.243902439 403 154 c 0
 403 194.403508772 357.793103448 201 327 201 c 2
 215 201 l 1
 215 103 l 1
215 290 m 1
 327 290 l 2
 348.255319149 290 381 293.25 381 329 c 0xf8
 381 366.419354839 348.829787234 369 327 369 c 2
 215 369 l 1
 215 290 l 1
EndSplineSet
Validated: 1
EndChar

StartChar: uni029A
Encoding: 640 666 482
GlifName: uni029A_
Width: 550
GlyphClass: 2
Flags: MW
HStem: -21 110<253 321 253 352> 210 88<255 308 294 308 294 308> 389 105<253.5 317.5>
VStem: 39 152<122.5 175.5 122.5 175.5> 414 98<211.5 285>
LayerCount: 2
Fore
SplineSet
39 147 m 0
 39 204 76 233 112 249 c 1
 84 266 54 294 54 345 c 0
 54 421 96 494 274 494 c 0
 417 494 512 377 512 248 c 0
 512 119 430 -21 274 -21 c 0
 71 -21 39 80 39 147 c 0
191 150 m 0
 191 95 232 89 274 89 c 0
 368 89 414 175 414 248 c 0
 414 322 361 389 274 389 c 0
 233 389 205 382 205 346 c 0
 205 329 217 317 228 310 c 1
 227 310 l 1
 250 298 280 298 308 298 c 1
 308 210 l 1
 279 210 l 2
 231 210 191 201 191 150 c 0
EndSplineSet
Validated: 1
EndChar

StartChar: uni029B
Encoding: 641 667 483
GlifName: uni029B_
Width: 638
GlyphClass: 2
Flags: MW
HStem: -15 98<313.5 357 313.5 386> 113 105<341 392 341 542> 389 98<311.5 370.5> 569 95
VStem: 53 151<174.5 297 174.5 311> 392 150<85 113 113 113> 453 89<469 507 507 507>
LayerCount: 2
Fore
SplineSet
53 235 m 0xfc
 53 387 135 487 347 487 c 0
 396 487 425 481 453 469 c 1
 453 507 l 2xfa
 454 544 454 591 488 627 c 1
 487 627 l 1
 501 644 534 669 603 669 c 0
 619 669 633 667 646 664 c 0
 672 658 694 645 721 624 c 1
 682 517 l 1
 671 536 658 557 639 569 c 0
 629 575 618 579 604 579 c 0
 545 579 542 538 542 514 c 2
 542 394 l 1
 427 327 l 1
 413 363 394 389 347 389 c 0
 276 389 204 358 204 236 c 0
 204 113 276 83 351 83 c 0
 363 83 377 83 392 85 c 1
 392 113 l 1
 341 113 l 1
 341 218 l 1
 542 218 l 1
 542 20 l 1
 485 0 423 -15 349 -15 c 0
 136 -15 53 85 53 235 c 0xfc
EndSplineSet
Validated: 1
EndChar

StartChar: uni029C
Encoding: 642 668 484
GlifName: uni029C_
Width: 663
GlyphClass: 2
Flags: MW
HStem: 0 21G<70 70 70 221 430 430 430 579> 193 104<221 430 221 430> 452 20G<70 221 221 221 430 579 579 579>
VStem: 70 151<0 193 297 472> 430 149<0 193 193 193 297 472 0 472>
LayerCount: 2
Fore
SplineSet
70 0 m 1
 70 472 l 1
 221 472 l 1
 221 297 l 1
 430 297 l 1
 430 472 l 1
 579 472 l 1
 579 0 l 1
 430 0 l 1
 430 193 l 1
 221 193 l 1
 221 0 l 1
 70 0 l 1
EndSplineSet
Validated: 1
EndChar

StartChar: uni029D
Encoding: 643 669 485
GlifName: uni029D_
Width: 360
GlyphClass: 2
Flags: MW
HStem: -166 96 -35 90<78 110 101 110 258 341> 452 20G<110 258 258 258> 550 136<97 258 97 258>
VStem: -46 87<-59.5 -58 -59.5 -35.5> 97 161<550 686> 110 148<-50 -35 -76 -35 55 472>
LayerCount: 2
Fore
SplineSet
-46 -59 m 0xfc
 -46 -12 -8 55 101 55 c 2
 110 55 l 1
 110 472 l 1xfa
 258 472 l 1
 258 55 l 1
 341 55 l 1
 341 -35 l 1
 258 -35 l 1
 258 -117 225 -171 109 -171 c 0
 91 -171 74 -169 58 -166 c 0
 -5 -152 -46 -113 -46 -59 c 0xfc
41 -58 m 0
 41 -61 41 -70 61 -71 c 0
 65 -71 69 -70 73 -70 c 0
 93 -69 110 -70 110 -50 c 2
 110 -35 l 1
 101 -35 l 2
 55 -35 45 -51 41 -58 c 0
97 550 m 1xfc
 97 686 l 1
 258 686 l 1
 258 550 l 1
 97 550 l 1xfc
EndSplineSet
Validated: 1
EndChar

StartChar: uni029E
Encoding: 644 670 486
GlifName: uni029E_
Width: 531
GlyphClass: 2
Flags: MW
HStem: -165 21G<277 410 277 277> 0 21G<-24 148 -24 -24> 452 20G<-43 109 109 109 280 410 410 410>
VStem: 280 130<317 472 -165 472>
LayerCount: 2
Fore
SplineSet
-43 472 m 1
 109 472 l 1
 241 277 l 1
 280 317 l 1
 280 472 l 1
 410 472 l 1
 410 -165 l 1
 277 -165 l 1
 277 135 l 1
 235 90 189 44 148 0 c 1
 -24 0 l 1
 151 183 l 1
 -43 472 l 1
EndSplineSet
Validated: 1
EndChar

StartChar: uni029F
Encoding: 645 671 487
GlifName: uni029F_
Width: 472
GlyphClass: 2
Flags: MW
HStem: 0 98<219 227 219 424> 452 20G<68 219 219 219>
VStem: 68 151<98 472 98 472 98 472>
LayerCount: 2
Fore
SplineSet
68 0 m 1
 68 472 l 1
 219 472 l 1
 219 98 l 1
 235 98 253 99 269 99 c 2
 297 99 l 2
 319 99 341 100 363 100 c 2
 424 100 l 1
 424 0 l 1
 68 0 l 1
EndSplineSet
Validated: 1
EndChar

StartChar: uni02A0
Encoding: 646 672 488
GlifName: uni02A_0
Width: 586
GlyphClass: 2
Flags: MW
HStem: -160 21G<346 496 346 346> -11 90<235.5 247> 389 94<252.5 259 172 300.5> 551 89<533 576.5>
VStem: 32 151<194 291.5 194 324.5> 349 147<169 331 331 344 430 471 471 472 -160 522>
LayerCount: 2
Fore
SplineSet
32 236 m 0
 32 413 112 483 232 483 c 0
 286 483 320 461 349 430 c 1
 349 471 l 2
 349 573 401 640 558 640 c 0
 607 640 635 625 667 585 c 1
 623 466 l 1
 610 515 592 551 561 551 c 0
 505 551 496 510 496 472 c 2
 496 -160 l 1
 346 -160 l 1
 346 -12 l 1
 346 37 l 1
 314 10 274 -11 220 -11 c 0
 107 -11 32 59 32 236 c 0
183 235 m 0
 183 153 200 79 271 79 c 0
 342 79 349 121 349 169 c 2
 349 331 l 2
 349 357 320 389 281 389 c 0
 224 389 183 348 183 235 c 0
EndSplineSet
Validated: 1
EndChar

StartChar: uni02A1
Encoding: 647 673 489
GlifName: uni02A_1
Width: 550
GlyphClass: 2
Flags: MW
HStem: 0 21G<178 329 178 178> 179 90<31 178 31 178 329 474> 607 89<227 285>
VStem: 178 151<0 179 0 179 269 347> 333 151<477 551.5>
LayerCount: 2
Fore
SplineSet
52 638 m 1
 116 675 178 696 259 696 c 0
 381 696 484 659 484 510 c 0
 484 410 395 366 329 347 c 1
 329 269 l 1
 474 269 l 1
 474 179 l 1
 329 179 l 1
 329 0 l 1
 178 0 l 1
 178 179 l 1
 31 179 l 1
 31 269 l 1
 178 269 l 1
 178 409 l 1
 249 419 333 437 333 517 c 0
 333 586 315 607 255 607 c 0
 199 607 143 581 95 524 c 1
 52 638 l 1
EndSplineSet
Validated: 1
EndChar

StartChar: uni02A2
Encoding: 648 674 490
GlifName: uni02A_2
Width: 550
GlyphClass: 2
Flags: MW
HStem: 0 21G<209 360 209 209> 179 90<62 209 62 209 360 507> 607 89<251 310.5>
VStem: 54 149<499 550 471 591.5> 209 151<0 179 0 179 269 347 347 347>
LayerCount: 2
Fore
SplineSet
54 510 m 0
 54 673 177 696 279 696 c 0
 361 696 423 674 485 638 c 1
 443 524 l 1
 394 581 339 607 282 607 c 0
 220 607 203 584 203 516 c 0
 203 426 334 410 360 410 c 1
 360 269 l 1
 507 269 l 1
 507 179 l 1
 360 179 l 1
 360 0 l 1
 209 0 l 1
 209 179 l 1
 62 179 l 1
 62 269 l 1
 209 269 l 1
 209 347 l 1
 57 390 54 488 54 510 c 0
EndSplineSet
Validated: 1
EndChar

StartChar: uni02A3
Encoding: 649 675 491
GlifName: uni02A_3
Width: 951
GlyphClass: 2
Flags: MW
HStem: 0 90<201 239 201 438> 388 84<223.5 261>
LayerCount: 2
Fore
SplineSet
30 238 m 0
 30 376.054392733 105.636549213 483 216 483 c 0
 272 483 311 467 346 441 c 1
 346 695 l 1
 494 695 l 1
 494 0 l 1
 346 0 l 1
 346 37 l 1
 311.196850394 7 273.322834646 -11 216 -11 c 0xbc
 161 -11 30 10 30 238 c 0
181 249 m 0x3c
 181 119 198 78 267 78 c 0
 340.802631579 78 346 133 346 155 c 2
 346 371 l 1
 324.015625 387 306.21875 394 279 394 c 0
 186 394 181 319 181 249 c 0x3c
504 0 m 1
 504 59 l 1
 741 387 l 1
 518 387 l 1
 518 472 l 1
 916 472 l 1
 916 416 l 1
 681 91 l 1
 918 91 l 1
 918 0 l 1
 504 0 l 1
EndSplineSet
Validated: 1
EndChar

StartChar: uni02A4
Encoding: 650 676 492
GlifName: uni02A_4
Width: 782
GlyphClass: 2
Flags: MW
HStem: -171 89<478.5 549 478.5 572.5> -11 90<220 230.5> 348 135 394 89<131 280.5> 452 20G<472 732 732 732> 666 20G<325 472 472 472>
VStem: 33 151<194.5 232 232 270 194.5 291> 322 150<-1 131 30 131 118 131 294 330 330 348> 598 134
LayerCount: 2
Fore
SplineSet
33 229 m 0xcf80
 33 320.179487179 53 483 209 483 c 0xd780
 256 483 292 467 323 447 c 1
 323 686 l 1
 472 686 l 1
 472 472 l 1
 732 472 l 1
 732 388 l 1
 600 234 l 1
 709 200 748 114 748 31 c 0
 748 -130 635 -171 510 -171 c 0
 436 -171 362 -157 289 -133 c 1
 329 -24 l 1
 388 -59 444 -82 513 -82 c 0
 585 -82 598 -44 598 25 c 0
 598 106 537 125 472 131 c 1
 472 0 l 1
 323 0 l 1
 323 30 l 1
 292 7 254 -11 207 -11 c 0
 115 -11 33 73 33 229 c 0xcf80
184 230 m 0
 184 163.35172371 190.032218489 79 259 79 c 0
 288 79 314 104 323 118 c 9
 323 378 l 1
 308 387 291 394 270 394 c 0
 196 394 184 315.967741935 184 230 c 0
472 294 m 1
 519 348 l 1
 472 348 l 1xe780
 472 294 l 1
EndSplineSet
Validated: 1
EndChar

StartChar: uni02A5
Encoding: 651 677 493
GlifName: uni02A_5
Width: 1079
GlyphClass: 2
Flags: W
HStem: -11 89<207.822 305.683> 0 103<723 731 848 912.514> 145 91<865.601 953.5> 381 91<539 739> 394 89<142.472 313.626> 675 20G<346 494>
VStem: 30 151<108.563 359.324> 343 151<0 37 89.094 384.856 441 695>
LayerCount: 2
Fore
SplineSet
30 238 m 0xa7
 30 359 72 483 216 483 c 0
 272 483 311 467 346 441 c 1
 346 695 l 1
 494 695 l 1
 494 0 l 1
 343 0 l 1x6f
 343 37 l 1
 309 7 272 -11 216 -11 c 0
 161 -11 30 10 30 238 c 0xa7
181 249 m 4
 181 119 198 78 267 78 c 0xaf
 298 78 333 97.2857142857 343 105 c 1
 343 371 l 1
 322 387 305 394 279 394 c 0
 196 394 181 320 181 249 c 4
524 0 m 1x77
 524 72 l 1
 739 381 l 1
 539 381 l 1
 539 472 l 1
 935 472 l 1
 935 415 l 1
 723 103 l 1
 774 103 l 1
 846 229 878 236 919 236 c 0
 988 236 1048 191 1048 124 c 0
 1048 50 975 -1.37155911628e-014 863 0 c 2
 822 0 l 1
 762 -120 l 1
 667 -120 l 1
 731 0 l 1
 524 0 l 1x77
848 103 m 1
 870 103 l 1
 891 104 914 108 914 128 c 0
 914 134 911 145 904 145 c 0
 895 145 868 134 848 103 c 1
EndSplineSet
Validated: 1
EndChar

StartChar: uni02A6
Encoding: 652 678 494
GlifName: uni02A_6
Width: 703
GlyphClass: 2
Flags: MW
HStem: -11 94<307 497> 384 88<17 84 17 81 226 309> 400 88<480.5 530.5> 647 20G<84 226 226 226>
VStem: 84 142<472 667> 325 115<349.5 376.5 349.5 401> 569 116<109 147>
LayerCount: 2
Fore
SplineSet
17 384 m 1xde
 17 472 l 1
 84 472 l 1
 84 667 l 1
 226 667 l 1
 226 472 l 1
 309 472 l 1
 309 384 l 1
 226 384 l 1xde
 226 149 l 2
 226 61 266 83 307 83 c 2
 504 83 l 2
 535 83 569 89 569 129 c 0
 569 165 534 174 498 178 c 0
 444 187 325 215 325 338 c 0
 325 464 413 488 504 488 c 0
 565 488 606 479 670 453 c 1
 650 338 l 1
 609 369 566 400 495 400 c 0xbe
 466 400 440 392 440 361 c 0
 440 338 458 327 481 320 c 0
 516 311 601 313 656 238 c 0
 673 215 685 185 685 148 c 0
 685 -9 561 -11 497 -11 c 2
 180 -11 l 2
 96 -11 81 56 81 146 c 2
 81 384 l 1
 17 384 l 1xde
EndSplineSet
Validated: 33
EndChar

StartChar: uni02A7
Encoding: 653 679 495
GlifName: uni02A_7
Width: 581
GlyphClass: 2
Flags: MW
HStem: -181 88<285.5 328 285.5 382> -11 94<162.5 297 226 297> 384 88<17 83 17 80 226 349> 618 89<516 561>
VStem: 83 143<472 667> 349 147<-39 -32 -32 4 4 4 164 384 384 384 472 560>
LayerCount: 2
Fore
SplineSet
17 384 m 1
 17 472 l 1
 83 472 l 1
 83 667 l 1
 226 667 l 1
 226 472 l 1
 349 472 l 1
 349 562 l 2
 349 676.226268901 418.452812276 707 533 707 c 0
 596 707 627 688 661 664 c 1
 626 568 l 1
 608 591 584 618 538 618 c 0
 500 618 496 586 496 560 c 2
 496 -32 l 2
 496 -133 451 -181 313 -181 c 0
 246 -181 191.449612403 -162.333333333 153 -139 c 1
 195 -23 l 1
 214.358024691 -56.2926829268 259 -93 307 -93 c 0
 349 -93 349 -57 349 -39 c 2
 349 4 l 1
 318 -3 281 -11 226 -11 c 0
 99 -11 80 62 80 151 c 2
 80 384 l 1
 17 384 l 1
226 155 m 0
 226 117 233 83 285 83 c 0
 309 83 349 97 349 164 c 2
 349 384 l 1
 226 384 l 1
 226 155 l 0
EndSplineSet
Validated: 1
EndChar

StartChar: uni02A8
Encoding: 654 680 496
GlifName: uni02A_8
Width: 829
GlyphClass: 2
Flags: W
HStem: -11 94<131.5 310.127 577.007 680.075> 136 89<600.885 682.698> 384 88<14 81 223 354> 394 94<552.362 709.307>
VStem: 81 142<88.9275 384 472 607> 370 149<164.505 360.78>
LayerCount: 2
Fore
SplineSet
14 384 m 1xec
 14 472 l 1
 81 472 l 1
 81 607 l 1
 223 607 l 1
 223 472 l 1
 354 472 l 1
 354 384 l 1
 223 384 l 1
 223 141 l 2
 223 104.564102564 233.5 83 283 83 c 0
 310.91011236 83 337.269662921 97 352 118 c 1
 373 36 l 1
 321.105263158 9 267.421052632 -11 203 -11 c 0
 99.8039215686 -11 81 92 81 146 c 2
 81 384 l 1
 14 384 l 1xec
352 -120 m 1
 380.461321954 -65.1279886203 411.222556495 -12.5558898288 443 39 c 1
 413 64 370 114 370 237 c 0
 370 438 484 488 612 488 c 0
 689 488 723 477 788 443 c 1
 769 330 l 1
 724 362 671 394 613 394 c 0xdc
 523 394 519 316 519 237 c 0
 519 196 521 178 524 162 c 1
 559 199 597 225 660 225 c 0
 738 225 799 182 799 116 c 0
 799 40 718 -11 606 -11 c 0
 557 -11 535 -5 519 1 c 1
 496 -28 470 -72 444 -120 c 1
 352 -120 l 1
576 88 m 1
 587 84 596 83 611 83 c 0
 669 83 685 99 684 115 c 0
 683 131 668 136 655 136 c 0
 639 136 608 130 576 88 c 1
EndSplineSet
Validated: 33
EndChar

StartChar: uni02A9
Encoding: 655 681 497
GlifName: uni02A_9
Width: 786
GlyphClass: 2
Flags: MW
HStem: -171 101<530 540.5 503 636> 0 21G<81 227 81 81 272 422 272 272> 394 78 463 20G<526 635> 601 95
VStem: 81 191<0 384 0 384 0 528 0 561.5> 272 111<472 684> 565 148<-25.5 53.5>
LayerCount: 2
Fore
SplineSet
27 384 m 1xed
 27 472 l 1
 81 472 l 1
 81 528 l 2xed
 81 655.062044454 161.867535932 696 284 696 c 0
 318 696 341 693 383 684 c 1
 383 558 l 1
 352.183988276 586.796531934 330.506163604 607 284 607 c 0
 233.660441524 607 224 571.745503468 224 535 c 2
 224 472 l 1
 416 472 l 1xeb
 416 404 l 1
 442 441 488 483 564 483 c 0xdd
 704.773308828 483 714 392.963680699 714 292 c 2
 714 10 l 2
 714 -19 714 -171 558 -171 c 0
 502 -171 445 -153 407 -137 c 1
 448 -51 l 1
 473 -64 491 -70 515 -70 c 0
 558.768710404 -70 564 -22.873801762 564 10 c 2
 564 323 l 2
 564 364 555 394 508 394 c 0
 429 394 422 276 422 240 c 2
 422 0 l 1
 272 0 l 1
 272 384 l 1
 227 384 l 1
 227 0 l 1
 81 0 l 1
 81 384 l 1
 27 384 l 1xed
EndSplineSet
Validated: 1
EndChar

StartChar: uni02AA
Encoding: 656 682 498
GlifName: uni02A_A_
Width: 638
GlyphClass: 2
Flags: MW
HStem: 21 21G<202 202> 106 0<54 54> 136 20G<202 202> 400 88<324.5 376>
VStem: 54 235<0 369.5 106 369.5 340.5 369 369 369.5 340.5 686> 54 477 202 0<0 0 21 21 156 156 251 251 435 435 686 686>
LayerCount: 2
Fore
SplineSet
51 0 m 1xf0
 51 695 l 1
 198 695 l 1
 198 0 l 1
 51 0 l 1xf0
216 38 m 1
 237.68359375 168.102539062 l 1
 245.92578125 152.62890625 298.427734375 84 405 84 c 0
 461 84 472 108 472 129 c 0
 472 151 452.353049903 165.045215415 433 171 c 0
 420 175 222 180 222 338 c 0
 222 464 311 488 403 488 c 0
 465 488 504 481 572 453 c 1
 552 338 l 1
 495 380 457 400 391 400 c 0
 344 400 337 377 337 362 c 0
 337 319 395.454826433 319.128276133 447 307 c 0
 515 291 587 242 587 147 c 0
 587 21 506 -11 406 -11 c 0
 335 -11 277 6 216 38 c 1
EndSplineSet
Validated: 1
EndChar

StartChar: uni02AB
Encoding: 657 683 499
GlifName: uni02A_B_
Width: 664
GlyphClass: 2
Flags: HMW
HStem: 90 0<345 345> 227 20G<304 304> 472 0<202 202 580 580>
VStem: 202 204<106 388 388 686 388 472>
LayerCount: 2
Fore
SplineSet
214 0 m 1
 214 59 l 1
 451 388 l 1
 228 388 l 1
 228 472 l 1
 626 472 l 1
 626 416 l 1
 391 90 l 1
 628 90 l 1
 628 0 l 1
 214 0 l 1
51 0 m 1
 51 695 l 1
 198 695 l 1
 198 0 l 1
 51 0 l 1
EndSplineSet
Validated: 1
EndChar

StartChar: uni02AC
Encoding: 658 684 500
GlifName: uni02A_C_
Width: 372
GlyphClass: 2
Flags: MW
HStem: 0 21G<65 143 65 65 203 299 203 203> 509 20G<-2 77 77 77 151 211 211 211 289 366 366 366>
LayerCount: 2
Fore
SplineSet
-2 529 m 1
 77 529 l 1
 89 485 102 440 114 396 c 1
 126 440 139 485 151 529 c 1
 211 529 l 1
 224 482 237 436 250 389 c 1
 289 529 l 1
 366 529 l 1
 299 283 l 1
 203 283 l 1
 195 315 l 1
 195 314 l 1
 179 369 176 370 173 399 c 1
 166 370 158 340 151 311 c 2
 143 283 l 1
 65 283 l 1
 -2 529 l 1
-2 246 m 1
 77 246 l 1
 89 202 102 157 114 113 c 1
 126 157 139 202 151 246 c 1
 211 246 l 1
 224 199 237 153 250 106 c 1
 289 246 l 1
 366 246 l 1
 299 0 l 1
 203 0 l 1
 195 32 l 1
 195 31 l 1
 179 86 176 87 173 116 c 1
 166 87 158 57 151 28 c 2
 143 0 l 1
 65 0 l 1
 -2 246 l 1
EndSplineSet
Validated: 1
EndChar

StartChar: uni02AD
Encoding: 659 685 501
GlifName: uni02A_D_
Width: 550
GlyphClass: 2
Flags: MW
HStem: 0 180<78 167 78 459 370 459 370 370> 91 89<167 370 167 167> 214 180<78 167 78 459 370 459 370 370> 305 89<167 370 167 167>
VStem: 78 89<0 91 0 180 214 305> 370 89<0 91 91 91 214 305 305 305>
LayerCount: 2
Fore
SplineSet
78 394 m 1xac
 459 394 l 1
 459 214 l 1
 370 214 l 1xac
 370 305 l 1
 167 305 l 1x9c
 167 214 l 1
 78 214 l 1
 78 394 l 1xac
78 180 m 1
 459 180 l 1
 459 0 l 1
 370 0 l 1xac
 370 91 l 1
 167 91 l 1x6c
 167 0 l 1
 78 0 l 1
 78 180 l 1
EndSplineSet
Validated: 1
EndChar

StartChar: uni02AE
Encoding: 660 686 502
GlifName: uni02A_E_
Width: 611
GlyphClass: 2
Flags: MW
HStem: -160 21G<369 520 369 369> -11 90<278.5 315> 302 181<-45 112.5 -45 112.5 50 91> 452 20G<369 520 520 520>
VStem: 91 140 370 150<205.5 245>
LayerCount: 2
Fore
SplineSet
-55 312 m 1xec
 -53 405 5 483 95 483 c 0xec
 130 483 203 467 231 409 c 0
 238 394 242 377 242 357 c 2
 242 194 l 2
 242 135 252 79 305 79 c 0
 366 79 370 175 370 236 c 0
 370 254 369 270 369 288 c 2
 369 472 l 1
 520 472 l 1xdc
 520 -160 l 1
 369 -160 l 1
 369 1 l 1
 347 -8 329 -11 301 -11 c 0
 97 -11 91 125 91 212 c 2
 91 272 l 1
 91 272 l 1
 91 302 l 1
 23 302 l 1
 -45 302 l 1
 -55 312 l 1xec
EndSplineSet
Validated: 1
EndChar

StartChar: uni02AF
Encoding: 661 687 503
GlifName: uni02A_F_
Width: 611
GlyphClass: 2
Flags: MW
HStem: -166 90 -11 90<280 317> 11 21G<532 682 682 682> 302 181<-43 115.5 -43 115.5 52 93> 452 20G<371 522 522 522>
VStem: 93 142 371 151<-23 1 1 1 288 472> 532 150<11 11>
LayerCount: 2
Fore
SplineSet
-53 312 m 1xd7
 -51 405 7 483 97 483 c 0
 134 483 210 465 235 401 c 0
 240 388 243 374 243 357 c 2
 243 194 l 2
 243 135 253 79 307 79 c 0xd7
 368 79 372 175 372 236 c 0
 372 254 371 270 371 288 c 2
 371 472 l 1
 522 472 l 1
 522 -51 l 2
 522 -59 523 -68 527 -76 c 1
 529 -49 530 -23 532 11 c 1
 682 11 l 1xaf
 679 -74 636 -147 569 -166 c 0
 558 -169 546 -171 533 -171 c 0
 446 -171 371 -114 371 -23 c 2
 371 1 l 1
 349 -8 331 -11 303 -11 c 0
 99 -11 93 125 93 212 c 2
 93 272 l 1
 93 272 l 1
 93 302 l 1
 25 302 l 1
 -43 302 l 1
 -53 312 l 1xd7
EndSplineSet
Validated: 1
EndChar

StartChar: uni02B0
Encoding: 662 688 504
GlifName: uni02B_0
Width: 280
GlyphClass: 2
Flags: MW
HStem: 382 21G<21 21 21 107 169 169 169 255> 582 55<124.5 211> 720 20G<21 105 105 105>
VStem: 21 86<382 517 382 740> 169 86<382 548 382 551 382 560>
LayerCount: 2
Fore
SplineSet
21 382 m 1
 21 740 l 1
 105 740 l 1
 105 606 l 1
 120 622 142 637 174 637 c 0
 248 637 255 596 255 548 c 2
 255 382 l 1
 169 382 l 1
 169 551 l 2
 169 569 165 582 146 582 c 0
 103 582 107 517 107 517 c 1
 107 382 l 1
 21 382 l 1
EndSplineSet
Validated: 33
EndChar

StartChar: uni02B1
Encoding: 663 689 505
GlifName: uni02B_1
Width: 280
GlyphClass: 2
Flags: MW
HStem: 382 21G<21 21 21 107 169 169 169 255> 582 55<158 161> 696 54<136.5 174.5>
VStem: 21 86<382 517 382 659> 169 86<382 517 517 531>
LayerCount: 2
Fore
SplineSet
21 382 m 1
 21 659 l 1
 21 659 l 1
 21 715 53 750 158 750 c 0
 195 750 219 741 253 717 c 1
 228 648 l 1
 208 680 189 696 160 696 c 0
 113 696 105 677 105 654 c 2
 105 606 l 1
 120 622 142 637 174 637 c 0
 248 637 255 596 255 548 c 2
 255 382 l 1
 169 382 l 1
 169 517 l 2
 169 545 176 582 146 582 c 0
 103 582 107 517 107 517 c 1
 107 382 l 1
 21 382 l 1
EndSplineSet
Validated: 37
EndChar

StartChar: uni02B2
Encoding: 664 690 506
GlifName: uni02B_2
Width: 208
GlyphClass: 2
Flags: MW
HStem: 295 62<7 77.5> 641 20G<36 36 36 120> 720 20G<36 120 120 120>
VStem: 36 84<376 632 376 632 376 632 661 740>
LayerCount: 2
Fore
SplineSet
-15 314 m 1
 -1 369 l 1
 19 361 31 357 43 357 c 0
 63 357 66 371 66 385 c 2
 66 632 l 1
 150 632 l 1
 150 376 l 2
 150 342 148 295 67 295 c 0
 40 295 11 304 -15 314 c 1
66 661 m 1
 66 740 l 1
 150 740 l 1
 150 661 l 1
 66 661 l 1
EndSplineSet
Validated: 1
EndChar

StartChar: uni02B3
Encoding: 665 691 507
GlifName: uni02B_3
Width: 186
GlyphClass: 2
Flags: MW
HStem: 382 21G<21 21 21 105> 617 20G<184 184>
VStem: 21 82<600 634 600 634 600 634>
LayerCount: 2
Fore
SplineSet
21 382 m 1
 21 634 l 1
 103 634 l 1
 103 600 l 1
 118 619 143 636 184 637 c 1
 184 568 l 1
 129 567 107 537 105 518 c 2
 105 382 l 1
 21 382 l 1
EndSplineSet
Validated: 1
EndChar

StartChar: uni02B4
Encoding: 666 692 508
GlifName: uni02B_4
Width: 186
GlyphClass: 2
Flags: MW
HStem: 377 21G<-1 -1> 612 20G<77 161 161 161>
VStem: 77 84<497 632 380 632>
LayerCount: 2
Fore
SplineSet
-1 377 m 1
 -1 446 l 1
 35 447 74 463 77 497 c 2
 77 632 l 1
 161 632 l 1
 161 380 l 1
 80 380 l 1
 80 414 l 1
 64 395 40 378 -1 377 c 1
EndSplineSet
Validated: 1
EndChar

StartChar: uni02B5
Encoding: 667 693 509
GlifName: uni02B_5
Width: 239
GlyphClass: 2
Flags: MW
HStem: 291 21G<125.5 184> 612 20G<77 162 162 162>
VStem: 77 85<371 410 410 410 497 632>
LayerCount: 2
Fore
SplineSet
0 377 m 1
 0 446 l 1
 36 447 77 463 77 497 c 2
 77 632 l 1
 162 632 l 1
 162 369 l 2
 162 359 163.5 345 180 345 c 0
 193.818181818 345 212.411764706 365.25 218 372 c 1
 235 322 l 1
 209.461538462 299 187.753846154 291 152 291 c 0
 80.2258064516 291 77 341 77 371 c 2
 77 410 l 1
 63 394 38 378 0 377 c 1
EndSplineSet
Validated: 1
EndChar

StartChar: uni02B6
Encoding: 668 694 510
GlifName: uni02B_6
Width: 288
GlyphClass: 2
Flags: MW
HStem: 382 21G<29 29 29 106> 383 61 444 35<114 141 114 144 114 154.5> 612 20G<29 114 114 114 196 285 285 285>
VStem: 29 85<444 444 444 479 534 632> 183 82<453.5 467 430.5 471>
LayerCount: 2
Fore
SplineSet
29 382 m 1xbc
 29 632 l 1
 114 632 l 1
 114 534 l 1
 133 534 l 1
 196 632 l 1
 285 632 l 1
 214 527 l 1
 259 510 265 473 265 461 c 0
 265 400 212 386 172 383 c 0x5c
 146 380 128 382 106 382 c 2
 29 382 l 1xbc
114 444 m 1xbc
 144 444 l 2
 165 444 183 445 183 462 c 0
 183 480 161 479 141 479 c 2
 114 479 l 1
 114 444 l 1xbc
EndSplineSet
Validated: 33
EndChar

StartChar: uni02B7
Encoding: 669 695 511
GlifName: uni02B_7
Width: 372
GlyphClass: 2
Flags: MW
HStem: 382 21G<65 144 65 65 205 302 205 205> 611 20G<-3 76 76 76 151 213 213 213 291 370 370 370>
LayerCount: 2
Fore
SplineSet
-3 631 m 1
 76 631 l 1
 89 586 101 542 114 497 c 1
 126 542 139 586 151 631 c 1
 213 631 l 1
 226 584 239 536 252 489 c 1
 291 631 l 1
 370 631 l 1
 302 382 l 1
 205 382 l 1
 196 414 l 1
 196 413 l 1
 180 469 177 470 174 500 c 1
 166 470 159 440 151 410 c 2
 144 382 l 1
 65 382 l 1
 -3 631 l 1
EndSplineSet
Validated: 1
EndChar

StartChar: uni02B8
Encoding: 670 696 512
GlifName: uni02B_8
Width: 250
GlyphClass: 2
Flags: MW
HStem: 295 62<54.5 75.5 54.5 91.5> 612 20G<-5 78 78 78 170 250 250 250>
LayerCount: 2
Fore
SplineSet
-5 632 m 1
 78 632 l 1
 108 563 122 526 130 503 c 1
 141 545 157 590 170 632 c 1
 250 632 l 1
 163 370 l 1
 164 370 l 1
 152 334 122 295 61 295 c 0
 45 295 29 297 13 300 c 1
 9 374 l 1
 27 365 46 357 63 357 c 0
 88 357 92 372 97 388 c 0
 98 389 99 391 100 392 c 2
 -5 632 l 1
EndSplineSet
Validated: 1
EndChar

StartChar: uni02B9
Encoding: 671 697 513
GlifName: uni02B_9
Width: 183
GlyphClass: 2
Flags: MW
HStem: 502 21G<-16 -16 -16 73> 675 20G<45 204 204 204>
LayerCount: 2
Fore
SplineSet
-16 502 m 1
 45 695 l 1
 204 695 l 1
 73 502 l 1
 -16 502 l 1
EndSplineSet
Validated: 1
EndChar

StartChar: uni02BA
Encoding: 672 698 514
GlifName: uni02B_A_
Width: 550
GlyphClass: 2
Flags: MW
HStem: 531 21G<105 105 105 194 283 371 283 283> 675 20G<129 289 289 289 307 467 467 467>
LayerCount: 2
Fore
SplineSet
105 531 m 1
 129 695 l 1
 289 695 l 1
 194 531 l 1
 105 531 l 1
283 531 m 1
 307 695 l 1
 467 695 l 1
 371 531 l 1
 283 531 l 1
EndSplineSet
Validated: 1
EndChar

StartChar: uni02BB
Encoding: 673 699 515
GlifName: uni02B_B_
Width: 306
GlyphClass: 2
Flags: HMW
HStem: 439 21G<76 76 76 223> 675 20G<143 226 226 226>
VStem: 76 147<439 499 499 528.5>
LayerCount: 2
Fore
SplineSet
76 439 m 1
 76 554 l 2
 143 695 l 1
 226 695 l 1
 189 586 l 1
 223 586 l 1
 223 439 l 1
 76 439 l 1
EndSplineSet
Validated: 1
EndChar

StartChar: uni02BC
Encoding: 674 700 516
GlifName: uni02B_C_
Width: 306
GlyphClass: 2
Flags: MW
HStem: 439 21G<72 156 72 72> 674 20G<76 223 223 223>
VStem: 76 147<568 694 568 694 568 694>
LayerCount: 2
Fore
SplineSet
76 547 m 1
 76 694 l 1
 223 694 l 1
 223 568 l 2
 222 550 222 550 206 525 c 0
 197 510 179 481 156 439 c 1
 72 439 l 1
 111 547 l 1
 76 547 l 1
EndSplineSet
Validated: 1
EndChar

StartChar: uni02BD
Encoding: 675 701 517
GlifName: uni02B_D_
Width: 306
GlyphClass: 2
Flags: MW
HStem: 439 21G<143 227 143 143> 675 20G<76 223 223 223>
VStem: 76 147<575 695 547 695>
LayerCount: 2
Fore
SplineSet
76 575 m 1
 76 695 l 1
 223 695 l 1
 223 547 l 1
 188 547 l 1
 199 513 215 471 227 439 c 1
 143 439 l 1
 87 536 l 1
 77 555 l 1
 76 575 l 1
EndSplineSet
Validated: 1
EndChar

StartChar: uni02BE
Encoding: 676 702 518
GlifName: uni02B_E_
Width: 367
GlyphClass: 2
Flags: MW
HStem: 0 90<97 97> 299 20G<97 97>
VStem: 97 188<0 205 90 205 119.5 319 119.5 319> 194 91<142.5 166.5>
LayerCount: 2
Fore
SplineSet
97 0 m 1xe0
 97 90 l 1xe0
 161 93 194 126 194 159 c 0xd0
 194 174 181 226 97 229 c 1
 97 319 l 1
 202 317 285 251 285 159 c 0
 285 80 214 2 97 0 c 1xe0
EndSplineSet
Validated: 1
EndChar

StartChar: uni02BF
Encoding: 677 703 519
GlifName: uni02B_F_
Width: 367
GlyphClass: 2
Flags: MW
HStem: 0 21G<263 263> 229 90<263 263>
VStem: 75 91<149 177.5 149 199> 75 188<0 199>
LayerCount: 2
Fore
SplineSet
75 159 m 0xd0
 75 239 144 316 263 319 c 1
 263 229 l 1xd0
 205 226 166 196 166 159 c 0xe0
 166 139 182 94 263 90 c 1
 263 0 l 1
 149 2 75 76 75 159 c 0xd0
EndSplineSet
Validated: 1
EndChar

StartChar: uni02C0
Encoding: 678 704 520
GlifName: uni02C_0
Width: 489
GlyphClass: 2
Flags: MW
HStem: 367 21G<149 302 149 149> 670 89<220 242.5>
VStem: 149 153<367 475 367 535 367 535> 276 151<569 638>
LayerCount: 2
Fore
SplineSet
58 721 m 1xd0
 104 743 160 759 229 759 c 0
 300 759 427 753 427 607 c 0xd0
 427 524 362 492 302 475 c 1
 302 367 l 1
 149 367 l 1
 149 535 l 1xe0
 121 549 276 526 276 612 c 0
 276 664 265 670 220 670 c 0
 164 668 124 637 91 603 c 1
 53 709 l 1
 58 721 l 1xd0
EndSplineSet
Validated: 33
EndChar

StartChar: uni02C1
Encoding: 679 705 521
GlifName: uni02C_1
Width: 489
GlyphClass: 2
Flags: MW
HStem: 367 21G<178 330 178 178> 670 89<236.5 259>
VStem: 52 152<597.5 636.5 597.5 673.5> 178 152<367 475 475 475>
LayerCount: 2
Fore
SplineSet
52 607 m 0xe0
 52 740 157 759 250 759 c 0
 318 759 378 741 429 717 c 1
 388 603 l 1
 348 642 310 668 259 670 c 0
 214 670 204 661 204 612 c 0xe0
 204 583 218 550 330 540 c 1
 330 367 l 1
 178 367 l 1
 178 475 l 1xd0
 118 492 52 524 52 607 c 0xe0
EndSplineSet
Validated: 1
EndChar

StartChar: uni02C2
Encoding: 680 706 522
GlifName: uni02C_2
Width: 367
GlyphClass: 2
Flags: MW
HStem: 483 21G<277.5 295.5> 716 20G<278.5 297>
LayerCount: 2
Fore
SplineSet
22 609 m 0
 22 644 48 654 77 664 c 1
 76 664 l 1
 76 664 270 736 287 736 c 0
 307 736 323 724 331 709 c 0
 335 701 337 693 337 684 c 0
 337 647 320 641 239 613 c 2
 224 608 l 1
 244 603 l 1
 316 577 337 571 337 534 c 0
 337 525 334 516 330 508 c 0
 321 493 305 483 286 483 c 0
 269 483 259 491 81 553 c 1
 60 553 22 569 22 609 c 0
EndSplineSet
Validated: 1
EndChar

StartChar: uni02C3
Encoding: 681 707 523
GlifName: uni02C_3
Width: 367
GlyphClass: 2
Flags: MW
HStem: 483 21G<58 77> 716 20G<63.5 77>
LayerCount: 2
Fore
SplineSet
22 533 m 0
 22 571 42 575 116 603 c 1
 135 609 l 1
 48 638 22 644 22 684 c 0
 22 693 25 701 29 709 c 0
 38 724 54 736 73 736 c 0
 81 736 84 735 144 713 c 2
 278 666 l 1
 299 645 337 657 337 609 c 0
 337 572 304 561 283 554 c 1
 284 554 l 2
 282 553 281 553 279 552 c 2
 102 490 l 2
 91 486 81 483 73 483 c 0
 43 483 22 510 22 533 c 0
EndSplineSet
Validated: 1
EndChar

StartChar: circumflex
Encoding: 682 710 524
GlifName: circumflex
Width: 524
GlyphClass: 2
Flags: MW
HStem: 526 21G<82 82 82 177 365 365 365 461> 672 20G<213 328 328 328>
LayerCount: 2
Fore
SplineSet
71 550 m 1
 180 720 l 1
 344 720 l 1
 453 550 l 1
 360 550 l 1
 258 616 l 1
 164 550 l 1
 71 550 l 1
EndSplineSet
Validated: 1
EndChar

StartChar: caron
Encoding: 683 711 525
GlifName: caron
Width: 550
GlyphClass: 2
Flags: MW
HStem: 526 21G<214 327 214 214> 660 20G<68 164 164 164 377 473 473 473>
LayerCount: 2
Fore
SplineSet
71 720 m 1
 164 720 l 1
 266 634 l 1
 360 720 l 1
 453 720 l 1
 344 550 l 1
 180 550 l 1
 71 720 l 1
EndSplineSet
Validated: 1
EndChar

StartChar: uni02C8
Encoding: 684 712 526
GlifName: uni02C_8
Width: 244
GlyphClass: 2
Flags: MW
HStem: 438 21G<75 75 75 165> 675 20G<75 165 165 165>
VStem: 75 90<438 695 438 695>
LayerCount: 2
Fore
SplineSet
75 438 m 1
 75 695 l 1
 165 695 l 1
 165 438 l 1
 75 438 l 1
EndSplineSet
Validated: 1
EndChar

StartChar: uni02CC
Encoding: 688 716 530
GlifName: uni02C_C_
Width: 244
GlyphClass: 2
Flags: MW
HStem: -162 21G<75 75 75 165> 74 20G<75 165 165 165>
VStem: 75 90<-162 94 -162 94>
LayerCount: 2
Fore
SplineSet
75 -162 m 1
 75 94 l 1
 165 94 l 1
 165 -162 l 1
 75 -162 l 1
EndSplineSet
Validated: 1
EndChar

StartChar: uni02CD
Encoding: 689 717 531
GlifName: uni02C_D_
Width: 539
GlyphClass: 2
Flags: W
HStem: -260 151<14 526>
LayerCount: 2
Fore
SplineSet
14 -109 m 1
 526 -109 l 1
 526 -260 l 1
 14 -260 l 1
 14 -109 l 1
EndSplineSet
Validated: 1
EndChar

StartChar: uni02CE
Encoding: 690 718 532
GlifName: uni02C_E_
Width: 550
GlyphClass: 2
Flags: MW
HStem: -201 21G<260 353 260 260> -67 20G<80 244 244 244>
LayerCount: 2
Fore
SplineSet
80 -47 m 1
 244 -47 l 1
 353 -201 l 1
 260 -201 l 1
 220 -167 180 -132 140 -98 c 2
 80 -47 l 1
EndSplineSet
Validated: 1
EndChar

StartChar: uni02CF
Encoding: 691 719 533
GlifName: uni02C_F_
Width: 550
GlyphClass: 2
Flags: MW
HStem: -201 21G<187 187 187 281> -67 20G<297 460 460 460>
LayerCount: 2
Fore
SplineSet
187 -201 m 1
 297 -47 l 1
 460 -47 l 1
 300 -185 296 -188 281 -201 c 1
 187 -201 l 1
EndSplineSet
Validated: 1
EndChar

StartChar: uni02D0
Encoding: 692 720 534
GlifName: uni02D_0
Width: 306
GlyphClass: 2
Flags: MW
HStem: 0 21G<45 45 45 254> 458 20G<45 254 254 254>
LayerCount: 2
Fore
SplineSet
45 0 m 1
 149 209 l 1
 254 0 l 1
 45 0 l 1
45 478 m 1
 254 478 l 1
 149 269 l 1
 45 478 l 1
EndSplineSet
Validated: 1
EndChar

StartChar: uni02D1
Encoding: 693 721 535
GlifName: uni02D_1
Width: 306
GlyphClass: 2
Flags: MW
HStem: 269 21G<149 149> 458 20G<45 254 254 254>
LayerCount: 2
Fore
SplineSet
45 478 m 1
 254 478 l 1
 149 269 l 1
 45 478 l 1
EndSplineSet
Validated: 1
EndChar

StartChar: uni02D2
Encoding: 694 722 536
GlifName: uni02D_2
Width: 367
GlyphClass: 2
Flags: MW
HStem: 150 90<97 97> 448 20G<97 97>
VStem: 97 188<150 354.5 240 354.5 269 468 269 468> 194 91<292.5 316.5>
LayerCount: 2
Fore
SplineSet
97 150 m 1xe0
 97 240 l 1xe0
 161 243 194 276 194 309 c 0xd0
 194 324 181 376 97 379 c 1
 97 468 l 1
 202 466 285 400 285 309 c 0
 285 229 214 152 97 150 c 1xe0
EndSplineSet
Validated: 1
EndChar

StartChar: uni02D3
Encoding: 695 723 537
GlifName: uni02D_3
Width: 367
GlyphClass: 2
Flags: MW
HStem: 150 21G<263 263> 379 89<263 263>
VStem: 75 91<299 327.5 299 349> 75 188<150 349>
LayerCount: 2
Fore
SplineSet
75 309 m 0xd0
 75 389 144 465 263 468 c 1
 263 379 l 1xd0
 205 376 166 346 166 309 c 0xe0
 166 289 182 244 263 240 c 1
 263 150 l 1
 149 152 75 225 75 309 c 0xd0
EndSplineSet
Validated: 1
EndChar

StartChar: uni02D4
Encoding: 696 724 538
GlifName: uni02D_4
Width: 489
GlyphClass: 2
Flags: MW
HStem: 95 90<94 195 94 195 285 385> 307 20G<195 285 285 285>
VStem: 195 90<185 327 185 327>
LayerCount: 2
Fore
SplineSet
94 95 m 1
 94 185 l 1
 195 185 l 1
 195 327 l 1
 285 327 l 1
 285 185 l 1
 385 185 l 1
 385 95 l 1
 94 95 l 1
EndSplineSet
Validated: 1
EndChar

StartChar: uni02D5
Encoding: 697 725 539
GlifName: uni02D_5
Width: 489
GlyphClass: 2
Flags: MW
HStem: 95 21G<195 285 195 195> 237 90<94 385 94 195 285 285 285 385>
VStem: 195 90<95 237 95 237>
LayerCount: 2
Fore
SplineSet
94 237 m 1
 94 327 l 1
 385 327 l 1
 385 237 l 1
 285 237 l 1
 285 95 l 1
 195 95 l 1
 195 237 l 1
 94 237 l 1
EndSplineSet
Validated: 1
EndChar

StartChar: uni02D6
Encoding: 698 726 540
GlifName: uni02D_6
Width: 489
GlyphClass: 2
Flags: MW
HStem: 0 21G<195 285 195 195> 119 90<76 195 76 195 285 404> 307 20G<195 285 285 285>
VStem: 195 90<0 119 0 119 209 327>
LayerCount: 2
Fore
SplineSet
76 119 m 1
 76 209 l 1
 195 209 l 1
 195 327 l 1
 285 327 l 1
 285 209 l 1
 404 209 l 1
 404 119 l 1
 285 119 l 1
 285 0 l 1
 195 0 l 1
 195 119 l 1
 76 119 l 1
EndSplineSet
Validated: 1
EndChar

StartChar: uni02D7
Encoding: 699 727 541
GlifName: uni02D_7
Width: 489
GlyphClass: 2
Flags: MW
HStem: 185 108<52 427 52 427>
LayerCount: 2
Fore
SplineSet
52 185 m 1
 52 293 l 1
 427 293 l 1
 427 185 l 1
 52 185 l 1
EndSplineSet
Validated: 1
EndChar

StartChar: breve
Encoding: 700 728 542
GlifName: breve
Width: 550
GlyphClass: 2
Flags: HMW
HStem: 502 111<257.5 283.5 257.5 318> 502 178<77 318>
VStem: 77 89<680 680> 374 90<680 680>
LayerCount: 2
Fore
SplineSet
107 648 m 1x70
 196 648 l 1x70
 200.285714286 604.507462687 251.714285714 601 271 601 c 0xb0
 288.718446602 601 339.747572816 605.208955224 344 648 c 1
 434 648 l 1
 431.463917526 547.696629213 351.154639175 490 270 490 c 0
 190.611398964 490 109.533678756 547.696629213 107 648 c 1x70
EndSplineSet
EndChar

StartChar: dotaccent
Encoding: 701 729 543
GlifName: dotaccent
Width: 288
GlyphClass: 2
Flags: HMW
HStem: 532 163<80 243 80 243>
VStem: 80 163<532 695 532 695>
LayerCount: 2
Fore
SplineSet
80 567 m 1
 80 695 l 1
 208 695 l 1
 208 567 l 1
 80 567 l 1
EndSplineSet
EndChar

StartChar: ring
Encoding: 702 730 544
GlifName: ring
Width: 733
GlyphClass: 2
Flags: HMW
HStem: 492 53<360 378.5 360 396> 627 53<343.5 377.5>
VStem: 232 79<569.5 603 569.5 623> 409 80<570.5 602.5>
AnchorPoint: "top_550" 360 580 mark 0
LayerCount: 2
Fore
SplineSet
232 664 m 0
 232 734 290 778 362 778 c 0
 446 778 489 730 489 665 c 0
 489 595.421052632 438 550 360 550 c 0
 292 550 232 587 232 664 c 0
311 665 m 0
 311 613.333333333 337.965969059 603 360 603 c 0
 387 603 409 617.87804878 409 664 c 0
 409 713.097560976 384 725 361 725 c 0
 336 725 311 713 311 665 c 0
EndSplineSet
Validated: 1
EndChar

